<?xml version="1.0" encoding="utf-8"?>
<!-- Generator: Adobe Illustrator 25.0.0, SVG Export Plug-In . SVG Version: 6.00 Build 0)  -->
<svg version="1.1" id="Layer_2" xmlns="http://www.w3.org/2000/svg" xmlns:xlink="http://www.w3.org/1999/xlink" x="0px" y="0px"
	 viewBox="0 0 114.3 148.8" style="enable-background:new 0 0 114.3 148.8;" xml:space="preserve">
<style type="text/css">
	.st0{fill:#010101;}
	.st1{fill:#434044;}
	.st2{fill:#FFFFFF;}
	.st3{fill:#87338D;}
	.st4{fill:#B6B7B7;}
	.st5{fill:#EB0D8C;}
	.st6{fill:#1683C6;}
	.st7{fill:#A5A5A5;}
	.st8{fill:url(#SVGID_1_);}
</style>
<path class="st0" d="M84.4,148.8h-55c-6.6,0-11.9-5.4-11.9-11.9v-125C17.5,5.4,22.9,0,29.4,0h54.8c6.6,0,11.9,5.4,11.9,11.9v124.9
	C96.3,143.4,90.9,148.8,84.4,148.8z"/>
<path class="st1" d="M53.5,10.8H62c0.3,0,0.7,0.3,0.7,0.7l0,0c0,0.3-0.3,0.7-0.7,0.7h-8.6c-0.3,0-0.7-0.3-0.7-0.7l0,0
	C52.8,11.2,53.1,10.8,53.5,10.8z"/>
<circle class="st1" cx="48.8" cy="11.5" r="0.7"/>
<path class="st2" d="M87.5,125.7H27.5c-1.4,0-2.4-1-2.4-2.4V22.4c0-1.4,1-2.4,2.4-2.4h60.1c1.4,0,2.4,1,2.4,2.4v100.9
	C90.2,124.7,88.9,125.7,87.5,125.7z"/>
<rect x="25" y="27.8" class="st3" width="65" height="6.6"/>
<rect x="27.1" y="22.4" class="st4" width="3.3" height="0.9"/>
<rect x="27.1" y="23.6" class="st4" width="3.3" height="0.9"/>
<rect x="27.1" y="24.8" class="st4" width="3.3" height="0.9"/>
<rect x="25" y="37.9" class="st3" width="65" height="31.8"/>
<rect x="31.8" y="49.9" class="st2" width="38.1" height="7.2"/>
<rect x="69.9" y="49.9" class="st5" width="8.7" height="7.2"/>
<rect x="28.9" y="72.5" class="st6" width="16.2" height="12.9"/>
<rect x="49.5" y="72.5" class="st6" width="16.2" height="12.9"/>
<rect x="69.9" y="72.5" class="st6" width="16.2" height="12.9"/>
<rect x="28.9" y="87.7" class="st7" width="16.2" height="1.2"/>
<rect x="28.9" y="90.1" class="st7" width="16.2" height="1.2"/>
<rect x="28.9" y="92.7" class="st7" width="16.2" height="1.2"/>
<rect x="28.9" y="95.4" class="st7" width="16.2" height="1.2"/>
<rect x="28.9" y="97.8" class="st7" width="16.2" height="1.2"/>
<rect x="49.5" y="87.7" class="st7" width="16.2" height="1.2"/>
<rect x="49.5" y="90.1" class="st7" width="16.2" height="1.2"/>
<rect x="49.5" y="92.7" class="st7" width="16.2" height="1.2"/>
<rect x="49.5" y="95.4" class="st7" width="16.2" height="1.2"/>
<rect x="49.5" y="97.8" class="st7" width="16.2" height="1.2"/>
<rect x="69.9" y="87.7" class="st7" width="16.2" height="1.2"/>
<rect x="69.9" y="90.1" class="st7" width="16.2" height="1.2"/>
<rect x="69.9" y="92.7" class="st7" width="16.2" height="1.2"/>
<rect x="69.9" y="95.4" class="st7" width="16.2" height="1.2"/>
<rect x="69.9" y="97.8" class="st7" width="16.2" height="1.2"/>
<rect x="28.9" y="119.6" class="st7" width="57.3" height="1.4"/>
<rect x="28.9" y="122.3" class="st7" width="57.3" height="1.4"/>
<rect x="28.9" y="101.5" class="st5" width="57.3" height="16.2"/>
<radialGradient id="SVGID_1_" cx="57.568" cy="8.3803" r="6.0771" gradientTransform="matrix(1 0 0 -1 0 147.4)" gradientUnits="userSpaceOnUse">
	<stop  offset="0" style="stop-color:#767676"/>
	<stop  offset="0.6658" style="stop-color:#010101"/>
</radialGradient>
<circle class="st8" cx="57.5" cy="139" r="6.1"/>
</svg>
