<?xml version="1.0" encoding="utf-8"?>
<!-- Generator: Adobe Illustrator 25.0.0, SVG Export Plug-In . SVG Version: 6.00 Build 0)  -->
<svg version="1.1" id="Layer_1" xmlns="http://www.w3.org/2000/svg" xmlns:xlink="http://www.w3.org/1999/xlink" x="0px" y="0px"
	 viewBox="0 0 45.1 85.2" style="enable-background:new 0 0 45.1 85.2;" xml:space="preserve">
<style type="text/css">
	.st0{fill:#010101;}
	.st1{fill:#434044;}
	.st2{fill:#FFFFFF;}
	.st3{fill:#87338D;}
	.st4{fill:#B6B7B7;}
	.st5{fill:#EB0D8C;}
	.st6{fill:#1683C6;}
	.st7{fill:#A5A5A5;}
	.st8{fill:url(#SVGID_1_);}
</style>
<path class="st0" d="M38.3,85.2H6.8c-3.8,0-6.8-3.1-6.8-6.8V6.8C0,3.1,3.1,0,6.8,0h31.4c3.8,0,6.8,3.1,6.8,6.8v71.5
	C45.1,82.1,42,85.2,38.3,85.2z"/>
<path class="st1" d="M20.6,6.2h4.9c0.2,0,0.4,0.2,0.4,0.4v0c0,0.2-0.2,0.4-0.4,0.4h-4.9c-0.2,0-0.4-0.2-0.4-0.4v0
	C20.2,6.4,20.4,6.2,20.6,6.2z"/>
<circle class="st1" cx="17.9" cy="6.6" r="0.4"/>
<path class="st2" d="M40.1,72H5.7c-0.8,0-1.4-0.6-1.4-1.4V12.8c0-0.8,0.6-1.4,1.4-1.4h34.4c0.8,0,1.4,0.6,1.4,1.4v57.8
	C41.6,71.4,40.9,72,40.1,72z"/>
<rect x="4.3" y="15.9" class="st3" width="37.2" height="3.8"/>
<rect x="5.5" y="12.8" class="st4" width="1.9" height="0.5"/>
<rect x="5.5" y="13.5" class="st4" width="1.9" height="0.5"/>
<rect x="5.5" y="14.2" class="st4" width="1.9" height="0.5"/>
<rect x="4.3" y="21.7" class="st3" width="37.2" height="18.2"/>
<rect x="8.2" y="28.6" class="st2" width="21.8" height="4.1"/>
<rect x="30" y="28.6" class="st5" width="5" height="4.1"/>
<rect x="6.5" y="41.5" class="st6" width="9.3" height="7.4"/>
<rect x="18.3" y="41.5" class="st6" width="9.3" height="7.4"/>
<rect x="30" y="41.5" class="st6" width="9.3" height="7.4"/>
<rect x="6.5" y="50.2" class="st7" width="9.3" height="0.7"/>
<rect x="6.5" y="51.6" class="st7" width="9.3" height="0.7"/>
<rect x="6.5" y="53.1" class="st7" width="9.3" height="0.7"/>
<rect x="6.5" y="54.6" class="st7" width="9.3" height="0.7"/>
<rect x="6.5" y="56" class="st7" width="9.3" height="0.7"/>
<rect x="18.3" y="50.2" class="st7" width="9.3" height="0.7"/>
<rect x="18.3" y="51.6" class="st7" width="9.3" height="0.7"/>
<rect x="18.3" y="53.1" class="st7" width="9.3" height="0.7"/>
<rect x="18.3" y="54.6" class="st7" width="9.3" height="0.7"/>
<rect x="18.3" y="56" class="st7" width="9.3" height="0.7"/>
<rect x="30" y="50.2" class="st7" width="9.3" height="0.7"/>
<rect x="30" y="51.6" class="st7" width="9.3" height="0.7"/>
<rect x="30" y="53.1" class="st7" width="9.3" height="0.7"/>
<rect x="30" y="54.6" class="st7" width="9.3" height="0.7"/>
<rect x="30" y="56" class="st7" width="9.3" height="0.7"/>
<rect x="6.5" y="68.5" class="st7" width="32.8" height="0.8"/>
<rect x="6.5" y="70" class="st7" width="32.8" height="0.8"/>
<rect x="6.5" y="58.1" class="st5" width="32.8" height="9.3"/>
<radialGradient id="SVGID_1_" cx="22.9409" cy="79.5951" r="3.4779" gradientUnits="userSpaceOnUse">
	<stop  offset="0" style="stop-color:#767676"/>
	<stop  offset="0.6658" style="stop-color:#010101"/>
</radialGradient>
<circle class="st8" cx="22.9" cy="79.6" r="3.5"/>
</svg>
