<?xml version="1.0" encoding="utf-8"?>
<!-- Generator: Adobe Illustrator 25.2.3, SVG Export Plug-In . SVG Version: 6.00 Build 0)  -->
<svg version="1.1" id="Layer_2" xmlns="http://www.w3.org/2000/svg" xmlns:xlink="http://www.w3.org/1999/xlink" x="0px" y="0px"
	 viewBox="0 0 504 360" style="enable-background:new 0 0 504 360;" xml:space="preserve">
<style type="text/css">
	.st0{fill:#403F41;}
	.st1{fill:#F4811F;}
</style>
<g>
	<path class="st0" d="M44.4,261.6c-6.4,0-12.3,0.5-16.9,1.4v64.2c3.3,0.4,8.1,0.9,14.2,0.9c11.4,0,20.5-2.6,26.4-8
		c5-4.5,9.8-12.6,9.8-26.7c0-11.8-3.7-19.9-9.8-24.9C62.6,263.9,55.3,261.6,44.4,261.6 M44.8,317.9c-1.7,0-3.6,0-4.8-0.3v-45.8
		c1.4-0.3,3.3-0.5,5.9-0.5c11.6,0,18.8,7.3,18.8,22.1C64.8,310.6,56.8,318,44.8,317.9"/>
	<path class="st0" d="M105.9,279.1c-13.8,0-21.6,11.7-21.6,25.3c0,14.7,8.3,23.8,22.9,23.8c5.9,0,11.4-1,15.3-2.7l-1.8-8.7
		c-3.2,1.1-6.9,2-11.5,2c-6.8,0-12.6-3.2-12.9-11.3h28.3c0.3-1.4,0.3-3.1,0.3-5C124.8,287.2,117.3,279.1,105.9,279.1 M96.2,298.8
		c0.3-4.7,2.9-10.9,8.9-10.9c6.2,0,8.1,6,8.1,10.9H96.2z"/>
	<path class="st0" d="M159.9,280.1L154,303c-1,4.2-1.9,8-2.6,12.1h-0.2c-0.8-4.1-1.6-8-2.6-12.1l-6.2-22.9h-13.5l15.9,47.3h12.1
		l16.1-47.3H159.9"/>
	<polygon class="st1" points="192.7,298.7 214,298.7 214,288.4 192.7,288.4 192.7,272.6 215.3,272.6 215.3,262.1 180.1,262.1 
		180.1,327.4 216.6,327.4 216.6,316.8 192.7,316.8 	"/>
	<path class="st1" d="M264.1,280.1h-13.3l-4.2,8.5c-1.2,2.5-2.3,5-3.5,7.6h-0.2c-1.2-2.4-2.3-4.8-3.6-7.5l-4.5-8.6h-13.9l14,23.3
		l-14.3,23.9h13.4l4.4-9.2c1.2-2.5,2.4-4.9,3.5-7.5h0.2c1.2,2.5,2.3,5,3.6,7.5l4.7,9.2h14.1L250,302.9L264.1,280.1"/>
	<path class="st1" d="M296,279.1c-6.1,0-11,2.6-14,7.5h-0.2l-0.6-6.5h-11c0.2,4.3,0.3,9.3,0.3,15.5v50.8h12.6v-23.5h0.2
		c2,3.1,6,5.5,11.2,5.5c9.6,0,19.4-7.6,19.4-25C314,288.7,306.3,279.1,296,279.1 M291.6,318.4c-4.2,0-8.4-3.3-8.4-10.2v-8.8
		c0-5.7,3.8-10.3,8.7-10.3c6.2,0,9.4,6.1,9.4,14.5C301.2,312.2,297.9,318.4,291.6,318.4"/>
	<path class="st1" d="M334.1,288.3h-0.3l-0.5-8.2h-10.8c0.2,4.2,0.3,8.9,0.3,14.8v32.5h12.6v-24.5c0-8.1,4.3-11.9,10-11.9
		c1.3,0,2.3,0.1,3.2,0.3v-12c-0.8-0.2-1.6-0.3-2.8-0.3C341.4,279.1,336.3,282.2,334.1,288.3"/>
	<path class="st1" d="M374.7,279.1c-13.8,0-21.6,11.7-21.6,25.3c0,14.7,8.3,23.8,22.9,23.8c5.9,0,11.4-1,15.3-2.7l-1.8-8.7
		c-3.2,1.1-6.9,2-11.5,2c-6.8,0-12.6-3.2-12.9-11.3h28.3c0.2-1.4,0.3-3.1,0.3-5C393.6,287.2,386.1,279.1,374.7,279.1 M365,298.8
		c0.3-4.7,2.9-10.9,8.9-10.9c6.2,0,8.1,6,8.1,10.9H365z"/>
	<path class="st1" d="M419.7,298.8c-5.4-2.3-7.2-3.7-7.2-6.3c0-2.6,2-4.5,5.8-4.5c3.6,0,6.9,1.4,8.9,2.5l2.4-8.8
		c-2.7-1.4-6.9-2.6-11.7-2.6c-10.5,0-17.3,6.4-17.3,14.9c0,5.2,3.2,10.2,12,13.7c5.2,2.2,6.8,3.7,6.8,6.6c0,2.9-2.1,4.8-6.5,4.8
		c-3.9,0-8.6-1.7-11-3.1l-2.4,9.1c3.1,1.9,8.2,3.1,13.3,3.1c11.8,0,18.6-5.9,18.6-14.9C431.4,306.7,427.7,302.1,419.7,298.8"/>
	<path class="st1" d="M457.3,298.8c-5.4-2.3-7.2-3.7-7.2-6.3c0-2.6,2-4.5,5.9-4.5c3.6,0,6.9,1.4,8.9,2.5l2.4-8.8
		c-2.7-1.4-6.9-2.6-11.7-2.6c-10.5,0-17.3,6.4-17.3,14.9c0,5.2,3.2,10.2,12.1,13.7c5.2,2.2,6.8,3.7,6.8,6.6c0,2.9-2.1,4.8-6.5,4.8
		c-3.9,0-8.6-1.7-11-3.1l-2.4,9.1c3.1,1.9,8.2,3.1,13.3,3.1c11.8,0,18.6-5.9,18.6-14.9C469,306.7,465.3,302.1,457.3,298.8"/>
	<path class="st1" d="M481.1,277.3L481.1,277.3c1.4-0.4,2.1-1.1,2.1-2.3c0-0.8-0.3-1.4-0.9-1.8c-0.6-0.4-1.4-0.6-2.5-0.6h-2.8v8.7
		h1.7v-3.5h0.7c0.5,0,1,0.4,1.3,1.3l0.8,2.2h2l-1-2.5C482.1,277.9,481.7,277.5,481.1,277.3 M479.9,276.4h-1.2v-2.5h1
		c1.1,0,1.7,0.4,1.7,1.2l-0.4,0.9L479.9,276.4"/>
	<path class="st1" d="M485,272c-1.3-1.3-3-1.9-5-1.9c-2,0-3.7,0.7-5.1,2c-1.4,1.3-2,3-2,4.9c0,2,0.7,3.6,2,4.9c1.3,1.3,3,1.9,5,1.9
		c2,0,3.6-0.7,5-2c1.4-1.3,2.1-3,2.1-4.9C487,275,486.4,273.3,485,272 M484.2,281.2c-1.1,1.1-2.5,1.7-4.2,1.7
		c-1.7,0-3.1-0.6-4.2-1.7c-1.1-1.1-1.7-2.5-1.7-4.2c0-1.7,0.6-3.1,1.7-4.2c1.1-1.1,2.5-1.7,4.2-1.7c1.7,0,3.1,0.6,4.2,1.7
		c1.1,1.1,1.7,2.5,1.7,4.2C485.9,278.6,485.3,280,484.2,281.2"/>
</g>
<g>
	<path class="st0" d="M174,194c-5.4,6.7-9.3,12.6-12.4,18.1c-0.8,1.4-2.1,5.3-2.1,8v3.9c0,6.6,5.4,12.1,12.1,12.1H357
		c6.6,0,12.1-5.5,12.1-12.1V81.3C267.4,99.2,205.9,154.3,174,194"/>
	<path class="st1" d="M357,26.5H171.6c-6.7,0-12.1,5.4-12.1,12.1v111.1c36.7-38.6,102-80.7,201.6-92.2c2.6-0.3,8-1.5,8-8.9v-10
		C369,32,363.6,26.5,357,26.5"/>
</g>
</svg>
