<?xml version="1.0" encoding="utf-8"?>
<!-- Generator: Adobe Illustrator 25.0.0, SVG Export Plug-In . SVG Version: 6.00 Build 0)  -->
<svg version="1.1" id="Layer_1" xmlns="http://www.w3.org/2000/svg" xmlns:xlink="http://www.w3.org/1999/xlink" x="0px" y="0px"
	 viewBox="0 0 438.5 305.7" style="enable-background:new 0 0 438.5 305.7;" xml:space="preserve">
<style type="text/css">
	.st0{fill:url(#SVGID_1_);}
	.st1{fill:url(#SVGID_2_);}
	.st2{fill:url(#SVGID_3_);}
	.st3{opacity:0.6;fill:#020230;enable-background:new    ;}
	.st4{fill:url(#SVGID_4_);}
	.st5{fill:url(#SVGID_5_);}
	.st6{fill:url(#SVGID_6_);}
	.st7{fill:url(#SVGID_7_);}
	.st8{fill:#FFFFFF;}
	.st9{opacity:0.4;}
	.st10{fill:#06033E;}
	.st11{fill:url(#SVGID_8_);}
	.st12{fill:url(#SVGID_9_);}
	.st13{opacity:0.4;fill:#06033E;enable-background:new    ;}
	.st14{opacity:0.5;fill:#06033E;enable-background:new    ;}
	.st15{fill:url(#SVGID_10_);}
	.st16{opacity:0.5;}
	.st17{fill:#E8975B;}
	.st18{fill:#F8359E;}
	.st19{fill:url(#SVGID_11_);}
	.st20{fill:url(#SVGID_12_);}
	.st21{fill:url(#SVGID_13_);}
	.st22{fill:url(#SVGID_14_);}
	.st23{fill:url(#SVGID_15_);}
	.st24{fill:url(#SVGID_16_);}
	.st25{fill:url(#SVGID_17_);}
	.st26{fill:#0C0A78;}
	.st27{fill:url(#SVGID_18_);}
	.st28{opacity:0.5;fill:#FFFFFF;enable-background:new    ;}
</style>
<linearGradient id="SVGID_1_" gradientUnits="userSpaceOnUse" x1="405.8819" y1="56.4031" x2="438.4819" y2="56.4031" gradientTransform="matrix(1 0 0 -1 0 306.7209)">
	<stop  offset="0" style="stop-color:#E39A65"/>
	<stop  offset="1" style="stop-color:#E95F8D"/>
</linearGradient>
<path class="st0" d="M422.2,259.9c-1.2,0-2.4-0.3-3.5-0.9l-11.7-6.8c-0.7-0.4-1.1-1.1-1.1-1.9s0.4-1.5,1.1-1.9l11.7-6.8
	c2.1-1.2,4.8-1.2,7,0l11.7,6.8c0.7,0.4,1.1,1.1,1.1,1.9s-0.4,1.5-1.1,1.9l-11.7,6.8C424.6,259.6,423.4,259.9,422.2,259.9z
	 M422.2,242.6c-0.9,0-1.8,0.2-2.6,0.7l-11.7,6.8c-0.1,0.1-0.2,0.2-0.2,0.3c0,0.1,0,0.2,0.2,0.3l11.7,6.8l0,0c1.6,0.9,3.5,0.9,5.1,0
	l11.7-6.8c0.1-0.1,0.2-0.2,0.2-0.3c0-0.1,0-0.2-0.2-0.3l-11.7-6.8C423.9,242.8,423,242.6,422.2,242.6z"/>
<linearGradient id="SVGID_2_" gradientUnits="userSpaceOnUse" x1="361.2229" y1="101.1031" x2="416.0013" y2="101.1031" gradientTransform="matrix(1 0 0 -1 0 306.7209)">
	<stop  offset="0" style="stop-color:#E39A65"/>
	<stop  offset="1" style="stop-color:#E95F8D"/>
</linearGradient>
<path class="st1" d="M388.6,221.5c-2,0-3.9-0.5-5.7-1.5l-20.2-11.7c-1-0.6-1.5-1.5-1.5-2.7c0-1.1,0.6-2.1,1.5-2.7l20.2-11.7
	c3.5-2,7.8-2,11.3,0l20.2,11.7c1,0.6,1.5,1.5,1.5,2.7c0,1.1-0.6,2.1-1.5,2.7L394.2,220C392.5,220.9,390.6,221.5,388.6,221.5z
	 M383.9,218.3c2.9,1.7,6.5,1.7,9.5,0l20.2-11.7c0.5-0.3,0.6-0.8,0.6-1s-0.1-0.7-0.6-1l-20.2-11.7c-2.9-1.7-6.5-1.7-9.5,0l-20.2,11.7
	c-0.5,0.3-0.6,0.8-0.6,1s0.1,0.7,0.6,1L383.9,218.3z"/>
<linearGradient id="SVGID_3_" gradientUnits="userSpaceOnUse" x1="2.294531e-02" y1="82.8031" x2="54.8013" y2="82.8031" gradientTransform="matrix(1 0 0 -1 0 306.7209)">
	<stop  offset="0" style="stop-color:#E39A65"/>
	<stop  offset="1" style="stop-color:#E95F8D"/>
</linearGradient>
<path class="st2" d="M27.4,239.8c-2,0-3.9-0.5-5.7-1.5L1.5,226.6c-1-0.6-1.5-1.5-1.5-2.7c0-1.1,0.6-2.1,1.5-2.7l20.2-11.7
	c3.5-2,7.8-2,11.3,0l20.2,11.7c1,0.6,1.5,1.5,1.5,2.7c0,1.1-0.6,2.1-1.5,2.7L33,238.3C31.3,239.3,29.3,239.8,27.4,239.8z M27.4,210
	c-1.6,0-3.3,0.4-4.7,1.3L2.5,223c-0.5,0.3-0.6,0.8-0.6,1s0.1,0.7,0.6,1l20.2,11.7l0,0c2.9,1.7,6.5,1.7,9.5,0L52.4,225
	c0.5-0.3,0.6-0.8,0.6-1s-0.1-0.7-0.6-1l-20.2-11.7C30.6,210.4,29,210,27.4,210z"/>
<g>
	<path class="st3" d="M231.9,290.7L87.5,207.3c-2.1-1.2-1.8-3.3,0.6-4.7l92.7-53.5c2.4-1.4,6.1-1.6,8.2-0.3l144.4,83.4
		c2.1,1.2,1.8,3.3-0.6,4.7l-92.7,53.5C237.7,291.7,234,291.9,231.9,290.7z"/>
	
		<linearGradient id="SVGID_4_" gradientUnits="userSpaceOnUse" x1="63.7229" y1="86.2956" x2="356.123" y2="86.2956" gradientTransform="matrix(1 0 0 -1 0 306.7209)">
		<stop  offset="0" style="stop-color:#E39A65"/>
		<stop  offset="1" style="stop-color:#E95F8D"/>
	</linearGradient>
	<path class="st4" d="M235.2,305.7c-1.7,0-3.3-0.4-4.5-1.1l0,0L65.8,209.5c-1.3-0.8-2.1-1.9-2.1-3.2c0-1.4,1-2.9,2.8-3.9l112.4-65.8
		c3.1-1.8,7.6-2,10.3-0.4L354,231.4c1.3,0.8,2.1,1.9,2.1,3.2c0,1.4-1,2.9-2.8,3.9l-112.4,65.8C239.3,305.2,237.2,305.7,235.2,305.7z
		 M184.7,137.1c-1.7,0-3.5,0.4-4.9,1.2L67.4,204.1c-1.2,0.7-1.8,1.5-1.8,2.3c0,0.7,0.6,1.2,1.2,1.5l164.8,95.2l0,0
		c2.1,1.2,6,1,8.4-0.4l112.4-65.8c1.2-0.7,1.8-1.5,1.8-2.3c0-0.7-0.6-1.2-1.2-1.5l-164.8-95.2C187.3,137.3,186,137.1,184.7,137.1z"
		/>
	
		<radialGradient id="SVGID_5_" cx="225.2688" cy="302.6959" r="223.2961" gradientTransform="matrix(1 0 0 -1 0 306.7209)" gradientUnits="userSpaceOnUse">
		<stop  offset="0" style="stop-color:#E39A65"/>
		<stop  offset="0.4742" style="stop-color:#A92FFB"/>
		<stop  offset="0.5947" style="stop-color:#891CFB"/>
		<stop  offset="0.7421" style="stop-color:#6507FA"/>
		<stop  offset="0.8016" style="stop-color:#0D0C6F"/>
	</radialGradient>
	<path class="st5" d="M371.8,92.3L227.9,9.2c-1-0.6-2-0.7-2.9-0.4l0,0l0,0l0,0l-2.7,0.9l0.9,0.2c-0.4,0.4-0.7,1-0.9,1.6l-32.5,105.7
		c-0.8,2.6,0.4,5.8,2.6,7.1l143.9,83.1c0.3,0.2,0.7,0.3,1.1,0.4l-0.4,0.8l2.5-0.9l0,0c1-0.4,1.9-1.3,2.3-2.7l32.6-105.6
		C375.2,96.8,374.1,93.6,371.8,92.3z"/>
	
		<radialGradient id="SVGID_6_" cx="88.6961" cy="123.3729" r="244.1723" gradientTransform="matrix(1 0 0 -1 0 306.7209)" gradientUnits="userSpaceOnUse">
		<stop  offset="0" style="stop-color:#E39A65"/>
		<stop  offset="0.4742" style="stop-color:#A92FFB"/>
		<stop  offset="0.5679" style="stop-color:#891CFB"/>
		<stop  offset="0.6825" style="stop-color:#6507FA"/>
		<stop  offset="0.7381" style="stop-color:#0D0C6F"/>
	</radialGradient>
	<path class="st6" d="M331.2,211.3L331.2,211.3l-142-82c-2.1-1.2-5.7-1.1-8.2,0.3l-91.8,53l-3.1-1.2l0.9,4.3l0,0
		c0.1,0.6,0.6,1.3,1.4,1.7l143.4,82.9c2.1,1.2,5.7,1.1,8.2-0.3l92-53.1c1.1-0.7,1.8-1.5,2-2.3l0,0l0.9-4.2L331.2,211.3z"/>
	
		<radialGradient id="SVGID_7_" cx="111.1535" cy="172.3824" r="218.96" gradientTransform="matrix(1 0 0 -1 0 306.7209)" gradientUnits="userSpaceOnUse">
		<stop  offset="0" style="stop-color:#E39A65"/>
		<stop  offset="0.4742" style="stop-color:#A92FFB"/>
		<stop  offset="0.5875" style="stop-color:#891CFB"/>
		<stop  offset="0.7262" style="stop-color:#6507FA"/>
		<stop  offset="1" style="stop-color:#3919BB"/>
	</radialGradient>
	<path class="st7" d="M231.9,266.6L87.5,183.2c-2.1-1.2-1.8-3.3,0.6-4.7l92.7-53.5c2.4-1.4,6.1-1.6,8.2-0.3l144.4,83.4
		c2.1,1.2,1.8,3.3-0.6,4.7l-92.7,53.5C237.7,267.6,234,267.8,231.9,266.6z"/>
	<path class="st8" d="M332.8,211.6l-92.7,53.5c-2.4,1.4-6.1,1.6-8.2,0.3L87.5,182c-0.7-0.4-1.1-0.9-1.3-1.5c-0.3,1,0.1,1.9,1.3,2.6
		l144.4,83.4c2.1,1.2,5.8,1.1,8.2-0.3l92.7-53.5c1.6-0.9,2.2-2.2,1.9-3.2C334.5,210.2,333.9,211,332.8,211.6z"/>
	<g class="st9">
		<path class="st10" d="M156.4,169.7l-4.9-2.8c-0.4-0.2-0.3-0.6,0.1-0.9l5.8-3.3c0.5-0.3,1.1-0.3,1.5-0.1l4.9,2.8
			c0.4,0.2,0.3,0.6-0.1,0.9l-5.8,3.3C157.5,169.8,156.8,169.9,156.4,169.7z"/>
		<path class="st10" d="M163.9,174l-4.9-2.8c-0.4-0.2-0.3-0.6,0.1-0.9l5.8-3.3c0.5-0.3,1.1-0.3,1.5-0.1l4.9,2.8
			c0.4,0.2,0.3,0.6-0.1,0.9l-5.8,3.3C165,174.2,164.3,174.2,163.9,174z"/>
		<path class="st10" d="M171.4,178.3l-4.9-2.8c-0.4-0.2-0.3-0.6,0.1-0.9l5.8-3.3c0.5-0.3,1.1-0.3,1.5-0.1l4.9,2.8
			c0.4,0.2,0.3,0.6-0.1,0.9l-5.8,3.3C172.5,178.5,171.8,178.6,171.4,178.3z"/>
		<path class="st10" d="M181.9,174.8L177,172c-0.4-0.2-0.3-0.6,0.1-0.9l4.8-2.8c0.5-0.3,1.1-0.3,1.5-0.1l4.9,2.8
			c0.4,0.2,0.3,0.6-0.1,0.9l-4.8,2.8C182.9,175,182.2,175,181.9,174.8z"/>
		<path class="st10" d="M189.4,179.1l-4.9-2.8c-0.4-0.2-0.3-0.6,0.1-0.9l4.8-2.8c0.5-0.3,1.1-0.3,1.5-0.1l4.9,2.8
			c0.4,0.2,0.3,0.6-0.1,0.9l-4.8,2.8C190.5,179.3,189.8,179.3,189.4,179.1z"/>
		<path class="st10" d="M196.9,183.5l-4.9-2.8c-0.4-0.2-0.3-0.6,0.1-0.9l4.8-2.8c0.5-0.3,1.1-0.3,1.5-0.1l4.9,2.8
			c0.4,0.2,0.3,0.6-0.1,0.9l-4.8,2.8C198,183.6,197.3,183.7,196.9,183.5z"/>
		<path class="st10" d="M204.4,187.8l-4.9-2.8c-0.4-0.2-0.3-0.6,0.1-0.9l4.8-2.8c0.5-0.3,1.1-0.3,1.5-0.1l4.9,2.8
			c0.4,0.2,0.3,0.6-0.1,0.9l-4.8,2.8C205.5,188,204.8,188,204.4,187.8z"/>
		<path class="st10" d="M212,192.1l-4.9-2.8c-0.4-0.2-0.3-0.6,0.1-0.9l4.8-2.8c0.5-0.3,1.1-0.3,1.5-0.1l4.9,2.8
			c0.4,0.2,0.3,0.6-0.1,0.9l-4.8,2.8C213.1,192.3,212.4,192.4,212,192.1z"/>
		<path class="st10" d="M219.5,196.5l-4.9-2.8c-0.4-0.2-0.3-0.6,0.1-0.9l4.8-2.8c0.5-0.3,1.1-0.3,1.5-0.1l4.9,2.8
			c0.4,0.2,0.3,0.6-0.1,0.9l-4.8,2.8C220.6,196.7,219.9,196.7,219.5,196.5z"/>
		<path class="st10" d="M227,200.8l-4.9-2.8c-0.4-0.2-0.3-0.6,0.1-0.9l4.8-2.8c0.5-0.3,1.1-0.3,1.5-0.1l4.9,2.8
			c0.4,0.2,0.3,0.6-0.1,0.9l-4.8,2.8C228.1,201,227.4,201.1,227,200.8z"/>
		<path class="st10" d="M234.6,205.2l-4.9-2.8c-0.4-0.2-0.3-0.6,0.1-0.9l4.8-2.8c0.5-0.3,1.1-0.3,1.5-0.1l4.9,2.8
			c0.4,0.2,0.3,0.6-0.1,0.9l-4.8,2.8C235.6,205.4,235,205.4,234.6,205.2z"/>
		<path class="st10" d="M242.1,209.5l-4.9-2.8c-0.4-0.2-0.3-0.6,0.1-0.9l4.8-2.8c0.5-0.3,1.1-0.3,1.5-0.1l4.9,2.8
			c0.4,0.2,0.3,0.6-0.1,0.9l-4.8,2.8C243.2,209.7,242.5,209.8,242.1,209.5z"/>
		<path class="st10" d="M249.6,213.9l-4.9-2.8c-0.4-0.2-0.3-0.6,0.1-0.9l4.8-2.8c0.5-0.3,1.1-0.3,1.5-0.1l4.9,2.8
			c0.4,0.2,0.3,0.6-0.1,0.9l-4.8,2.8C250.7,214.1,250,214.1,249.6,213.9z"/>
		<path class="st10" d="M193,172.7l-4.9-2.8c-0.4-0.2-0.3-0.6,0.1-0.9l4.8-2.8c0.5-0.3,1.1-0.3,1.5-0.1l4.9,2.8
			c0.4,0.2,0.3,0.6-0.1,0.9l-4.8,2.8C194,172.9,193.3,172.9,193,172.7z"/>
		<path class="st10" d="M185.3,168.3l-4.9-2.8c-0.4-0.2-0.3-0.6,0.1-0.9l4.8-2.8c0.5-0.3,1.1-0.3,1.5-0.1l4.9,2.8
			c0.4,0.2,0.3,0.6-0.1,0.9l-4.8,2.8C186.4,168.5,185.7,168.5,185.3,168.3z"/>
		<path class="st10" d="M177.7,163.9l-10.5-6.1c-0.4-0.2-0.3-0.6,0.1-0.9l4.8-2.8c0.5-0.3,1.1-0.3,1.5-0.1l10.5,6.1
			c0.4,0.2,0.3,0.6-0.1,0.9l-4.8,2.8C178.7,164.1,178,164.1,177.7,163.9z"/>
		<path class="st10" d="M183,158.5l-8.5-4.9c-0.4-0.2-0.3-0.6,0.1-0.9l4.8-2.8c0.5-0.3,1.1-0.3,1.5-0.1l8.5,4.9
			c0.4,0.2,0.3,0.6-0.1,0.9l-4.8,2.8C184.1,158.7,183.4,158.7,183,158.5z"/>
		<path class="st10" d="M200.5,177l-4.9-2.8c-0.4-0.2-0.3-0.6,0.1-0.9l4.8-2.8c0.5-0.3,1.1-0.3,1.5-0.1l4.9,2.8
			c0.4,0.2,0.3,0.6-0.1,0.9l-4.8,2.8C201.6,177.2,200.9,177.3,200.5,177z"/>
		<path class="st10" d="M208,181.4l-4.9-2.8c-0.4-0.2-0.3-0.6,0.1-0.9l4.8-2.8c0.5-0.3,1.1-0.3,1.5-0.1l4.9,2.8
			c0.4,0.2,0.3,0.6-0.1,0.9l-4.8,2.8C209.1,181.6,208.4,181.6,208,181.4z"/>
		<path class="st10" d="M215.5,185.7l-4.9-2.8c-0.4-0.2-0.3-0.6,0.1-0.9l4.8-2.8c0.5-0.3,1.1-0.3,1.5-0.1l4.9,2.8
			c0.4,0.2,0.3,0.6-0.1,0.9l-4.8,2.8C216.6,185.9,215.9,186,215.5,185.7z"/>
		<path class="st10" d="M223.1,190.1l-4.9-2.8c-0.4-0.2-0.3-0.6,0.1-0.9l4.8-2.8c0.5-0.3,1.1-0.3,1.5-0.1l4.9,2.8
			c0.4,0.2,0.3,0.6-0.1,0.9l-4.8,2.8C224.1,190.3,223.5,190.3,223.1,190.1z"/>
		<path class="st10" d="M230.6,194.4l-4.9-2.8c-0.4-0.2-0.3-0.6,0.1-0.9l4.8-2.8c0.5-0.3,1.1-0.3,1.5-0.1l4.9,2.8
			c0.4,0.2,0.3,0.6-0.1,0.9l-4.8,2.8C231.7,194.6,231,194.7,230.6,194.4z"/>
		<path class="st10" d="M238.1,198.8l-4.9-2.8c-0.4-0.2-0.3-0.6,0.1-0.9l4.8-2.8c0.5-0.3,1.1-0.3,1.5-0.1l4.9,2.8
			c0.4,0.2,0.3,0.6-0.1,0.9l-4.8,2.8C239.2,199,238.5,199,238.1,198.8z"/>
		<path class="st10" d="M245.7,203.1l-4.9-2.8c-0.4-0.2-0.3-0.6,0.1-0.9l4.8-2.8c0.5-0.3,1.1-0.3,1.5-0.1l4.9,2.8
			c0.4,0.2,0.3,0.6-0.1,0.9l-4.8,2.8C246.7,203.3,246.1,203.4,245.7,203.1z"/>
		<path class="st10" d="M253.2,207.5l-4.9-2.8c-0.4-0.2-0.3-0.6,0.1-0.9l4.8-2.8c0.5-0.3,1.1-0.3,1.5-0.1l4.9,2.8
			c0.4,0.2,0.3,0.6-0.1,0.9l-4.8,2.8C254.3,207.7,253.6,207.7,253.2,207.5z"/>
		<path class="st10" d="M260.7,211.8l-4.9-2.8c-0.4-0.2-0.3-0.6,0.1-0.9l4.8-2.8c0.5-0.3,1.1-0.3,1.5-0.1l4.9,2.8
			c0.4,0.2,0.3,0.6-0.1,0.9l-4.8,2.8C261.8,212,261.1,212.1,260.7,211.8z"/>
		<path class="st10" d="M274.1,219.6l-10.6-6.1c-0.4-0.2-0.3-0.6,0.1-0.9l4.8-2.8c0.5-0.3,1.1-0.3,1.5-0.1l10.6,6.1
			c0.4,0.2,0.3,0.6-0.1,0.9l-4.8,2.8C275.2,219.8,274.5,219.8,274.1,219.6z"/>
		<path class="st10" d="M288.8,211.1l-9-5.2c-0.4-0.2-0.3-0.6,0.1-0.9l4.8-2.8c0.5-0.3,1.1-0.3,1.5-0.1l9,5.2
			c0.4,0.2,0.3,0.6-0.1,0.9l-4.8,2.8C289.8,211.3,289.2,211.3,288.8,211.1z"/>
		<path class="st10" d="M213.7,176.2l-4.9-2.8c-0.4-0.2-0.3-0.6,0.1-0.9l4.8-2.8c0.5-0.3,1.1-0.3,1.5-0.1l4.9,2.8
			c0.4,0.2,0.3,0.6-0.1,0.9l-4.8,2.8C214.7,176.4,214.1,176.4,213.7,176.2z"/>
		<path class="st10" d="M206,171.7l-4.9-2.8c-0.4-0.2-0.3-0.6,0.1-0.9l4.8-2.8c0.5-0.3,1.1-0.3,1.5-0.1l4.9,2.8
			c0.4,0.2,0.3,0.6-0.1,0.9l-4.8,2.8C207,171.9,206.3,172,206,171.7z"/>
		<path class="st10" d="M198.2,167.3l-4.9-2.8c-0.4-0.2-0.3-0.6,0.1-0.9l4.8-2.8c0.5-0.3,1.1-0.3,1.5-0.1l4.9,2.8
			c0.4,0.2,0.3,0.6-0.1,0.9l-4.8,2.8C199.3,167.5,198.6,167.5,198.2,167.3z"/>
		<path class="st10" d="M190.5,162.8l-4.9-2.8c-0.4-0.2-0.3-0.6,0.1-0.9l4.8-2.8c0.5-0.3,1.1-0.3,1.5-0.1l4.9,2.8
			c0.4,0.2,0.3,0.6-0.1,0.9l-4.8,2.8C191.6,163,190.9,163.1,190.5,162.8z"/>
		<path class="st10" d="M221.2,180.5l-4.9-2.8c-0.4-0.2-0.3-0.6,0.1-0.9l4.8-2.8c0.5-0.3,1.1-0.3,1.5-0.1l4.9,2.8
			c0.4,0.2,0.3,0.6-0.1,0.9l-4.8,2.8C222.3,180.7,221.6,180.8,221.2,180.5z"/>
		<path class="st10" d="M228.7,184.9l-4.9-2.8c-0.4-0.2-0.3-0.6,0.1-0.9l4.8-2.8c0.5-0.3,1.1-0.3,1.5-0.1l4.9,2.8
			c0.4,0.2,0.3,0.6-0.1,0.9l-4.8,2.8C229.8,185.1,229.1,185.1,228.7,184.9z"/>
		<path class="st10" d="M236.3,189.2l-4.9-2.8c-0.4-0.2-0.3-0.6,0.1-0.9l4.8-2.8c0.5-0.3,1.1-0.3,1.5-0.1l4.9,2.8
			c0.4,0.2,0.3,0.6-0.1,0.9l-4.8,2.8C237.3,189.4,236.7,189.5,236.3,189.2z"/>
		<path class="st10" d="M243.8,193.6l-4.9-2.8c-0.4-0.2-0.3-0.6,0.1-0.9l4.8-2.8c0.5-0.3,1.1-0.3,1.5-0.1l4.9,2.8
			c0.4,0.2,0.3,0.6-0.1,0.9l-4.8,2.8C244.9,193.8,244.2,193.8,243.8,193.6z"/>
		<path class="st10" d="M251.3,197.9l-4.9-2.8c-0.4-0.2-0.3-0.6,0.1-0.9l4.8-2.8c0.5-0.3,1.1-0.3,1.5-0.1l4.9,2.8
			c0.4,0.2,0.3,0.6-0.1,0.9l-4.8,2.8C252.4,198.1,251.7,198.2,251.3,197.9z"/>
		<path class="st10" d="M258.9,202.3l-4.9-2.8c-0.4-0.2-0.3-0.6,0.1-0.9l4.8-2.8c0.5-0.3,1.1-0.3,1.5-0.1l4.9,2.8
			c0.4,0.2,0.3,0.6-0.1,0.9l-4.8,2.8C259.9,202.5,259.2,202.5,258.9,202.3z"/>
		<path class="st10" d="M266.4,206.6l-4.9-2.8c-0.4-0.2-0.3-0.6,0.1-0.9l4.8-2.8c0.5-0.3,1.1-0.3,1.5-0.1l4.9,2.8
			c0.4,0.2,0.3,0.6-0.1,0.9l-4.8,2.8C267.5,206.8,266.8,206.9,266.4,206.6z"/>
		<path class="st10" d="M273.9,211l-4.9-2.8c-0.4-0.2-0.3-0.6,0.1-0.9l4.8-2.8c0.5-0.3,1.1-0.3,1.5-0.1l4.9,2.8
			c0.4,0.2,0.3,0.6-0.1,0.9l-4.8,2.8C275,211.2,274.3,211.2,273.9,211z"/>
		<path class="st10" d="M281.4,215.3l-4.9-2.8c-0.4-0.2-0.3-0.6,0.1-0.9l4.8-2.8c0.5-0.3,1.1-0.3,1.5-0.1l4.9,2.8
			c0.4,0.2,0.3,0.6-0.1,0.9l-4.8,2.8C282.5,215.5,281.8,215.5,281.4,215.3z"/>
		<path class="st10" d="M209.7,165.4l-4.9-2.8c-0.4-0.2-0.3-0.6,0.1-0.9l4.8-2.8c0.5-0.3,1.1-0.3,1.5-0.1l4.9,2.8
			c0.4,0.2,0.3,0.6-0.1,0.9l-4.8,2.8C210.8,165.6,210.1,165.7,209.7,165.4z"/>
		<path class="st10" d="M202.2,161.1l-4.9-2.8c-0.4-0.2-0.3-0.6,0.1-0.9l4.8-2.8c0.5-0.3,1.1-0.3,1.5-0.1l4.9,2.8
			c0.4,0.2,0.3,0.6-0.1,0.9l-4.8,2.8C203.3,161.3,202.6,161.3,202.2,161.1z"/>
		<path class="st10" d="M194.7,156.8l-4.9-2.8c-0.4-0.2-0.3-0.6,0.1-0.9l4.8-2.8c0.5-0.3,1.1-0.3,1.5-0.1l4.9,2.8
			c0.4,0.2,0.3,0.6-0.1,0.9l-4.8,2.8C195.8,157,195.1,157,194.7,156.8z"/>
		<path class="st10" d="M187.2,152.5l-4.9-2.8c-0.4-0.2-0.3-0.6,0.1-0.9l4.8-2.8c0.5-0.3,1.1-0.3,1.5-0.1l4.9,2.8
			c0.4,0.2,0.3,0.6-0.1,0.9l-4.7,2.8C188.3,152.7,187.6,152.7,187.2,152.5z"/>
		<path class="st10" d="M194.9,148l-4.9-2.8c-0.4-0.2-0.3-0.6,0.1-0.9l1.6-0.9c0.5-0.3,1.1-0.3,1.5-0.1l4.9,2.8
			c0.4,0.2,0.3,0.6-0.1,0.9l-1.6,0.9C196,148.2,195.3,148.2,194.9,148z"/>
		<path class="st10" d="M204.7,153.7l-4.9-2.8c-0.4-0.2-0.3-0.6,0.1-0.9l1.6-0.9c0.5-0.3,1.1-0.3,1.5-0.1l4.9,2.8
			c0.4,0.2,0.3,0.6-0.1,0.9l-1.6,0.9C205.8,153.9,205.1,153.9,204.7,153.7z"/>
		<path class="st10" d="M212.2,158l-4.9-2.8c-0.4-0.2-0.3-0.6,0.1-0.9l1.6-0.9c0.5-0.3,1.1-0.3,1.5-0.1l4.9,2.8
			c0.4,0.2,0.3,0.6-0.1,0.9l-1.6,0.9C213.2,158.2,212.6,158.2,212.2,158z"/>
		<path class="st10" d="M219.6,162.3l-4.9-2.8c-0.4-0.2-0.3-0.6,0.1-0.9l1.6-0.9c0.5-0.3,1.1-0.3,1.5-0.1l4.9,2.8
			c0.4,0.2,0.3,0.6-0.1,0.9l-1.6,0.9C220.7,162.5,220,162.5,219.6,162.3z"/>
		<path class="st10" d="M227.1,166.6l-4.9-2.8c-0.4-0.2-0.3-0.6,0.1-0.9l1.6-0.9c0.5-0.3,1.1-0.3,1.5-0.1l4.9,2.8
			c0.4,0.2,0.3,0.6-0.1,0.9l-1.6,0.9C228.2,166.8,227.5,166.8,227.1,166.6z"/>
		<path class="st10" d="M268.8,190.6l-4.9-2.8c-0.4-0.2-0.3-0.6,0.1-0.9l1.6-0.9c0.5-0.3,1.1-0.3,1.5-0.1l4.9,2.8
			c0.4,0.2,0.3,0.6-0.1,0.9l-1.6,0.9C269.8,190.8,269.1,190.9,268.8,190.6z"/>
		<path class="st10" d="M276.2,194.9l-4.9-2.8c-0.4-0.2-0.3-0.6,0.1-0.9l1.6-0.9c0.5-0.3,1.1-0.3,1.5-0.1l4.9,2.8
			c0.4,0.2,0.3,0.6-0.1,0.9l-1.6,0.9C277.3,195.1,276.6,195.2,276.2,194.9z"/>
		<path class="st10" d="M283.7,199.3l-4.9-2.9c-0.4-0.2-0.3-0.6,0.1-0.9l1.6-0.9c0.5-0.3,1.1-0.3,1.5-0.1l4.9,2.8
			c0.4,0.2,0.3,0.6-0.1,0.9l-1.6,0.9C284.7,199.4,284.1,199.5,283.7,199.3z"/>
		<path class="st10" d="M291.1,203.6l-4.9-2.8c-0.4-0.2-0.3-0.6,0.1-0.9l1.6-0.9c0.5-0.3,1.1-0.3,1.5-0.1l4.9,2.8
			c0.4,0.2,0.3,0.6-0.1,0.9l-1.6,0.9C292.2,203.8,291.5,203.8,291.1,203.6z"/>
		<path class="st10" d="M217.2,169.8l-4.9-2.8c-0.4-0.2-0.3-0.6,0.1-0.9l4.8-2.8c0.5-0.3,1.1-0.3,1.5-0.1l4.9,2.8
			c0.4,0.2,0.3,0.6-0.1,0.9l-4.8,2.8C218.3,170,217.6,170,217.2,169.8z"/>
		<path class="st10" d="M224.8,174.1l-4.9-2.8c-0.4-0.2-0.3-0.6,0.1-0.9l4.8-2.8c0.5-0.3,1.1-0.3,1.5-0.1l4.9,2.8
			c0.4,0.2,0.3,0.6-0.1,0.9l-4.8,2.8C225.8,174.3,225.2,174.4,224.8,174.1z"/>
		<path class="st10" d="M232.3,178.5l-4.9-2.8c-0.4-0.2-0.3-0.6,0.1-0.9l4.8-2.8c0.5-0.3,1.1-0.3,1.5-0.1l4.9,2.8
			c0.4,0.2,0.3,0.6-0.1,0.9l-4.8,2.8C233.4,178.7,232.7,178.7,232.3,178.5z"/>
		<path class="st10" d="M239.8,182.8l-4.9-2.8c-0.4-0.2-0.3-0.6,0.1-0.9l4.8-2.8c0.5-0.3,1.1-0.3,1.5-0.1l4.9,2.8
			c0.4,0.2,0.3,0.6-0.1,0.9l-4.8,2.8C240.9,183,240.2,183.1,239.8,182.8z"/>
		<path class="st10" d="M247.4,187.2l-4.9-2.8c-0.4-0.2-0.3-0.6,0.1-0.9l4.8-2.8c0.5-0.3,1.1-0.3,1.5-0.1l4.9,2.8
			c0.4,0.2,0.3,0.6-0.1,0.9l-4.8,2.8C248.4,187.4,247.7,187.4,247.4,187.2z"/>
		<path class="st10" d="M254.9,191.5l-4.9-2.8c-0.4-0.2-0.3-0.6,0.1-0.9l4.8-2.8c0.5-0.3,1.1-0.3,1.5-0.1l4.9,2.8
			c0.4,0.2,0.3,0.6-0.1,0.9l-4.8,2.8C256,191.7,255.3,191.8,254.9,191.5z"/>
		<path class="st10" d="M262.4,195.9l-4.9-2.8c-0.4-0.2-0.3-0.6,0.1-0.9l4.8-2.8c0.5-0.3,1.1-0.3,1.5-0.1l4.9,2.8
			c0.4,0.2,0.3,0.6-0.1,0.9l-4.8,2.8C263.5,196.1,262.8,196.1,262.4,195.9z"/>
		<path class="st10" d="M269.9,200.2l-4.9-2.8c-0.4-0.2-0.3-0.6,0.1-0.9l4.8-2.8c0.5-0.3,1.1-0.3,1.5-0.1l4.9,2.8
			c0.4,0.2,0.3,0.6-0.1,0.9l-4.8,2.8C271,200.4,270.3,200.4,269.9,200.2z"/>
		<path class="st10" d="M277.5,204.6l-4.9-2.8c-0.4-0.2-0.3-0.6,0.1-0.9l4.8-2.8c0.5-0.3,1.1-0.3,1.5-0.1l4.9,2.8
			c0.4,0.2,0.3,0.6-0.1,0.9l-4.8,2.8C278.6,204.8,277.9,204.8,277.5,204.6z"/>
		<path class="st10" d="M174.2,170.3l-14.4-8.3c-0.4-0.2-0.3-0.6,0.1-0.9l4.8-2.8c0.5-0.3,1.1-0.3,1.5-0.1l14.4,8.3
			c0.4,0.2,0.3,0.6-0.1,0.9l-4.8,2.8C175.3,170.5,174.6,170.6,174.2,170.3z"/>
		<path class="st10" d="M266.7,223.7l-14.4-8.3c-0.4-0.2-0.3-0.6,0.1-0.9l4.8-2.8c0.5-0.3,1.1-0.3,1.5-0.1l14.4,8.3
			c0.4,0.2,0.3,0.6-0.1,0.9l-4.8,2.8C267.8,223.9,267.1,224,266.7,223.7z"/>
		<path class="st10" d="M236.6,216l-4.9-2.8c-0.4-0.2-0.3-0.6,0.1-0.9l5.8-3.3c0.5-0.3,1.1-0.3,1.5-0.1l4.9,2.8
			c0.4,0.2,0.3,0.6-0.1,0.9l-5.8,3.3C237.7,216.2,237,216.2,236.6,216z"/>
		<path class="st10" d="M181.9,184.4l-7.8-4.5c-0.4-0.2-0.3-0.6,0.1-0.9l5.8-3.3c0.5-0.3,1.1-0.3,1.5-0.1l7.8,4.5
			c0.4,0.2,0.3,0.6-0.1,0.9l-5.8,3.3C183,184.6,182.3,184.6,181.9,184.4z"/>
		<path class="st10" d="M229.3,211.8l-7.8-4.5c-0.4-0.2-0.3-0.6,0.1-0.9l5.8-3.3c0.5-0.3,1.1-0.3,1.5-0.1l7.8,4.5
			c0.4,0.2,0.3,0.6-0.1,0.9l-5.8,3.3C230.4,212,229.7,212,229.3,211.8z"/>
		<path class="st10" d="M192.8,190.7l-7.8-4.5c-0.4-0.2-0.3-0.6,0.1-0.9l5.8-3.3c0.5-0.3,1.1-0.3,1.5-0.1l7.8,4.5
			c0.4,0.2,0.3,0.6-0.1,0.9l-5.8,3.3C193.8,190.9,193.2,190.9,192.8,190.7z"/>
		<path class="st10" d="M192.4,181.9l33.9,19.6c0.4,0.2,0.4,0.6,0,0.9l-5.9,3.4c-0.4,0.2-1.1,0.2-1.5,0L185,186.2L192.4,181.9z"/>
		<path class="st10" d="M257.6,223.8l5.4,3.1c0.3,0.2,0.3,0.5-0.1,0.7l-2.4,1.4c-0.4,0.2-0.9,0.2-1.3,0.1l-5.4-3.1
			c-0.3-0.2-0.3-0.5,0.1-0.7l2.4-1.4C256.7,223.7,257.3,223.7,257.6,223.8z"/>
		<path class="st10" d="M250,219.5l5.4,3.1c0.3,0.2,0.3,0.5-0.1,0.7l-2.4,1.4c-0.4,0.2-0.9,0.2-1.3,0.1l-5.4-3.1
			c-0.3-0.2-0.3-0.5,0.1-0.7l2.4-1.4C249.2,219.3,249.7,219.3,250,219.5z"/>
		<path class="st10" d="M242.5,215.1l5.4,3.1c0.3,0.2,0.3,0.5-0.1,0.7l-2.4,1.4c-0.4,0.2-0.9,0.2-1.3,0.1l-5.4-3.1
			c-0.3-0.2-0.3-0.5,0.1-0.7l2.4-1.4C241.6,214.9,242.2,214.9,242.5,215.1z"/>
		<path class="st10" d="M254.2,217.1l5.4,3.1c0.3,0.2,0.3,0.5-0.1,0.7l-2.4,1.4c-0.4,0.2-0.9,0.2-1.3,0.1l-5.4-3.1
			c-0.3-0.2-0.3-0.5,0.1-0.7l2.4-1.4C253.3,216.9,253.9,216.9,254.2,217.1z"/>
	</g>
	<g class="st9">
		<path class="st10" d="M156.4,169.7l-4.9-2.8c-0.4-0.2-0.3-0.6,0.1-0.9l5.8-3.3c0.5-0.3,1.1-0.3,1.5-0.1l4.9,2.8
			c0.4,0.2,0.3,0.6-0.1,0.9l-5.8,3.3C157.5,169.8,156.8,169.9,156.4,169.7z"/>
		<path class="st10" d="M163.9,174l-4.9-2.8c-0.4-0.2-0.3-0.6,0.1-0.9l5.8-3.3c0.5-0.3,1.1-0.3,1.5-0.1l4.9,2.8
			c0.4,0.2,0.3,0.6-0.1,0.9l-5.8,3.3C165,174.2,164.3,174.2,163.9,174z"/>
		<path class="st10" d="M171.4,178.3l-4.9-2.8c-0.4-0.2-0.3-0.6,0.1-0.9l5.8-3.3c0.5-0.3,1.1-0.3,1.5-0.1l4.9,2.8
			c0.4,0.2,0.3,0.6-0.1,0.9l-5.8,3.3C172.5,178.5,171.8,178.6,171.4,178.3z"/>
		<path class="st10" d="M181.9,174.8L177,172c-0.4-0.2-0.3-0.6,0.1-0.9l4.8-2.8c0.5-0.3,1.1-0.3,1.5-0.1l4.9,2.8
			c0.4,0.2,0.3,0.6-0.1,0.9l-4.8,2.8C182.9,175,182.2,175,181.9,174.8z"/>
		<path class="st10" d="M189.4,179.1l-4.9-2.8c-0.4-0.2-0.3-0.6,0.1-0.9l4.8-2.8c0.5-0.3,1.1-0.3,1.5-0.1l4.9,2.8
			c0.4,0.2,0.3,0.6-0.1,0.9l-4.8,2.8C190.5,179.3,189.8,179.3,189.4,179.1z"/>
		<path class="st10" d="M196.9,183.5l-4.9-2.8c-0.4-0.2-0.3-0.6,0.1-0.9l4.8-2.8c0.5-0.3,1.1-0.3,1.5-0.1l4.9,2.8
			c0.4,0.2,0.3,0.6-0.1,0.9l-4.8,2.8C198,183.6,197.3,183.7,196.9,183.5z"/>
		<path class="st10" d="M204.4,187.8l-4.9-2.8c-0.4-0.2-0.3-0.6,0.1-0.9l4.8-2.8c0.5-0.3,1.1-0.3,1.5-0.1l4.9,2.8
			c0.4,0.2,0.3,0.6-0.1,0.9l-4.8,2.8C205.5,188,204.8,188,204.4,187.8z"/>
		<path class="st10" d="M212,192.1l-4.9-2.8c-0.4-0.2-0.3-0.6,0.1-0.9l4.8-2.8c0.5-0.3,1.1-0.3,1.5-0.1l4.9,2.8
			c0.4,0.2,0.3,0.6-0.1,0.9l-4.8,2.8C213.1,192.3,212.4,192.4,212,192.1z"/>
		<path class="st10" d="M219.5,196.5l-4.9-2.8c-0.4-0.2-0.3-0.6,0.1-0.9l4.8-2.8c0.5-0.3,1.1-0.3,1.5-0.1l4.9,2.8
			c0.4,0.2,0.3,0.6-0.1,0.9l-4.8,2.8C220.6,196.7,219.9,196.7,219.5,196.5z"/>
		<path class="st10" d="M227,200.8l-4.9-2.8c-0.4-0.2-0.3-0.6,0.1-0.9l4.8-2.8c0.5-0.3,1.1-0.3,1.5-0.1l4.9,2.8
			c0.4,0.2,0.3,0.6-0.1,0.9l-4.8,2.8C228.1,201,227.4,201.1,227,200.8z"/>
		<path class="st10" d="M234.6,205.2l-4.9-2.8c-0.4-0.2-0.3-0.6,0.1-0.9l4.8-2.8c0.5-0.3,1.1-0.3,1.5-0.1l4.9,2.8
			c0.4,0.2,0.3,0.6-0.1,0.9l-4.8,2.8C235.6,205.4,235,205.4,234.6,205.2z"/>
		<path class="st10" d="M242.1,209.5l-4.9-2.8c-0.4-0.2-0.3-0.6,0.1-0.9l4.8-2.8c0.5-0.3,1.1-0.3,1.5-0.1l4.9,2.8
			c0.4,0.2,0.3,0.6-0.1,0.9l-4.8,2.8C243.2,209.7,242.5,209.8,242.1,209.5z"/>
		<path class="st10" d="M249.6,213.9l-4.9-2.8c-0.4-0.2-0.3-0.6,0.1-0.9l4.8-2.8c0.5-0.3,1.1-0.3,1.5-0.1l4.9,2.8
			c0.4,0.2,0.3,0.6-0.1,0.9l-4.8,2.8C250.7,214.1,250,214.1,249.6,213.9z"/>
		<path class="st10" d="M193,172.7l-4.9-2.8c-0.4-0.2-0.3-0.6,0.1-0.9l4.8-2.8c0.5-0.3,1.1-0.3,1.5-0.1l4.9,2.8
			c0.4,0.2,0.3,0.6-0.1,0.9l-4.8,2.8C194,172.9,193.3,172.9,193,172.7z"/>
		<path class="st10" d="M185.3,168.3l-4.9-2.8c-0.4-0.2-0.3-0.6,0.1-0.9l4.8-2.8c0.5-0.3,1.1-0.3,1.5-0.1l4.9,2.8
			c0.4,0.2,0.3,0.6-0.1,0.9l-4.8,2.8C186.4,168.5,185.7,168.5,185.3,168.3z"/>
		<path class="st10" d="M177.7,163.9l-10.5-6.1c-0.4-0.2-0.3-0.6,0.1-0.9l4.8-2.8c0.5-0.3,1.1-0.3,1.5-0.1l10.5,6.1
			c0.4,0.2,0.3,0.6-0.1,0.9l-4.8,2.8C178.7,164.1,178,164.1,177.7,163.9z"/>
		<path class="st10" d="M183,158.5l-8.5-4.9c-0.4-0.2-0.3-0.6,0.1-0.9l4.8-2.8c0.5-0.3,1.1-0.3,1.5-0.1l8.5,4.9
			c0.4,0.2,0.3,0.6-0.1,0.9l-4.8,2.8C184.1,158.7,183.4,158.7,183,158.5z"/>
		<path class="st10" d="M200.5,177l-4.9-2.8c-0.4-0.2-0.3-0.6,0.1-0.9l4.8-2.8c0.5-0.3,1.1-0.3,1.5-0.1l4.9,2.8
			c0.4,0.2,0.3,0.6-0.1,0.9l-4.8,2.8C201.6,177.2,200.9,177.3,200.5,177z"/>
		<path class="st10" d="M208,181.4l-4.9-2.8c-0.4-0.2-0.3-0.6,0.1-0.9l4.8-2.8c0.5-0.3,1.1-0.3,1.5-0.1l4.9,2.8
			c0.4,0.2,0.3,0.6-0.1,0.9l-4.8,2.8C209.1,181.6,208.4,181.6,208,181.4z"/>
		<path class="st10" d="M215.5,185.7l-4.9-2.8c-0.4-0.2-0.3-0.6,0.1-0.9l4.8-2.8c0.5-0.3,1.1-0.3,1.5-0.1l4.9,2.8
			c0.4,0.2,0.3,0.6-0.1,0.9l-4.8,2.8C216.6,185.9,215.9,186,215.5,185.7z"/>
		<path class="st10" d="M223.1,190.1l-4.9-2.8c-0.4-0.2-0.3-0.6,0.1-0.9l4.8-2.8c0.5-0.3,1.1-0.3,1.5-0.1l4.9,2.8
			c0.4,0.2,0.3,0.6-0.1,0.9l-4.8,2.8C224.1,190.3,223.5,190.3,223.1,190.1z"/>
		<path class="st10" d="M230.6,194.4l-4.9-2.8c-0.4-0.2-0.3-0.6,0.1-0.9l4.8-2.8c0.5-0.3,1.1-0.3,1.5-0.1l4.9,2.8
			c0.4,0.2,0.3,0.6-0.1,0.9l-4.8,2.8C231.7,194.6,231,194.7,230.6,194.4z"/>
		<path class="st10" d="M238.1,198.8l-4.9-2.8c-0.4-0.2-0.3-0.6,0.1-0.9l4.8-2.8c0.5-0.3,1.1-0.3,1.5-0.1l4.9,2.8
			c0.4,0.2,0.3,0.6-0.1,0.9l-4.8,2.8C239.2,199,238.5,199,238.1,198.8z"/>
		<path class="st10" d="M245.7,203.1l-4.9-2.8c-0.4-0.2-0.3-0.6,0.1-0.9l4.8-2.8c0.5-0.3,1.1-0.3,1.5-0.1l4.9,2.8
			c0.4,0.2,0.3,0.6-0.1,0.9l-4.8,2.8C246.7,203.3,246.1,203.4,245.7,203.1z"/>
		<path class="st10" d="M253.2,207.5l-4.9-2.8c-0.4-0.2-0.3-0.6,0.1-0.9l4.8-2.8c0.5-0.3,1.1-0.3,1.5-0.1l4.9,2.8
			c0.4,0.2,0.3,0.6-0.1,0.9l-4.8,2.8C254.3,207.7,253.6,207.7,253.2,207.5z"/>
		<path class="st10" d="M260.7,211.8l-4.9-2.8c-0.4-0.2-0.3-0.6,0.1-0.9l4.8-2.8c0.5-0.3,1.1-0.3,1.5-0.1l4.9,2.8
			c0.4,0.2,0.3,0.6-0.1,0.9l-4.8,2.8C261.8,212,261.1,212.1,260.7,211.8z"/>
		<path class="st10" d="M274.1,219.6l-10.6-6.1c-0.4-0.2-0.3-0.6,0.1-0.9l4.8-2.8c0.5-0.3,1.1-0.3,1.5-0.1l10.6,6.1
			c0.4,0.2,0.3,0.6-0.1,0.9l-4.8,2.8C275.2,219.8,274.5,219.8,274.1,219.6z"/>
		<path class="st10" d="M288.8,211.1l-9-5.2c-0.4-0.2-0.3-0.6,0.1-0.9l4.8-2.8c0.5-0.3,1.1-0.3,1.5-0.1l9,5.2
			c0.4,0.2,0.3,0.6-0.1,0.9l-4.8,2.8C289.8,211.3,289.2,211.3,288.8,211.1z"/>
		<path class="st10" d="M213.7,176.2l-4.9-2.8c-0.4-0.2-0.3-0.6,0.1-0.9l4.8-2.8c0.5-0.3,1.1-0.3,1.5-0.1l4.9,2.8
			c0.4,0.2,0.3,0.6-0.1,0.9l-4.8,2.8C214.7,176.4,214.1,176.4,213.7,176.2z"/>
		<path class="st10" d="M206,171.7l-4.9-2.8c-0.4-0.2-0.3-0.6,0.1-0.9l4.8-2.8c0.5-0.3,1.1-0.3,1.5-0.1l4.9,2.8
			c0.4,0.2,0.3,0.6-0.1,0.9l-4.8,2.8C207,171.9,206.3,172,206,171.7z"/>
		<path class="st10" d="M198.2,167.3l-4.9-2.8c-0.4-0.2-0.3-0.6,0.1-0.9l4.8-2.8c0.5-0.3,1.1-0.3,1.5-0.1l4.9,2.8
			c0.4,0.2,0.3,0.6-0.1,0.9l-4.8,2.8C199.3,167.5,198.6,167.5,198.2,167.3z"/>
		<path class="st10" d="M190.5,162.8l-4.9-2.8c-0.4-0.2-0.3-0.6,0.1-0.9l4.8-2.8c0.5-0.3,1.1-0.3,1.5-0.1l4.9,2.8
			c0.4,0.2,0.3,0.6-0.1,0.9l-4.8,2.8C191.6,163,190.9,163.1,190.5,162.8z"/>
		<path class="st10" d="M221.2,180.5l-4.9-2.8c-0.4-0.2-0.3-0.6,0.1-0.9l4.8-2.8c0.5-0.3,1.1-0.3,1.5-0.1l4.9,2.8
			c0.4,0.2,0.3,0.6-0.1,0.9l-4.8,2.8C222.3,180.7,221.6,180.8,221.2,180.5z"/>
		<path class="st10" d="M228.7,184.9l-4.9-2.8c-0.4-0.2-0.3-0.6,0.1-0.9l4.8-2.8c0.5-0.3,1.1-0.3,1.5-0.1l4.9,2.8
			c0.4,0.2,0.3,0.6-0.1,0.9l-4.8,2.8C229.8,185.1,229.1,185.1,228.7,184.9z"/>
		<path class="st10" d="M236.3,189.2l-4.9-2.8c-0.4-0.2-0.3-0.6,0.1-0.9l4.8-2.8c0.5-0.3,1.1-0.3,1.5-0.1l4.9,2.8
			c0.4,0.2,0.3,0.6-0.1,0.9l-4.8,2.8C237.3,189.4,236.7,189.5,236.3,189.2z"/>
		<path class="st10" d="M243.8,193.6l-4.9-2.8c-0.4-0.2-0.3-0.6,0.1-0.9l4.8-2.8c0.5-0.3,1.1-0.3,1.5-0.1l4.9,2.8
			c0.4,0.2,0.3,0.6-0.1,0.9l-4.8,2.8C244.9,193.8,244.2,193.8,243.8,193.6z"/>
		<path class="st10" d="M251.3,197.9l-4.9-2.8c-0.4-0.2-0.3-0.6,0.1-0.9l4.8-2.8c0.5-0.3,1.1-0.3,1.5-0.1l4.9,2.8
			c0.4,0.2,0.3,0.6-0.1,0.9l-4.8,2.8C252.4,198.1,251.7,198.2,251.3,197.9z"/>
		<path class="st10" d="M258.9,202.3l-4.9-2.8c-0.4-0.2-0.3-0.6,0.1-0.9l4.8-2.8c0.5-0.3,1.1-0.3,1.5-0.1l4.9,2.8
			c0.4,0.2,0.3,0.6-0.1,0.9l-4.8,2.8C259.9,202.5,259.2,202.5,258.9,202.3z"/>
		<path class="st10" d="M266.4,206.6l-4.9-2.8c-0.4-0.2-0.3-0.6,0.1-0.9l4.8-2.8c0.5-0.3,1.1-0.3,1.5-0.1l4.9,2.8
			c0.4,0.2,0.3,0.6-0.1,0.9l-4.8,2.8C267.5,206.8,266.8,206.9,266.4,206.6z"/>
		<path class="st10" d="M273.9,211l-4.9-2.8c-0.4-0.2-0.3-0.6,0.1-0.9l4.8-2.8c0.5-0.3,1.1-0.3,1.5-0.1l4.9,2.8
			c0.4,0.2,0.3,0.6-0.1,0.9l-4.8,2.8C275,211.2,274.3,211.2,273.9,211z"/>
		<path class="st10" d="M281.4,215.3l-4.9-2.8c-0.4-0.2-0.3-0.6,0.1-0.9l4.8-2.8c0.5-0.3,1.1-0.3,1.5-0.1l4.9,2.8
			c0.4,0.2,0.3,0.6-0.1,0.9l-4.8,2.8C282.5,215.5,281.8,215.5,281.4,215.3z"/>
		<path class="st10" d="M209.7,165.4l-4.9-2.8c-0.4-0.2-0.3-0.6,0.1-0.9l4.8-2.8c0.5-0.3,1.1-0.3,1.5-0.1l4.9,2.8
			c0.4,0.2,0.3,0.6-0.1,0.9l-4.8,2.8C210.8,165.6,210.1,165.7,209.7,165.4z"/>
		<path class="st10" d="M202.2,161.1l-4.9-2.8c-0.4-0.2-0.3-0.6,0.1-0.9l4.8-2.8c0.5-0.3,1.1-0.3,1.5-0.1l4.9,2.8
			c0.4,0.2,0.3,0.6-0.1,0.9l-4.8,2.8C203.3,161.3,202.6,161.3,202.2,161.1z"/>
		<path class="st10" d="M194.7,156.8l-4.9-2.8c-0.4-0.2-0.3-0.6,0.1-0.9l4.8-2.8c0.5-0.3,1.1-0.3,1.5-0.1l4.9,2.8
			c0.4,0.2,0.3,0.6-0.1,0.9l-4.8,2.8C195.8,157,195.1,157,194.7,156.8z"/>
		<path class="st10" d="M187.2,152.5l-4.9-2.8c-0.4-0.2-0.3-0.6,0.1-0.9l4.8-2.8c0.5-0.3,1.1-0.3,1.5-0.1l4.9,2.8
			c0.4,0.2,0.3,0.6-0.1,0.9l-4.7,2.8C188.3,152.7,187.6,152.7,187.2,152.5z"/>
		<path class="st10" d="M194.9,148l-4.9-2.8c-0.4-0.2-0.3-0.6,0.1-0.9l1.6-0.9c0.5-0.3,1.1-0.3,1.5-0.1l4.9,2.8
			c0.4,0.2,0.3,0.6-0.1,0.9l-1.6,0.9C196,148.2,195.3,148.2,194.9,148z"/>
		<path class="st10" d="M204.7,153.7l-4.9-2.8c-0.4-0.2-0.3-0.6,0.1-0.9l1.6-0.9c0.5-0.3,1.1-0.3,1.5-0.1l4.9,2.8
			c0.4,0.2,0.3,0.6-0.1,0.9l-1.6,0.9C205.8,153.9,205.1,153.9,204.7,153.7z"/>
		<path class="st10" d="M212.2,158l-4.9-2.8c-0.4-0.2-0.3-0.6,0.1-0.9l1.6-0.9c0.5-0.3,1.1-0.3,1.5-0.1l4.9,2.8
			c0.4,0.2,0.3,0.6-0.1,0.9l-1.6,0.9C213.2,158.2,212.6,158.2,212.2,158z"/>
		<path class="st10" d="M219.6,162.3l-4.9-2.8c-0.4-0.2-0.3-0.6,0.1-0.9l1.6-0.9c0.5-0.3,1.1-0.3,1.5-0.1l4.9,2.8
			c0.4,0.2,0.3,0.6-0.1,0.9l-1.6,0.9C220.7,162.5,220,162.5,219.6,162.3z"/>
		<path class="st10" d="M227.1,166.6l-4.9-2.8c-0.4-0.2-0.3-0.6,0.1-0.9l1.6-0.9c0.5-0.3,1.1-0.3,1.5-0.1l4.9,2.8
			c0.4,0.2,0.3,0.6-0.1,0.9l-1.6,0.9C228.2,166.8,227.5,166.8,227.1,166.6z"/>
		<path class="st10" d="M268.8,190.6l-4.9-2.8c-0.4-0.2-0.3-0.6,0.1-0.9l1.6-0.9c0.5-0.3,1.1-0.3,1.5-0.1l4.9,2.8
			c0.4,0.2,0.3,0.6-0.1,0.9l-1.6,0.9C269.8,190.8,269.1,190.9,268.8,190.6z"/>
		<path class="st10" d="M276.2,194.9l-4.9-2.8c-0.4-0.2-0.3-0.6,0.1-0.9l1.6-0.9c0.5-0.3,1.1-0.3,1.5-0.1l4.9,2.8
			c0.4,0.2,0.3,0.6-0.1,0.9l-1.6,0.9C277.3,195.1,276.6,195.2,276.2,194.9z"/>
		<path class="st10" d="M283.7,199.3l-4.9-2.9c-0.4-0.2-0.3-0.6,0.1-0.9l1.6-0.9c0.5-0.3,1.1-0.3,1.5-0.1l4.9,2.8
			c0.4,0.2,0.3,0.6-0.1,0.9l-1.6,0.9C284.7,199.4,284.1,199.5,283.7,199.3z"/>
		<path class="st10" d="M291.1,203.6l-4.9-2.8c-0.4-0.2-0.3-0.6,0.1-0.9l1.6-0.9c0.5-0.3,1.1-0.3,1.5-0.1l4.9,2.8
			c0.4,0.2,0.3,0.6-0.1,0.9l-1.6,0.9C292.2,203.8,291.5,203.8,291.1,203.6z"/>
		<path class="st10" d="M217.2,169.8l-4.9-2.8c-0.4-0.2-0.3-0.6,0.1-0.9l4.8-2.8c0.5-0.3,1.1-0.3,1.5-0.1l4.9,2.8
			c0.4,0.2,0.3,0.6-0.1,0.9l-4.8,2.8C218.3,170,217.6,170,217.2,169.8z"/>
		<path class="st10" d="M224.8,174.1l-4.9-2.8c-0.4-0.2-0.3-0.6,0.1-0.9l4.8-2.8c0.5-0.3,1.1-0.3,1.5-0.1l4.9,2.8
			c0.4,0.2,0.3,0.6-0.1,0.9l-4.8,2.8C225.8,174.3,225.2,174.4,224.8,174.1z"/>
		<path class="st10" d="M232.3,178.5l-4.9-2.8c-0.4-0.2-0.3-0.6,0.1-0.9l4.8-2.8c0.5-0.3,1.1-0.3,1.5-0.1l4.9,2.8
			c0.4,0.2,0.3,0.6-0.1,0.9l-4.8,2.8C233.4,178.7,232.7,178.7,232.3,178.5z"/>
		<path class="st10" d="M239.8,182.8l-4.9-2.8c-0.4-0.2-0.3-0.6,0.1-0.9l4.8-2.8c0.5-0.3,1.1-0.3,1.5-0.1l4.9,2.8
			c0.4,0.2,0.3,0.6-0.1,0.9l-4.8,2.8C240.9,183,240.2,183.1,239.8,182.8z"/>
		<path class="st10" d="M247.4,187.2l-4.9-2.8c-0.4-0.2-0.3-0.6,0.1-0.9l4.8-2.8c0.5-0.3,1.1-0.3,1.5-0.1l4.9,2.8
			c0.4,0.2,0.3,0.6-0.1,0.9l-4.8,2.8C248.4,187.4,247.7,187.4,247.4,187.2z"/>
		<path class="st10" d="M254.9,191.5l-4.9-2.8c-0.4-0.2-0.3-0.6,0.1-0.9l4.8-2.8c0.5-0.3,1.1-0.3,1.5-0.1l4.9,2.8
			c0.4,0.2,0.3,0.6-0.1,0.9l-4.8,2.8C256,191.7,255.3,191.8,254.9,191.5z"/>
		<path class="st10" d="M262.4,195.9l-4.9-2.8c-0.4-0.2-0.3-0.6,0.1-0.9l4.8-2.8c0.5-0.3,1.1-0.3,1.5-0.1l4.9,2.8
			c0.4,0.2,0.3,0.6-0.1,0.9l-4.8,2.8C263.5,196.1,262.8,196.1,262.4,195.9z"/>
		<path class="st10" d="M269.9,200.2l-4.9-2.8c-0.4-0.2-0.3-0.6,0.1-0.9l4.8-2.8c0.5-0.3,1.1-0.3,1.5-0.1l4.9,2.8
			c0.4,0.2,0.3,0.6-0.1,0.9l-4.8,2.8C271,200.4,270.3,200.4,269.9,200.2z"/>
		<path class="st10" d="M277.5,204.6l-4.9-2.8c-0.4-0.2-0.3-0.6,0.1-0.9l4.8-2.8c0.5-0.3,1.1-0.3,1.5-0.1l4.9,2.8
			c0.4,0.2,0.3,0.6-0.1,0.9l-4.8,2.8C278.6,204.8,277.9,204.8,277.5,204.6z"/>
		<path class="st10" d="M174.2,170.3l-14.4-8.3c-0.4-0.2-0.3-0.6,0.1-0.9l4.8-2.8c0.5-0.3,1.1-0.3,1.5-0.1l14.4,8.3
			c0.4,0.2,0.3,0.6-0.1,0.9l-4.8,2.8C175.3,170.5,174.6,170.6,174.2,170.3z"/>
		<path class="st10" d="M266.7,223.7l-14.4-8.3c-0.4-0.2-0.3-0.6,0.1-0.9l4.8-2.8c0.5-0.3,1.1-0.3,1.5-0.1l14.4,8.3
			c0.4,0.2,0.3,0.6-0.1,0.9l-4.8,2.8C267.8,223.9,267.1,224,266.7,223.7z"/>
		<path class="st10" d="M236.6,216l-4.9-2.8c-0.4-0.2-0.3-0.6,0.1-0.9l5.8-3.3c0.5-0.3,1.1-0.3,1.5-0.1l4.9,2.8
			c0.4,0.2,0.3,0.6-0.1,0.9l-5.8,3.3C237.7,216.2,237,216.2,236.6,216z"/>
		<path class="st10" d="M181.9,184.4l-7.8-4.5c-0.4-0.2-0.3-0.6,0.1-0.9l5.8-3.3c0.5-0.3,1.1-0.3,1.5-0.1l7.8,4.5
			c0.4,0.2,0.3,0.6-0.1,0.9l-5.8,3.3C183,184.6,182.3,184.6,181.9,184.4z"/>
		<path class="st10" d="M229.3,211.8l-7.8-4.5c-0.4-0.2-0.3-0.6,0.1-0.9l5.8-3.3c0.5-0.3,1.1-0.3,1.5-0.1l7.8,4.5
			c0.4,0.2,0.3,0.6-0.1,0.9l-5.8,3.3C230.4,212,229.7,212,229.3,211.8z"/>
		<path class="st10" d="M192.8,190.7l-7.8-4.5c-0.4-0.2-0.3-0.6,0.1-0.9l5.8-3.3c0.5-0.3,1.1-0.3,1.5-0.1l7.8,4.5
			c0.4,0.2,0.3,0.6-0.1,0.9l-5.8,3.3C193.8,190.9,193.2,190.9,192.8,190.7z"/>
		<path class="st10" d="M192.4,181.9l33.9,19.6c0.4,0.2,0.4,0.6,0,0.9l-5.9,3.4c-0.4,0.2-1.1,0.2-1.5,0L185,186.2L192.4,181.9z"/>
		<path class="st10" d="M257.6,223.8l5.4,3.1c0.3,0.2,0.3,0.5-0.1,0.7l-2.4,1.4c-0.4,0.2-0.9,0.2-1.3,0.1l-5.4-3.1
			c-0.3-0.2-0.3-0.5,0.1-0.7l2.4-1.4C256.7,223.7,257.3,223.7,257.6,223.8z"/>
		<path class="st10" d="M250,219.5l5.4,3.1c0.3,0.2,0.3,0.5-0.1,0.7l-2.4,1.4c-0.4,0.2-0.9,0.2-1.3,0.1l-5.4-3.1
			c-0.3-0.2-0.3-0.5,0.1-0.7l2.4-1.4C249.2,219.3,249.7,219.3,250,219.5z"/>
		<path class="st10" d="M242.5,215.1l5.4,3.1c0.3,0.2,0.3,0.5-0.1,0.7l-2.4,1.4c-0.4,0.2-0.9,0.2-1.3,0.1l-5.4-3.1
			c-0.3-0.2-0.3-0.5,0.1-0.7l2.4-1.4C241.6,214.9,242.2,214.9,242.5,215.1z"/>
		<path class="st10" d="M254.2,217.1l5.4,3.1c0.3,0.2,0.3,0.5-0.1,0.7l-2.4,1.4c-0.4,0.2-0.9,0.2-1.3,0.1l-5.4-3.1
			c-0.3-0.2-0.3-0.5,0.1-0.7l2.4-1.4C253.3,216.9,253.9,216.9,254.2,217.1z"/>
	</g>
	
		<radialGradient id="SVGID_8_" cx="165.7009" cy="256.1184" r="223.3409" gradientTransform="matrix(1 0 0 -1 0 306.7209)" gradientUnits="userSpaceOnUse">
		<stop  offset="0" style="stop-color:#E39A65"/>
		<stop  offset="0.4742" style="stop-color:#A92FFB"/>
		<stop  offset="0.5875" style="stop-color:#891CFB"/>
		<stop  offset="0.7262" style="stop-color:#6507FA"/>
		<stop  offset="1" style="stop-color:#3919BB"/>
	</radialGradient>
	<path class="st11" d="M333.9,208.3L190,125.2c-2.3-1.3-3.4-4.5-2.6-7.1l32.5-105.6c0.8-2.6,3.3-3.7,5.6-2.4l143.9,83.1
		c2.3,1.3,3.4,4.5,2.6,7.1l-32.5,105.6C338.6,208.5,336.1,209.6,333.9,208.3z"/>
	
		<linearGradient id="SVGID_9_" gradientUnits="userSpaceOnUse" x1="190.2623" y1="197.4531" x2="369.1836" y2="197.4531" gradientTransform="matrix(1 0 0 -1 0 306.7209)">
		<stop  offset="0" style="stop-color:#3919BB"/>
		<stop  offset="1" style="stop-color:#6507FA"/>
	</linearGradient>
	<path class="st12" d="M332.5,204.6L193,124c-2.2-1.2-3.3-4.3-2.5-6.8l31.1-101c0.8-2.5,3.2-3.5,5.3-2.3l139.5,80.6
		c2.2,1.2,3.3,4.3,2.5,6.8l-31.1,101C337.1,204.8,334.7,205.8,332.5,204.6z"/>
	<path class="st13" d="M332.5,204.6L193,124c-2.2-1.2-3.3-4.3-2.5-6.8l31.1-101c0.8-2.5,3.2-3.5,5.3-2.3l139.5,80.6
		c2.2,1.2,3.3,4.3,2.5,6.8l-31.1,101C337.1,204.8,334.7,205.8,332.5,204.6z"/>
	<path class="st13" d="M332.5,204.6L193,124c-2.2-1.2-3.3-4.3-2.5-6.8l31.1-101c0.8-2.5,3.2-3.5,5.3-2.3l139.5,80.6
		c2.2,1.2,3.3,4.3,2.5,6.8l-31.1,101C337.1,204.8,334.7,205.8,332.5,204.6z"/>
	<path class="st14" d="M325,173.7l-94.5-54.5c-1.5-0.9-2.3-2.9-1.7-4.7l21.4-69.4c0.5-1.7,2.2-2.4,3.6-1.6L348.3,98
		c1.5,0.9,2.3,2.9,1.7,4.7l-21.4,69.4C328.2,173.9,326.5,174.6,325,173.7z"/>
	<g>
		
			<radialGradient id="SVGID_10_" cx="84.1692" cy="303.8117" r="347.8475" gradientTransform="matrix(1 0 0 -1 0 306.7209)" gradientUnits="userSpaceOnUse">
			<stop  offset="0" style="stop-color:#E39A65"/>
			<stop  offset="0.4742" style="stop-color:#A92FFB"/>
			<stop  offset="0.5875" style="stop-color:#891CFB"/>
			<stop  offset="0.7262" style="stop-color:#6507FA"/>
			<stop  offset="1" style="stop-color:#3919BB"/>
		</radialGradient>
		<path class="st15" d="M312.3,175.4l-94.5-54.6c-1.5-0.9-2.3-2.9-1.7-4.7l21.4-69.4c0.5-1.7,2.2-2.4,3.6-1.6l94.5,54.5
			c1.5,0.9,2.3,2.9,1.7,4.7l-21.4,69.4C315.4,175.5,313.8,176.2,312.3,175.4z"/>
	</g>
	<g class="st16">
		<path class="st10" d="M312.3,175.4l-94.5-54.6c-1.5-0.9-2.3-2.9-1.7-4.7l21.4-69.4c0.5-1.7,2.2-2.4,3.6-1.6l94.5,54.5
			c1.5,0.9,2.3,2.9,1.7,4.7l-21.4,69.4C315.4,175.5,313.8,176.2,312.3,175.4z"/>
	</g>
	<path class="st8" d="M335.5,99.8L241,45.3c-0.9-0.5-1.9-0.5-2.7,0.1c0.4,0,0.9,0.1,1.4,0.3l94.5,54.5c1.5,0.9,2.3,2.9,1.7,4.7
		l-21.4,69.4c-0.2,0.6-0.5,1.1-1,1.5c1,0,1.9-0.7,2.3-1.9l21.4-69.4C337.8,102.7,337,100.6,335.5,99.8z"/>
	<path class="st13" d="M193.1,232c-1.3,0-2.5-0.3-3.5-0.8l0,0l-37.8-21.9c-1-0.6-1.6-1.4-1.6-2.3c0-1.1,0.8-2.1,2.1-2.9l19.5-11.2
		c2.4-1.4,5.9-1.5,8-0.3l37.8,21.8c1,0.6,1.6,1.4,1.6,2.3c0,1.1-0.8,2.1-2.1,2.9l-19.5,11.2C196.3,231.6,194.7,232,193.1,232z
		 M176.3,192.8c-1.4,0-2.8,0.3-3.9,1L152.9,205c-1,0.6-1.5,1.3-1.5,1.9c0,0.7,0.5,1.1,1,1.4l37.8,21.9c1.7,1,4.9,0.9,6.9-0.3
		l19.5-11.2c1-0.6,1.5-1.3,1.5-1.9c0-0.7-0.5-1.1-1-1.4l-37.8-21.8C178.4,193.1,177.4,192.8,176.3,192.8z"/>
</g>
<g>
	<g>
		<path class="st8" d="M264.1,81.6l-5.8-3.4c-0.5-0.3-0.8-1.1-0.6-1.7l0,0c0.2-0.6,0.8-0.9,1.3-0.5l5.8,3.4c0.5,0.3,0.8,1.1,0.6,1.7
			l0,0C265.2,81.7,264.6,81.9,264.1,81.6z"/>
		<path class="st8" d="M278,89.7l-8.6-5c-0.5-0.3-0.8-1.1-0.6-1.7l0,0c0.2-0.6,0.8-0.9,1.3-0.5l8.6,5c0.5,0.3,0.8,1.1,0.6,1.7l0,0
			C279.1,89.7,278.5,90,278,89.7z"/>
		<path class="st8" d="M252.3,107.6l-5.8-3.4c-0.5-0.3-0.8-1.1-0.6-1.7l0,0c0.2-0.6,0.8-0.9,1.3-0.5l5.8,3.4
			c0.5,0.3,0.8,1.1,0.6,1.7l0,0C253.4,107.7,252.9,107.9,252.3,107.6z"/>
		<path class="st8" d="M264.7,114.8l-8.6-5c-0.5-0.3-0.8-1.1-0.6-1.7l0,0c0.2-0.6,0.8-0.9,1.3-0.5l8.6,5c0.5,0.3,0.8,1.1,0.6,1.7
			l0,0C265.8,114.9,265.3,115.1,264.7,114.8z"/>
		<path class="st8" d="M246.6,77l-3.6-2.1c-0.5-0.3-0.8-1.1-0.6-1.7l0,0c0.2-0.6,0.8-0.9,1.3-0.5l3.6,2.1c0.5,0.3,0.8,1.1,0.6,1.7
			l0,0C247.7,77.1,247.1,77.3,246.6,77z"/>
		<path class="st8" d="M257.6,88.8l-11.1-6.4c-0.5-0.3-0.8-1.1-0.6-1.7l0,0c0.2-0.6,0.8-0.9,1.3-0.5l11.1,6.4
			c0.5,0.3,0.8,1.1,0.6,1.7l0,0C258.7,88.9,258.1,89.1,257.6,88.8z"/>
		<path class="st8" d="M247.3,93.8l-3.6-2.1c-0.5-0.3-0.8-1.1-0.6-1.7l0,0c0.2-0.6,0.8-0.9,1.3-0.5l3.6,2.1c0.5,0.3,0.8,1.1,0.6,1.7
			l0,0C248.4,93.9,247.8,94.1,247.3,93.8z"/>
		<path class="st8" d="M266.1,126.5l-9.7-5.6c-0.5-0.3-0.8-1.1-0.6-1.7l0,0c0.2-0.6,0.8-0.9,1.3-0.5l9.7,5.6
			c0.5,0.3,0.8,1.1,0.6,1.7l0,0C267.2,126.6,266.6,126.8,266.1,126.5z"/>
		<path class="st8" d="M243.2,102.4l-2.3-1.4c-0.5-0.3-0.8-1.1-0.6-1.7l0,0c0.2-0.6,0.8-0.9,1.3-0.5l2.3,1.4
			c0.5,0.3,0.8,1.1,0.6,1.7l0,0C244.3,102.4,243.8,102.7,243.2,102.4z"/>
		<path class="st8" d="M241,112l-2.9-1.7c-0.5-0.3-0.8-1.1-0.6-1.7l0,0c0.2-0.6,0.8-0.9,1.3-0.5l2.9,1.7c0.5,0.3,0.8,1.1,0.6,1.7
			l0,0C242.1,112.1,241.5,112.3,241,112z"/>
		<path class="st8" d="M252.3,118.6l-7.7-4.4c-0.5-0.3-0.8-1.1-0.6-1.7l0,0c0.2-0.6,0.8-0.9,1.3-0.5l7.7,4.4
			c0.5,0.3,0.8,1.1,0.6,1.7l0,0C253.4,118.6,252.8,118.9,252.3,118.6z"/>
		<path class="st8" d="M242.2,118.2l-5.5-3.2c-0.5-0.3-0.8-1.1-0.6-1.7l0,0c0.2-0.6,0.8-0.9,1.3-0.5l5.5,3.2
			c0.5,0.3,0.8,1.1,0.6,1.7l0,0C243.3,118.3,242.7,118.5,242.2,118.2z"/>
		<path class="st8" d="M274.4,131.4l-3.5-2c-0.5-0.3-0.8-1.1-0.6-1.7l0,0c0.2-0.6,0.8-0.9,1.3-0.5l3.5,2c0.5,0.3,0.8,1.1,0.6,1.7
			l0,0C275.6,131.4,275,131.7,274.4,131.4z"/>
		<path class="st8" d="M260.9,101.6l-9.7-5.6c-0.5-0.3-0.8-1.1-0.6-1.7l0,0c0.2-0.6,0.8-0.9,1.3-0.5l9.7,5.6
			c0.5,0.3,0.8,1.1,0.6,1.7l0,0C262,101.7,261.4,102,260.9,101.6z"/>
	</g>
	<path class="st17" d="M262,96.8L245,87c-0.5-0.3-0.8-1.1-0.6-1.7l0,0c0.2-0.6,0.8-0.9,1.3-0.5l17,9.8c0.5,0.3,0.8,1.1,0.6,1.7l0,0
		C263.2,96.9,262.6,97.2,262,96.8z"/>
	<path class="st17" d="M252,102l-9.7-5.6c-0.5-0.3-0.8-1.1-0.6-1.7l0,0c0.2-0.6,0.8-0.9,1.3-0.5l9.7,5.6c0.5,0.3,0.8,1.1,0.6,1.7
		l0,0C253.1,102.1,252.5,102.3,252,102z"/>
	<path class="st17" d="M268.3,105.9l-3.5-2c-0.5-0.3-0.8-1.1-0.6-1.7l0,0c0.2-0.6,0.8-0.9,1.3-0.5l3.5,2c0.5,0.3,0.8,1.1,0.6,1.7
		l0,0C269.4,106,268.8,106.2,268.3,105.9z"/>
	<path class="st17" d="M304.3,104.8l-21-12.1c-0.5-0.3-0.8-1.1-0.6-1.7l0,0c0.2-0.6,0.8-0.9,1.3-0.5l21,12.1
		c0.5,0.3,0.8,1.1,0.6,1.7l0,0C305.4,104.9,304.8,105.1,304.3,104.8z"/>
	<path class="st18" d="M251.2,112.5l-11.7-6.8c-0.5-0.3-0.8-1.1-0.6-1.7l0,0c0.2-0.6,0.8-0.9,1.3-0.5l11.7,6.8
		c0.5,0.3,0.8,1.1,0.6,1.7l0,0C252.3,112.5,251.7,112.8,251.2,112.5z"/>
	<path class="st18" d="M253,75.2l-8.6-5c-0.5-0.3-0.8-1.1-0.6-1.7l0,0c0.2-0.6,0.8-0.9,1.3-0.5l8.6,5c0.5,0.3,0.8,1.1,0.6,1.7l0,0
		C254.1,75.3,253.5,75.5,253,75.2z"/>
	<path class="st17" d="M240.4,122.6l-10-5.8c-0.5-0.3-0.8-1.1-0.6-1.7l0,0c0.2-0.6,0.8-0.9,1.3-0.5l10,5.8c0.5,0.3,0.8,1.1,0.6,1.7
		l0,0C241.5,122.7,240.9,122.9,240.4,122.6z"/>
</g>
<g>
	<path class="st8" d="M306.6,94l-4.3-2.5c-0.4-0.2-0.6-0.8-0.5-1.2l0,0c0.1-0.4,0.6-0.6,1-0.4l4.3,2.5c0.4,0.2,0.6,0.8,0.5,1.2l0,0
		C307.4,94.1,307,94.3,306.6,94z"/>
	<path class="st8" d="M314.8,98.7l-4.3-2.5c-0.4-0.2-0.6-0.8-0.5-1.2l0,0c0.1-0.4,0.6-0.6,1-0.4l4.3,2.5c0.4,0.2,0.6,0.8,0.5,1.2
		l0,0C315.6,98.8,315.2,99,314.8,98.7z"/>
	<path class="st8" d="M322.9,103.5l-4.3-2.5c-0.4-0.2-0.6-0.8-0.5-1.2l0,0c0.1-0.4,0.6-0.6,1-0.4l4.3,2.5c0.4,0.2,0.6,0.8,0.5,1.2
		l0,0C323.7,103.5,323.3,103.7,322.9,103.5z"/>
	<path class="st18" d="M326.9,105.8l-0.1-0.1c-0.4-0.2-0.6-0.8-0.5-1.2l0,0c0.1-0.4,0.6-0.6,1-0.4l0.1,0.1c0.4,0.2,0.6,0.8,0.5,1.2
		l0,0C327.7,105.8,327.3,106,326.9,105.8z"/>
</g>
<linearGradient id="SVGID_11_" gradientUnits="userSpaceOnUse" x1="68.2229" y1="173.0031" x2="145.023" y2="173.0031" gradientTransform="matrix(1 0 0 -1 0 306.7209)">
	<stop  offset="0" style="stop-color:#E39A65"/>
	<stop  offset="1" style="stop-color:#E95F8D"/>
</linearGradient>
<path class="st19" d="M106.6,155.7c-2.7,0-5.4-0.7-7.8-2.1l0,0l-28.6-16.5c-1.2-0.7-2-2-2-3.4s0.7-2.7,2-3.4l28.6-16.5
	c4.8-2.8,10.8-2.8,15.6,0l28.6,16.5c1.2,0.7,2,2,2,3.4s-0.7,2.7-2,3.4l-28.6,16.5C112,155,109.3,155.7,106.6,155.7z M99.7,152
	c4.2,2.5,9.5,2.5,13.8,0l28.6-16.5c0.7-0.4,1-1.1,1-1.8s-0.4-1.4-1-1.8l-28.6-16.5c-4.2-2.5-9.5-2.5-13.8,0l-28.6,16.5
	c-0.7,0.4-1,1.1-1,1.8c0,0.8,0.4,1.4,1,1.8L99.7,152z"/>
<g>
	<ellipse class="st3" cx="106.5" cy="134.1" rx="19.6" ry="11.3"/>
	
		<radialGradient id="SVGID_12_" cx="75.0391" cy="235.6351" r="165.349" gradientTransform="matrix(1 0 0 -1 0 306.7209)" gradientUnits="userSpaceOnUse">
		<stop  offset="0" style="stop-color:#E39A65"/>
		<stop  offset="0.1528" style="stop-color:#A92FFB"/>
		<stop  offset="0.4087" style="stop-color:#3919BB"/>
		<stop  offset="0.9311" style="stop-color:#3919BB"/>
	</radialGradient>
	<path class="st20" d="M135.6,53.3H79.7l5.2,60.6l0,0c0,3.4,2.2,6.7,6.7,9.3c8.9,5.1,23.3,5.1,32.2,0c4.4-2.6,6.7-5.9,6.7-9.3
		L135.6,53.3z"/>
	<path class="st13" d="M135.6,53.3H79.7l0.9,10c1.3,1.6,3,3.2,5.2,4.7c10.7,7.1,28.3,8.5,40.4,3.4l-1.9,44.3c-0.1,1.9-0.7,3.8-2,5.3
		c-1.8,2.1-5.3,4.6-12,6.1c4.9-0.3,9.7-1.6,13.5-3.8c4.4-2.6,6.7-5.9,6.7-9.3l4.2-48.6l0,0L135.6,53.3z"/>
	<ellipse class="st13" cx="107.6" cy="53.3" rx="28" ry="16.1"/>
	<ellipse class="st13" cx="107.6" cy="47.6" rx="24.1" ry="13.9"/>
	
		<linearGradient id="SVGID_13_" gradientUnits="userSpaceOnUse" x1="77.9655" y1="256.0156" x2="137.2749" y2="256.0156" gradientTransform="matrix(1 0 0 -1 0 306.7209)">
		<stop  offset="0" style="stop-color:#E39A65"/>
		<stop  offset="0.252" style="stop-color:#A92FFB"/>
		<stop  offset="0.5556" style="stop-color:#3919BB"/>
	</linearGradient>
	<path class="st21" d="M137.2,52.5L137.2,52.5L137.2,52.5C137.2,52.4,137.2,52.4,137.2,52.5l-0.5-5.5v0.1c-0.2-4.1-3.1-8.2-8.5-11.3
		c-11.4-6.6-29.8-6.6-41.1,0c-5.6,3.2-8.4,7.4-8.5,11.6l0,0l-0.5,4.8c0,0.1,0,0.3,0,0.4v0.1l0,0c-0.3,4.6,2.6,9.3,8.7,12.8
		c11.6,6.7,30.4,6.7,41.9,0C134.7,61.8,137.6,57.1,137.2,52.5z"/>
	
		<linearGradient id="SVGID_14_" gradientUnits="userSpaceOnUse" x1="83.5229" y1="259.1031" x2="131.723" y2="259.1031" gradientTransform="matrix(1 0 0 -1 0 306.7209)">
		<stop  offset="0" style="stop-color:#4F1FEC"/>
		<stop  offset="1" style="stop-color:#A92FFB"/>
	</linearGradient>
	<ellipse class="st22" cx="107.6" cy="47.6" rx="24.1" ry="13.9"/>
	
		<linearGradient id="SVGID_15_" gradientUnits="userSpaceOnUse" x1="82.4229" y1="259.1031" x2="130.623" y2="259.1031" gradientTransform="matrix(1 0 0 -1 0 306.7209)">
		<stop  offset="0" style="stop-color:#4F1FEC"/>
		<stop  offset="1" style="stop-color:#A92FFB"/>
	</linearGradient>
	<ellipse class="st23" cx="106.5" cy="47.6" rx="24.1" ry="13.9"/>
	<path class="st13" d="M93.4,39.8c9.4-5.4,24.7-5.4,34.1,0c0.1,0.1,0.2,0.1,0.3,0.2c-0.9-0.8-2-1.6-3.2-2.3
		c-9.4-5.4-24.7-5.4-34.1,0c-9.3,5.4-9.4,14-0.3,19.5C84.2,51.8,85.2,44.5,93.4,39.8z"/>
	
		<linearGradient id="SVGID_16_" gradientUnits="userSpaceOnUse" x1="83.5327" y1="265.5281" x2="144.2849" y2="265.5281" gradientTransform="matrix(1 0 0 -1 0 306.7209)">
		<stop  offset="0" style="stop-color:#131060"/>
		<stop  offset="0.1857" style="stop-color:#141062"/>
		<stop  offset="0.2823" style="stop-color:#19106A"/>
		<stop  offset="0.3584" style="stop-color:#221078"/>
		<stop  offset="0.4238" style="stop-color:#2E0F8B"/>
		<stop  offset="0.4823" style="stop-color:#3E0FA3"/>
		<stop  offset="0.5359" style="stop-color:#510EC2"/>
		<stop  offset="0.5847" style="stop-color:#680DE5"/>
		<stop  offset="0.6071" style="stop-color:#740DF8"/>
		<stop  offset="0.6179" style="stop-color:#7A14F0"/>
		<stop  offset="0.6826" style="stop-color:#9B3CC3"/>
		<stop  offset="0.7477" style="stop-color:#B75D9D"/>
		<stop  offset="0.8123" style="stop-color:#CC7680"/>
		<stop  offset="0.8762" style="stop-color:#DC886C"/>
		<stop  offset="0.9391" style="stop-color:#E5935F"/>
		<stop  offset="1" style="stop-color:#E8975B"/>
	</linearGradient>
	<path class="st24" d="M90.6,40.1c9.4-5.4,24.7-5.4,34.1,0c4.2,2.4,6.5,5.5,7,8.6c0.6-4-1.7-8-7-11c-9.4-5.4-24.7-5.4-34.1,0
		c-5.2,3-7.6,7.1-7,11C84.1,45.6,86.4,42.6,90.6,40.1z"/>
	
		<radialGradient id="SVGID_17_" cx="70.5628" cy="272.8986" r="108.1645" gradientTransform="matrix(1 0 0 -1 0 306.7209)" gradientUnits="userSpaceOnUse">
		<stop  offset="0" style="stop-color:#E39A65"/>
		<stop  offset="0.252" style="stop-color:#A92FFB"/>
		<stop  offset="0.7357" style="stop-color:#3919BB"/>
	</radialGradient>
	<path class="st25" d="M128.3,35.8C117,29.1,98.5,29,87,35.4c-11.5,6.5-11.5,17.2-0.2,23.8c11.3,6.7,29.8,6.8,41.3,0.4
		S139.7,42.5,128.3,35.8z M124.6,57.4c-3.1,1.8-6.9,3-11,3.6l-0.4-1.4c-0.2-0.6-0.7-1-1.3-1h-8.7c-0.6,0-1.1,0.4-1.3,1l-0.4,1.4
		c-4-0.6-7.8-1.8-11-3.6c-9.4-5.4-9.4-14.2,0-19.7c9.4-5.4,24.7-5.4,34.1,0C134,43.2,134,52,124.6,57.4z"/>
	<g>
		<path class="st8" d="M124.6,36.7c-9.4-5.4-24.7-5.4-34.1,0c-4.9,2.8-7.3,6.6-7,10.3c0.2-3.4,2.6-6.7,7-9.3
			c9.4-5.4,24.7-5.4,34.1,0c4.5,2.6,6.8,5.9,7,9.3C131.9,43.3,129.6,39.6,124.6,36.7z"/>
		<path class="st8" d="M128.1,58.6c-11.5,6.5-29.9,6.3-41.3-0.4c-5.4-3.2-8.2-7.3-8.4-11.4c-0.2,4.4,2.6,9,8.4,12.4
			c11.3,6.7,29.8,6.8,41.3,0.4c6-3.4,8.9-7.9,8.6-12.5C136.6,51.4,133.7,55.5,128.1,58.6z"/>
	</g>
	<path class="st26" d="M110.2,61.8H105c-0.4,0-0.7-0.3-0.7-0.7V61c0-0.4,0.3-0.7,0.7-0.7h5.2c0.4,0,0.7,0.3,0.7,0.7v0.1
		C110.8,61.5,110.5,61.8,110.2,61.8z"/>
	
		<linearGradient id="SVGID_18_" gradientUnits="userSpaceOnUse" x1="103.8056" y1="245.8031" x2="112.2102" y2="245.8031" gradientTransform="matrix(1 0 0 -1 0 306.7209)">
		<stop  offset="0" style="stop-color:#131060"/>
		<stop  offset="0.1857" style="stop-color:#141062"/>
		<stop  offset="0.2823" style="stop-color:#19106A"/>
		<stop  offset="0.3584" style="stop-color:#221078"/>
		<stop  offset="0.4238" style="stop-color:#2E0F8B"/>
		<stop  offset="0.4823" style="stop-color:#3E0FA3"/>
		<stop  offset="0.5359" style="stop-color:#510EC2"/>
		<stop  offset="0.5847" style="stop-color:#680DE5"/>
		<stop  offset="0.6071" style="stop-color:#740DF8"/>
		<stop  offset="0.6179" style="stop-color:#7A14F0"/>
		<stop  offset="0.6826" style="stop-color:#9B3CC3"/>
		<stop  offset="0.7477" style="stop-color:#B75D9D"/>
		<stop  offset="0.8123" style="stop-color:#CC7680"/>
		<stop  offset="0.8762" style="stop-color:#DC886C"/>
		<stop  offset="0.9391" style="stop-color:#E5935F"/>
		<stop  offset="1" style="stop-color:#E8975B"/>
	</linearGradient>
	<path class="st27" d="M110.2,60.4H105c-0.4,0-0.7,0.3-0.7,0.7v0.1c0,0.1,0,0.1,0,0.2c0.1-0.3,0.3-0.5,0.6-0.5h5.2
		c0.3,0,0.5,0.2,0.6,0.5c0-0.1,0-0.1,0-0.2v-0.1C110.8,60.7,110.5,60.4,110.2,60.4z"/>
	<g>
		<path class="st17" d="M108.4,107.6c-0.6,2.4-3.1,3.8-5.5,3.2s-3.8-3.1-3.2-5.5s2.9-3.1,5.3-2.4C107.4,103.5,109,105.2,108.4,107.6
			z"/>
		<path class="st17" d="M111.9,102.9c-0.9,0.9-2.1,0.8-2.8,0c-0.8-0.8-0.9-1.9,0-2.8c0.9-0.9,2.6-1.3,3.4-0.5
			C113.3,100.3,112.8,102,111.9,102.9z"/>
		<path class="st17" d="M107.2,99.2c-0.2,1.2-1.2,1.8-2.3,1.6s-1.8-1.1-1.6-2.3s1.4-2.6,2.4-2.4C106.8,96.3,107.5,97.9,107.2,99.2z"
			/>
		<path class="st17" d="M101.5,98.6c0.5,1.2-0.1,2.2-1.1,2.6c-1,0.4-2.1,0.1-2.6-1.1c-0.5-1.2-0.2-2.9,0.8-3.3
			C99.6,96.4,101,97.4,101.5,98.6z"/>
	</g>
</g>
<path class="st28" d="M109.4,61.1c0,0,15.6-5.2,9.3-23.2S100.1,14.4,105,0c0,0-7.8,11.6-0.5,27.4c7.3,15.7,8.9,13.9,8.8,21.5
	c-0.1,8.9-7.3,12.2-7.3,12.2H109.4z"/>
</svg>
