<?xml version="1.0" encoding="utf-8"?>
<!-- Generator: Adobe Illustrator 25.0.0, SVG Export Plug-In . SVG Version: 6.00 Build 0)  -->
<svg version="1.1" id="Layer_1" xmlns="http://www.w3.org/2000/svg" xmlns:xlink="http://www.w3.org/1999/xlink" x="0px" y="0px"
	 viewBox="0 0 2743.9 1765.3" style="enable-background:new 0 0 2743.9 1765.3;" xml:space="preserve">
<style type="text/css">
	.st0{fill:#FEEAE4;}
	.st1{fill:#3D8F7C;}
	.st2{fill:#98D5C7;}
	.st3{fill:#52C0A6;}
	.st4{fill:#3CB4C5;}
	.st5{fill:#FFFFFF;}
	.st6{fill:#D2D2D2;}
	.st7{fill:#A0BFE5;}
	.st8{fill:#DD5339;}
	.st9{fill:#0E2E36;}
	.st10{fill:#FAE0B2;}
	.st11{fill:#F7CC7F;}
	.st12{fill:#F79D8E;}
	.st13{fill:#F37559;}
	.st14{fill:#F8A592;}
	.st15{fill:#286754;}
	.st16{fill:#1A4755;}
	.st17{fill:#010101;}
</style>
<g>
	<g>
		<g>
			<path class="st0" d="M837,3.2c417.4-25.9,855.1,109.2,790.7,305.1c-64.3,195.9,343.9-69.6,506.8,1
				c116,50.3,69.6,203.4,125.7,265.1c128.7,141.4,245.4-54.3,419.3,137.4c131.4,144.8,86,897.6-365.6,1040.7l-1928.9-2l-134.5-22.2
				c0,0-387.3-226.9-110.3-436.2c187.3-141.5,52.5-244.3,32.2-309.1c-23.4-74.4-78-204.3,159.9-299.7
				C570.1,588,508.7,380.5,502.9,337.5C497.1,294.7,419.6,29.2,837,3.2L837,3.2z"/>
			<g>
				<g>
					<path class="st1" d="M385.7,1300.6c-48.1-71.7-59.7-159.9-61-221.3c-1.4-66.6,8.7-116.9,8.8-117.4l-3.3-1.1
						c-0.1,0.5-10.3,51.2-8.9,118.3c1.3,62,13.1,151.1,61.7,223.7L385.7,1300.6z"/>
				</g>
				<g>
					<path class="st1" d="M344.3,949.3c-0.6,15.1-6.6,28-15.6,36.1c-8.3-10.2-13.3-24.4-12.7-39.5c0.6-15.1,6.6-28,15.6-36.1
						C339.9,920,344.9,934.2,344.3,949.3z"/>
				</g>
				<g>
					<path class="st1" d="M314.8,985.2c8.2,12.8,11.1,27.5,9.1,40.5c-11.9-2.5-23.6-10.6-31.8-23.4c-8.2-12.8-11.1-27.5-9.1-40.5
						C294.9,964.3,306.6,972.4,314.8,985.2z"/>
				</g>
				<g>
					<path class="st1" d="M298.8,1026.7c12.3,7.6,20.8,19.7,24.4,32.7c-11.3,3.8-24.7,2.2-36.9-5.4c-12.3-7.6-20.8-19.7-24.4-32.7
						C273.2,1017.6,286.6,1019.1,298.8,1026.7z"/>
				</g>
				<g>
					<path class="st1" d="M306.2,1083.6c9.7,6,16,16.8,18,28.8c-9.7,4.7-20.9,4.6-30.6-1.5c-9.7-6-16-16.8-18-28.8
						C285.4,1077.4,296.5,1077.5,306.2,1083.6z"/>
				</g>
				<g>
					<path class="st1" d="M343,1014.6c10.4-6.3,22.4-7,32.7-3.1c-2.3,11.5-9.1,21.9-19.5,28.2c-10.5,6.3-22.4,7-32.7,3.1
						C325.8,1031.3,332.6,1020.9,343,1014.6z"/>
				</g>
				<g>
					<path class="st1" d="M343.2,1054c10.4-6.3,22.4-7,32.7-3.1c-2.3,11.5-9.1,21.9-19.6,28.2c-10.4,6.3-22.4,7-32.7,3.1
						C326,1070.8,332.8,1060.3,343.2,1054z"/>
				</g>
			</g>
			<g>
				<g>
					<path class="st2" d="M336.2,1652.6c-100.8-36.7-171.3-124.2-212.7-191.2c-44.9-72.7-66.2-137.5-66.4-138.2l-4.5,1.8
						c0.2,0.7,21.7,66,66.9,139.2c41.8,67.6,113,156.1,215.1,193.2L336.2,1652.6z"/>
				</g>
				<g>
					<path class="st2" d="M61,1299.6c9.2,17.3,10.8,36.9,5.9,54c-16-3.9-30.9-15.2-40.1-32.5c-9.2-17.3-10.8-36.9-5.9-54
						C37,1271,51.8,1282.4,61,1299.6z"/>
				</g>
				<g>
					<path class="st2" d="M51.1,1365.8c17.5,6.9,30.4,20.7,36.6,36.9c-15,7.9-33.5,9.3-51.1,2.4c-17.5-6.9-30.4-20.7-36.6-36.9
						C15.1,1360.3,33.6,1358.9,51.1,1365.8z"/>
				</g>
				<g>
					
						<ellipse transform="matrix(0.99 -0.1411 0.1411 0.99 -203.5219 23.2183)" class="st2" cx="62" cy="1446.8" rx="47.4" ry="20.8"/>
				</g>
				<g>
					<path class="st2" d="M95.7,1483.9c18.8-2.5,36.3,3.3,48.8,14.5c-10.2,14.2-26.4,24.5-45.1,26.9c-18.8,2.5-36.3-3.3-48.8-14.5
						C60.8,1496.7,76.9,1486.4,95.7,1483.9z"/>
				</g>
				<g>
					<path class="st2" d="M92.9,1393.9c1-18.3,8.6-34.7,19.8-46c10,10.9,15.7,27.1,14.7,45.4s-8.6,34.7-19.8,46
						C97.6,1428.4,91.9,1412.1,92.9,1393.9z"/>
				</g>
				<g>
					<path class="st2" d="M130,1453.7c0.8-18.3,8.1-34.9,19.2-46.3c10.1,10.7,16.2,26.8,15.4,45.1c-0.8,18.3-8.1,34.9-19.2,46.3
						C135.2,1488.1,129.2,1472,130,1453.7z"/>
				</g>
				<g>
					<path class="st2" d="M156.3,1543.7c7.2-3.8,15-3.9,21.7-1c-2,7.5-7,14.1-14.1,17.9s-15,3.9-21.7,1
						C144.2,1554.1,149.2,1547.5,156.3,1543.7z"/>
				</g>
			</g>
			<path class="st1" d="M577.9,1555.5c0,0,78.4-173,52.2-211.6c-36.2-53.3-81.2,110.4-83.4,96c-20.7-135.9-16.4-307.2-113.4-333.2
				c-55.1-14.8,3.6,128-3.2,164.8s-98.5-94.5-155-164s-91.1-31.1-58.3,53.1c31.7,81.5,146.3,177,120.7,185.2
				c-25.7,8.2-169.6-105.4-191.3-63.5c-26.6,51.3,195.1,141.9,172.9,152.1s-127.9-37.8-127.9,3.1s146,51.1,142.2,68.7
				c-6.1,28.6-97.8-44.6-105-4.9c-7.3,40.6,124.5,43.7,119.9,75.4c-2.6,18.3-35.8-0.9-41.8,24.2c-13.7,57.2,194,137.4,194,137.4
				L577.9,1555.5z"/>
			<path class="st2" d="M722.5,1594.8c31.5,14.8,23,51.4,23,51.4s85.5-66.7,117.4-27.8c32,39,15.2,115.3-22.3,127.7
				c-13.3,4.4-62.4,6.3-120.7,6.7c-106.4,0.8-242.7-3-242.7-3S694.2,1581.5,722.5,1594.8z"/>
			<g>
				<g>
					<g>
						<path class="st3" d="M496.1,1687.7l3-2.6c-68.5-83.4-97.7-188-110.2-261.1c-13.5-79.3-10.8-139.5-10.8-140.1l-4.2-0.7
							c0,0.6-2.8,61.3,10.8,141C397.4,1497.9,426.9,1603.4,496.1,1687.7z"/>
					</g>
					<g>
						<path class="st3" d="M387.3,1270.7c2,18-2.6,33.6-11.6,43.6c-11.5-11.8-19.8-28.5-21.8-46.5s2.6-33.6,11.6-43.6
							C377,1236,385.3,1252.7,387.3,1270.7z"/>
					</g>
					<g>
						<path class="st3" d="M360.6,1312.6c11.7,14.9,17.8,32.3,17.8,47.8c-14.2-2.5-29.3-11.7-41-26.5
							c-11.7-14.9-17.8-32.3-17.8-47.8C333.9,1288.6,348.9,1297.8,360.6,1312.6z"/>
					</g>
					<g>
						<path class="st3" d="M349.6,1362.7c15.5,8.6,27.6,22.7,34.1,37.9c-12.4,4.9-28.2,3.6-43.7-4.9c-15.5-8.6-27.6-22.6-34.1-37.9
							C318.2,1352.9,334,1354.2,349.6,1362.7z"/>
					</g>
					<g>
						<path class="st3" d="M377.4,1445.2c6.7,3.1,12.2,8.7,15.3,14.9c-5,2.5-11.6,2.5-18.3-0.6s-12.2-8.7-15.3-14.9
							C364.1,1442.1,370.7,1442.1,377.4,1445.2z"/>
					</g>
					<g>
						<path class="st3" d="M385.8,1476c6.7,3.1,12.2,8.7,15.3,14.9c-5,2.5-11.6,2.5-18.3-0.6s-12.2-8.7-15.3-14.9
							C372.5,1472.8,379.1,1472.9,385.8,1476z"/>
					</g>
					<g>
						<path class="st3" d="M398.5,1346.5c11-7.9,24.6-9.3,37.3-5.1c-0.6,13.7-6.6,26.5-17.6,34.3c-11,7.9-24.6,9.3-37.3,5.1
							C381.6,1367.1,387.6,1354.4,398.5,1346.5z"/>
					</g>
					<g>
						<path class="st3" d="M405.8,1393.4c11-7.9,24.6-9.3,37.3-5.1c-0.6,13.7-6.6,26.5-17.6,34.3c-11,7.9-24.6,9.3-37.3,5.1
							C388.9,1414,394.9,1401.3,405.8,1393.4z"/>
					</g>
					<g>
						<path class="st3" d="M410.6,1461.1c7.1-5.1,16-6,24.3-3.3c-0.4,8.9-4.3,17.2-11.4,22.4c-7.1,5.1-16,6-24.3,3.3
							C399.6,1474.6,403.5,1466.3,410.6,1461.1z"/>
					</g>
				</g>
			</g>
			<path class="st3" d="M547.8,1750.3c0,0-100.1-128.6-142-148.2c-44.6-21-5.9,51.7-5.9,51.7s-95.4-93.7-117.8-70.3
				c-22.4,23.4,1.5,45.3,1.5,45.3s-79.9-14.8-91.5,15.1c-17.9,46,113.4,68.8,113.4,68.8s-62.9-13.8-50.3,14.7
				C274.2,1770.3,547.8,1750.3,547.8,1750.3z"/>
			<path class="st2" d="M192.1,1643.9c11.6-29.9,91.5-15.1,91.5-15.1s-23.9-21.9-1.5-45.3s97,31.8,97,31.8s-11.6-50.8,44.5-10.8
				C463.7,1633,541,1739.4,541,1739.4L192.1,1643.9z"/>
			<g>
				<g>
					<path class="st3" d="M474.2,1748.4c0,0,159.5,11.3,190.6-17.3c31.1-28.6,0.2-80.3,0.2-80.3s54.8-43.3,53.9-71.5
						c-0.9-28.3-36.5-13.9-36.5-13.9s60.5-77.8,46.1-92.6c-26.7-27.6-96.6,53.3-96.6,53.3s20.7-38.5-1.1-44.6
						c-33-9.2-57.3,85.7-57.3,85.7s6.2-37.5-16.6-32.5C516.1,1543.6,474.2,1748.4,474.2,1748.4z"/>
				</g>
			</g>
			<path class="st3" d="M2099.7,1308.6l12.9-31.2c10-23,35.6-33.9,57.1-24.5l0,0c54.3,23.8,77.9,90,52.7,147.9l-18.4,42.3
				c-8.1,18.5-5.3,38.9,5.6,53.3c9.9,13.1,11.5,31.2,4.6,47l-9.7,22.3c-10.5,24.2-31,42-55.2,49.4c-14.2,4.3-26.7,15-33.3,30.2
				l-13.7,31.6c-15.2,34.9-54.1,51.6-86.8,37.3l-18.7-8.2c-32.8-14.4-47-54.3-31.8-89.2l0,0c24.6-41.8,22.6-72.9,13.9-94.1
				c-12.8-31.1-12.7-66.9,1.2-98.7l1.9-4.5c14.6-33.6,42.8-58.7,76.5-69.4C2073.2,1345.3,2088.7,1333.7,2099.7,1308.6z"/>
			<path class="st2" d="M1865.6,1747.3c26.4-34.3,172.8-216.4,267-247c104-33.8,6,100.4,6,100.4s184.5-202.5,252.2-184.2
				c62.1,16.7,0,142.2,0,142.2s69.9-69.5,154.7-69.5c82.5,0-62,250.2-69.5,263.3l-402-0.8L1865.6,1747.3z"/>
			<g>
				<g>
					<path class="st1" d="M2423.9,1356.4c-75.4,118.1-130.3,255.2-161.8,394.7l-7.5-0.1c31.3-136.5,88.2-274.7,163.4-392.7
						c17.5-27.4,36.4-60,69.1-70.7c0.6-0.2,0.9,0.8,0.3,1C2457.6,1299.9,2440.2,1330.7,2423.9,1356.4z"/>
				</g>
				<g>
					<path class="st1" d="M2279.2,1751.3c84.2-115,187.6-222.4,309.4-314.8c1.2-0.9,2.9,1.2,1.6,2.1
						c-115.5,89.1-217.3,193.8-303.3,312.7L2279.2,1751.3z"/>
				</g>
				<path class="st1" d="M2430.8,1283.1c1.9,2.9,9.4,10.3,11.6,20.1c2.9,9.3,0.6,21,0.4,20.6c-0.6,0.2,8.6-7.5,11.5-19.9
					c3.7-11.8,1.1-28.3-3.5-33.7c-8-12.3-21.9-13.6-24.6-7.6C2423.2,1268.5,2426.8,1276.6,2430.8,1283.1z"/>
				<path class="st1" d="M2448.8,1388.6c-2.8-2-10.1-9.6-19.8-12c-9.2-3.1-20.9-1-20.5-0.8c-0.2,0.6,7.7-8.5,20-11.1
					c11.9-3.5,28.2-0.6,33.5,4.2c12.1,8.2,13.1,22.2,7.1,24.8C2463.2,1396.4,2455.2,1392.6,2448.8,1388.6z"/>
				<path class="st1" d="M2421.6,1434.8c-2.8-2-10.1-9.6-19.8-12c-9.2-3.1-20.9-1-20.5-0.8c-0.2,0.6,7.7-8.5,20-11.1
					c11.9-3.5,28.2-0.6,33.5,4.2c12.1,8.2,13.1,22.2,7.1,24.8C2436,1442.7,2428,1438.8,2421.6,1434.8z"/>
				<path class="st1" d="M2518.7,1542c-2.8-2-10.1-9.6-19.8-12c-9.2-3.1-20.9-1-20.5-0.8c-0.2,0.6,7.7-8.5,20-11.1
					c11.9-3.5,28.2-0.6,33.5,4.2c12.1,8.2,13.1,22.2,7.1,24.8C2533,1549.9,2525.1,1546.1,2518.7,1542z"/>
				<path class="st1" d="M2568.3,1498.2c-2.8-2-10.1-9.6-19.8-12c-9.2-3.1-20.9-1-20.5-0.8c-0.2,0.6,7.7-8.5,20-11.1
					c11.9-3.5,28.2-0.6,33.5,4.2c12.1,8.2,13.1,22.2,7.1,24.8C2582.6,1506,2574.7,1502.2,2568.3,1498.2z"/>
				<path class="st1" d="M2392.7,1335.4c2.4,2.5,10.9,8.7,14.6,18.1c4.4,8.7,3.9,20.6,3.6,20.2c-0.5,0.3,7.3-8.8,8.2-21.5
					c1.8-12.3-3.3-28.1-8.8-32.8c-9.8-10.9-23.7-9.9-25.4-3.6C2382.9,1322.2,2387.8,1329.6,2392.7,1335.4z"/>
				<path class="st1" d="M2352.6,1387.8c3.4,1.8,15.1,5,21.1,13.9c6.7,7.9,7.5,21.3,7.1,21c-0.6,0.6,8.4-13,8-27.5
					c0.8-14.5-7.7-29.9-15.3-32.8c-14-7.9-31.9-0.9-33.4,6.9C2338.4,1377.3,2345.6,1383.5,2352.6,1387.8z"/>
				<path class="st1" d="M2310.5,1467.2c3.6,1.2,15.8,2.4,23.1,10.1c7.9,6.6,11,19.7,10.5,19.5c-0.5,0.7,6.1-14.2,3.3-28.4
					c-1.6-14.4-12.6-28.2-20.6-29.7c-15.1-5.5-31.6,4.5-31.7,12.5C2294.7,1459.2,2302.9,1464.1,2310.5,1467.2z"/>
				<path class="st1" d="M2435.2,1522.5c2.6,1.7,12,5,16.3,12.5c5,6.8,4.9,17.8,4.6,17.5c-0.5,0.4,7.6-10.1,8.1-21.9
					c1.5-11.7-4.6-24.8-10.6-27.5c-10.9-7.3-25.9-2.5-27.5,3.7C2424.2,1513.2,2429.7,1518.6,2435.2,1522.5z"/>
				<path class="st1" d="M2500.1,1301.7c-1.6-1.3-5.6-6.1-11.2-8c-5.3-2.3-12.3-1.5-12.1-1.4c-0.2,0.3,4.9-4.7,12.3-5.7
					c7.2-1.5,16.7,0.9,19.7,3.9c6.8,5.4,6.8,13.7,3.1,15C2508.2,1307,2503.7,1304.4,2500.1,1301.7z"/>
				<path class="st1" d="M2485,1268c0.1,2.1,1.4,8.2-0.6,13.8c-1.5,5.6-6.3,10.7-6.3,10.4c-0.4-0.1,6.7-1,12-6.3
					c5.6-4.8,9.5-13.8,8.9-18c-0.1-8.7-6.7-13.7-9.9-11.6C2485.8,1258.3,2485.1,1263.5,2485,1268z"/>
				<path class="st1" d="M2604,1453.5c-1.6-1.3-5.6-6.1-11.2-8c-5.3-2.3-12.3-1.5-12.1-1.4c-0.2,0.3,4.9-4.7,12.3-5.7
					c7.2-1.5,16.7,0.9,19.7,3.9c6.8,5.4,6.8,13.7,3.1,15C2612.1,1458.8,2607.6,1456.2,2604,1453.5z"/>
				<path class="st1" d="M2585.7,1419.5c0.2,2,2.1,8,0.6,13.8c-1,5.7-5.4,11.2-5.4,10.9c-0.4,0,6.6-1.6,11.5-7.3
					c5.2-5.2,8.3-14.6,7.4-18.7c-0.8-8.7-7.8-13.1-10.8-10.8C2585.8,1409.7,2585.5,1415,2585.7,1419.5z"/>
			</g>
			<g>
				<path class="st1" d="M2502.1,1615.2c0.5,3.2,3.8,12.4,1.8,21.5c-1.2,9-7.7,17.8-7.8,17.4c-0.6,0,10.2-2.9,17.4-12.1
					c7.8-8.5,12.1-23.3,10.3-29.7c-1.8-13.5-13-20-17.6-16.1C2501.5,1600,2501.4,1608.2,2502.1,1615.2z"/>
				<path class="st1" d="M2434.3,1639.6c0.5,3.2,3.8,12.4,1.8,21.5c-1.2,9-7.7,17.8-7.8,17.4c-0.6,0,10.2-2.9,17.4-12.1
					c7.8-8.5,12.1-23.3,10.3-29.7c-1.8-13.5-13-20-17.6-16.1C2433.7,1624.4,2433.6,1632.6,2434.3,1639.6z"/>
				<path class="st1" d="M2365.4,1670.4c0.5,3.2,3.8,12.4,1.8,21.5c-1.2,9-7.7,17.8-7.8,17.4c-0.6,0,10.2-2.9,17.4-12.1
					c7.8-8.5,12.1-23.3,10.3-29.7c-1.8-13.5-13-20-17.6-16.1C2364.8,1655.2,2364.6,1663.4,2365.4,1670.4z"/>
				<path class="st1" d="M2522.3,1678.8c-1.4-2.6-4.1-11.2-10.6-16.8c-5.9-5.9-15.6-8.8-15.4-8.5c-0.4,0.3,9.1-3.5,19.6-0.8
					c10.4,1.9,21.8,10.4,24.1,16.1c6.1,10.9,1.6,22-4,21.7C2530.4,1690.3,2525.7,1684.4,2522.3,1678.8z"/>
				<path class="st1" d="M2451.8,1703.8c-1.4-2.6-4.1-11.2-10.6-16.8c-5.9-5.9-15.6-8.8-15.4-8.5c-0.4,0.3,9.1-3.5,19.6-0.8
					c10.4,1.9,21.8,10.4,24.1,16.1c6.1,10.9,1.6,22-4,21.7C2459.8,1715.4,2455.2,1709.4,2451.8,1703.8z"/>
				<path class="st1" d="M2576.1,1653c-1.2-1.5-4-6.5-8.9-9.1c-4.5-2.9-11-3.5-10.8-3.3c-0.2,0.3,5.3-3.4,12.2-3.1
					c6.8-0.2,15.1,3.6,17.3,6.9c5.3,6.1,3.9,13.6,0.3,14.2C2582.6,1659.2,2578.9,1656,2576.1,1653z"/>
				<path class="st1" d="M2567.9,1619.7c-0.3,1.9-0.1,7.7-2.8,12.5c-2.3,4.9-7.5,8.7-7.5,8.4c-0.3-0.1,6.3,0.2,12-3.8
					c5.9-3.4,10.9-11,11.1-14.9c1.4-7.9-3.8-13.6-7.1-12.2C2570.3,1611,2568.8,1615.6,2567.9,1619.7z"/>
				<path class="st1" d="M2571.4,1638.5c-21.7,2-43.2,6-64.3,11.5c-38.5,10.1-75.5,25.1-111.9,40.9c-17.9,7.8-35.9,15.5-53.5,24.1
					c-8.2,4-16.5,8-24,13.1c-10.2,6.9-26.1,20.8-28,22.9l8.4,0.2c5.7-4.7,26.7-22.4,55.8-36.4c69-33.2,140.7-67.3,217.7-75.8
					C2571.9,1639.1,2571.8,1638.5,2571.4,1638.5z"/>
			</g>
		</g>
		<g>
			<path class="st4" d="M719.9,1752.8l-0.8-1022.6c0-19.5,15.8-35.4,35.4-35.4l1283.3-1.1c19.5,0,35.4,15.8,35.4,35.4l0.8,1022.6
				L719.9,1752.8z"/>
			<polygon class="st5" points="2054.6,1732.3 739.3,1733.4 740.5,793.6 2055.8,792.5 			"/>
			<path class="st6" d="M1400.4,885.5l-563,0.5c-11.6,0-20.9-9.3-20.9-20.9l0,0c0-11.6,9.3-20.9,20.9-20.9l563-0.5
				c11.6,0,20.9,9.3,20.9,20.9l0,0C1421.4,876.2,1412,885.5,1400.4,885.5z"/>
			<path class="st6" d="M1277.1,946.7l-439.6,0.4c-11.6,0-20.9-9.3-20.9-20.9l0,0c0-11.6,9.3-20.9,20.9-20.9l439.6-0.4
				c11.6,0,20.9,9.3,20.9,20.9l0,0C1298,937.3,1288.6,946.7,1277.1,946.7z"/>
			<path class="st6" d="M1026.4,1007.9l-188.8,0.2c-11.6,0-20.9-9.3-20.9-20.9l0,0c0-11.6,9.4-20.9,20.9-20.9l188.8-0.2
				c11.6,0,20.9,9.3,20.9,20.9l0,0C1047.3,998.6,1037.9,1007.9,1026.4,1007.9z"/>
			<path class="st6" d="M1185.1,1068.9l-347.6,0.3c-11.6,0-20.9-9.4-20.9-20.9l0,0c0-11.6,9.3-20.9,20.9-20.9l347.6-0.3
				c11.6,0,20.9,9.3,20.9,20.9l0,0C1206.1,1059.5,1196.7,1068.9,1185.1,1068.9z"/>
			<path class="st6" d="M1349.9,1068.7l-103.7,0.1c-11.6,0-20.9-9.3-20.9-20.9l0,0c0-11.6,9.3-20.9,20.9-20.9l103.7-0.1
				c11.6,0,20.9,9.3,20.9,20.9l0,0C1370.9,1059.3,1361.5,1068.7,1349.9,1068.7z"/>
			<path class="st6" d="M1512.8,1068.6l-103.7,0.1c-11.6,0-20.9-9.3-20.9-20.9l0,0c0-11.6,9.3-20.9,20.9-20.9l103.7-0.1
				c11.6,0,20.9,9.3,20.9,20.9l0,0C1533.7,1059.2,1524.3,1068.6,1512.8,1068.6z"/>
			<path class="st6" d="M1444.9,946.6l-103.7,0.1c-11.6,0-20.9-9.3-20.9-20.9l0,0c0-11.6,9.3-20.9,20.9-20.9l103.7-0.1
				c11.6,0,20.9,9.3,20.9,20.9l0,0C1465.8,937.2,1456.5,946.5,1444.9,946.6z"/>
			<path class="st6" d="M1608.1,946.4l-103.7,0.1c-11.6,0-20.9-9.3-20.9-20.9l0,0c0-11.6,9.3-20.9,20.9-20.9l103.7-0.1
				c11.6,0,20.9,9.3,20.9,20.9l0,0C1629,937,1619.6,946.4,1608.1,946.4z"/>
			<path class="st6" d="M1774.1,946.3l-103.7,0.1c-11.6,0-20.9-9.3-20.9-20.9l0,0c0-11.6,9.3-20.9,20.9-20.9l103.7-0.1
				c11.6,0,20.9,9.3,20.9,20.9l0,0C1795,936.9,1785.6,946.3,1774.1,946.3z"/>
			<path class="st6" d="M1671.8,1068.5l-103.7,0.1c-11.6,0-20.9-9.3-20.9-20.9l0,0c0-11.6,9.3-20.9,20.9-20.9l103.7-0.1
				c11.6,0,20.9,9.3,20.9,20.9l0,0C1692.7,1059.1,1683.4,1068.5,1671.8,1068.5z"/>
			<path class="st6" d="M1830.8,1068.3l-103.7,0.1c-11.6,0-20.9-9.3-20.9-20.9l0,0c0-11.6,9.3-20.9,20.9-20.9l103.7-0.1
				c11.6,0,20.9,9.3,20.9,20.9l0,0C1851.7,1058.9,1842.3,1068.3,1830.8,1068.3z"/>
			<path class="st6" d="M1719.9,1129.5l-882.3,0.7c-11.6,0-20.9-9.3-20.9-20.9l0,0c0-11.6,9.3-20.9,20.9-20.9l882.3-0.7
				c11.6,0,20.9,9.3,20.9,20.9l0,0C1740.9,1120.1,1731.5,1129.5,1719.9,1129.5z"/>
			<path class="st6" d="M1331,1190.8l-493.3,0.4c-11.6,0-20.9-9.3-20.9-20.9l0,0c0-11.6,9.3-20.9,20.9-20.9l493.3-0.4
				c11.6,0,20.9,9.3,20.9,20.9l0,0C1351.9,1181.4,1342.5,1190.8,1331,1190.8z"/>
			<path class="st6" d="M1257.3,1251.9l-419.5,0.3c-11.6,0-20.9-9.3-20.9-20.9l0,0c0-11.6,9.3-20.9,20.9-20.9l419.5-0.3
				c11.6,0,20.9,9.3,20.9,20.9l0,0C1278.2,1242.6,1268.8,1251.9,1257.3,1251.9z"/>
			<path class="st6" d="M1579.8,1251.7l-266.7,0.2c-11.6,0-20.9-9.3-20.9-20.9l0,0c0-11.6,9.3-20.9,20.9-20.9l266.7-0.2
				c11.6,0,20.9,9.3,20.9,20.9l0,0C1600.8,1242.3,1591.4,1251.7,1579.8,1251.7z"/>
			<path class="st6" d="M1902.4,1251.4l-266.7,0.2c-11.6,0-20.9-9.3-20.9-20.9l0,0c0-11.6,9.3-20.9,20.9-20.9l266.7-0.2
				c11.6,0,20.9,9.3,20.9,20.9l0,0C1923.3,1242,1914,1251.4,1902.4,1251.4z"/>
			<path class="st6" d="M1510.6,1312.8l-672.8,0.6c-11.6,0-20.9-9.3-20.9-20.9l0,0c0-11.6,9.3-20.9,20.9-20.9l672.8-0.6
				c11.6,0,20.9,9.3,20.9,20.9l0,0C1531.5,1303.4,1522.2,1312.8,1510.6,1312.8z"/>
			<path class="st6" d="M1750.4,1312.6l-182.1,0.1c-11.6,0-20.9-9.3-20.9-20.9l0,0c0-11.6,9.3-20.9,20.9-20.9l182.1-0.1
				c11.6,0,20.9,9.3,20.9,20.9l0,0C1771.3,1303.2,1762,1312.6,1750.4,1312.6z"/>
			<path class="st6" d="M1378.3,1373.9l-540.5,0.4c-11.6,0-20.9-9.3-20.9-20.9l0,0c0-11.6,9.4-20.9,20.9-20.9l540.5-0.4
				c11.6,0,20.9,9.3,20.9,20.9l0,0C1399.2,1364.5,1389.9,1373.9,1378.3,1373.9z"/>
			<path class="st6" d="M1565.4,1373.8l-129.3,0.1c-11.6,0-20.9-9.3-20.9-20.9l0,0c0-11.6,9.3-20.9,20.9-20.9l129.3-0.1
				c11.6,0,20.9,9.3,20.9,20.9l0,0C1586.3,1364.4,1577,1373.8,1565.4,1373.8z"/>
			<path class="st6" d="M1130.8,1435.2l-292.9,0.2c-11.6,0-20.9-9.3-20.9-20.9l0,0c0-11.6,9.3-20.9,20.9-20.9l292.9-0.2
				c11.6,0,20.9,9.3,20.9,20.9l0,0C1151.7,1425.8,1142.4,1435.2,1130.8,1435.2z"/>
			<path class="st6" d="M1017.6,1496.3l-179.7,0.1c-11.6,0-20.9-9.3-20.9-20.9l0,0c0-11.6,9.3-20.9,20.9-20.9l179.7-0.1
				c11.6,0,20.9,9.3,20.9,20.9l0,0C1038.6,1486.9,1029.2,1496.3,1017.6,1496.3z"/>
			<path class="st6" d="M1180.1,1496.2l-102.3,0.1c-11.6,0-20.9-9.3-20.9-20.9l0,0c0-11.6,9.3-20.9,20.9-20.9l102.3-0.1
				c11.6,0,20.9,9.3,20.9,20.9l0,0C1201,1486.8,1191.7,1496.2,1180.1,1496.2z"/>
			<path class="st6" d="M1340.5,1496l-102.3,0.1c-11.6,0-20.9-9.3-20.9-20.9l0,0c0-11.6,9.3-20.9,20.9-20.9l102.3-0.1
				c11.6,0,20.9,9.3,20.9,20.9l0,0C1361.4,1486.7,1352,1496,1340.5,1496z"/>
			<path class="st6" d="M1502.2,1495.9l-102.3,0.1c-11.6,0-20.9-9.3-20.9-20.9l0,0c0-11.6,9.3-20.9,20.9-20.9l102.3-0.1
				c11.6,0,20.9,9.3,20.9,20.9l0,0C1523.1,1486.5,1513.8,1495.9,1502.2,1495.9z"/>
			<path class="st6" d="M1321.3,1557.1l-483.3,0.4c-11.6,0-20.9-9.3-20.9-20.9l0,0c0-11.6,9.4-20.9,20.9-20.9l483.3-0.4
				c11.6,0,20.9,9.3,20.9,20.9l0,0C1342.2,1547.7,1332.8,1557.1,1321.3,1557.1z"/>
			<path class="st6" d="M1544.5,1556.9l-166.3,0.1c-11.6,0-20.9-9.3-20.9-20.9l0,0c0-11.6,9.3-20.9,20.9-20.9l166.3-0.1
				c11.6,0,20.9,9.3,20.9,20.9l0,0C1565.4,1547.5,1556,1556.9,1544.5,1556.9z"/>
			<path class="st6" d="M1765.3,1556.7l-166.3,0.1c-11.6,0-20.9-9.3-20.9-20.9l0,0c0-11.6,9.3-20.9,20.9-20.9l166.3-0.1
				c11.6,0,20.9,9.3,20.9,20.9l0,0C1786.2,1547.4,1776.9,1556.7,1765.3,1556.7z"/>
			<path class="st6" d="M1097.2,1618.3l-259.2,0.2c-11.6,0-20.9-9.3-20.9-20.9l0,0c0-11.6,9.3-20.9,20.9-20.9l259.2-0.2
				c11.6,0,20.9,9.3,20.9,20.9l0,0C1118.1,1609,1108.8,1618.3,1097.2,1618.3z"/>
			<path class="st6" d="M1257.6,1618.2l-102.1,0.1c-11.6,0-20.9-9.3-20.9-20.9l0,0c0-11.6,9.3-20.9,20.9-20.9l102.1-0.1
				c11.6,0,20.9,9.3,20.9,20.9l0,0C1278.5,1608.8,1269.1,1618.2,1257.6,1618.2z"/>
			<path class="st6" d="M1415.6,1618.1l-102.1,0.1c-11.6,0-20.9-9.3-20.9-20.9l0,0c0-11.6,9.3-20.9,20.9-20.9l102.1-0.1
				c11.6,0,20.9,9.3,20.9,20.9l0,0C1436.5,1608.7,1427.1,1618.1,1415.6,1618.1z"/>
			<path class="st7" d="M1905.1,766.2L1905.1,766.2c-6.3,0-11.5-5.1-11.5-11.4l0,0c0-6.3,5.1-11.5,11.4-11.5l0,0
				c6.3,0,11.5,5.1,11.5,11.4l0,0C1916.5,761,1911.4,766.2,1905.1,766.2z"/>
			<path class="st7" d="M1960.5,766.1L1960.5,766.1c-10.4,0-18.9-8.4-18.9-18.9l0,0c0-10.4,8.4-18.9,18.9-18.9l0,0
				c10.4,0,18.9,8.4,18.9,18.9l0,0C1979.4,757.6,1971,766.1,1960.5,766.1z"/>
			<path class="st8" d="M2024.6,766.1L2024.6,766.1c-12.6,0-22.9-10.2-22.9-22.9l0,0c0-12.6,10.2-22.9,22.9-22.9l0,0
				c12.6,0,22.9,10.2,22.9,22.9l0,0C2047.5,755.8,2037.2,766,2024.6,766.1z"/>
		</g>
		<g>
			<polygon class="st9" points="539.7,1763.4 519,1763.4 596.1,1362.5 613.3,1365.8 			"/>
			<polygon class="st9" points="1110.5,1761.6 1127.7,1758.3 1053.4,1362.5 1036.1,1365.8 			"/>
			<polygon class="st9" points="918.7,1763.4 898,1763.4 975.1,1362.5 992.4,1365.8 			"/>
			<polygon class="st9" points="728.3,1763.4 745.1,1763.6 671.2,1364.3 653.9,1367.6 			"/>
			<path class="st10" d="M803.4,822.7c-68.2,7.3-156.4,15-244.9,165.8c-96.8,164.8-45.8,410.9,30.5,479.3
				c76.4,68.4,325.8,152.9,535.5,26.4c0,0,126.6-76.6,61.6-203.8c-100-195.7-85.9-236.5-130.6-313.2
				C1010.9,900.6,948.1,807.1,803.4,822.7z"/>
			<path class="st11" d="M558.5,988.5c60.4-102.9,120.7-139.2,174.6-154.1c-20.8,21.6-41.9,49.5-63.1,85.4
				c-96.8,164.8-45.8,410.9,30.5,479.3c67.7,60.7,271.6,133.9,463.1,61.6c-19.7,21.9-39,33.6-39,33.6
				c-209.7,126.4-459.2,42-535.5-26.4C512.7,1399.4,461.7,1153.3,558.5,988.5z"/>
			<g>
				<polygon class="st12" points="1022.2,1073.1 1039.7,1125.9 986.3,1104.8 				"/>
				<path class="st8" d="M967.2,916.2c3.6,0.1,13.3,3.4,27.6,30.4c18.2,34.4,44.8,138.4,44.8,138.4l-79.5,29.6l-10.2-21.7
					l-16.8-167.1C933.1,925.8,966.2,916.2,967.2,916.2z"/>
				<path class="st13" d="M862.1,901.2c22.7,0,78.9,6.7,105,15c0,0,19.2,164.7-17.3,289.9c-8.2,28,6.7,116.2,6.7,116.2l-235.4-3.1
					c0,0,27.9-213.1,17.4-247.5s-10.8-154.4-10.8-154.4s1.6-0.3,52.9-9.1C804.7,904.1,837.9,901.2,862.1,901.2z"/>
				<path class="st14" d="M834.7,1628.1c0,0,5.2,60.1,14.8,76.8c9.6,16.6-0.5,44.9-1,48.8s-20.2,9.4-51.4,6.1s-30.7-10.5-28.2-22.2
					s19.2-26.6,20.2-37.7s-9.6-51.1-9.6-51.1L834.7,1628.1z"/>
				<path class="st15" d="M930.1,1272.7c0,0,162.5-9,198.8,13s-6.6,67.1-6.6,67.1s-132.3,57.5-353.8,70.3
					c-52.5,3-57-136.8-47.2-148.3C731.2,1263.2,930.1,1272.7,930.1,1272.7z"/>
				<path class="st16" d="M793.2,1764.4c-32.2-3.4-28.2-19.2-25.6-31.2c1.6-7.5,10.9-16.4,16.4-24.7c2.9,2.3,7.6,6.3,21.5,10.5
					c14.5,4.3,34.4-4.2,47.1-9.5c4.5,16.8,4.7,38.3,4.3,41.5C856.3,1754.9,825.4,1767.9,793.2,1764.4z"/>
				<path class="st1" d="M810.9,1389c6.5,49.1,38.6,293.7,38.6,293.7l-74.6,9.2c0,0-91.7-319.3-87-368.1c4.7-48.8,39-52.9,39-52.9
					S793.8,1258.9,810.9,1389z"/>
				<path class="st14" d="M725.3,935.6c22-8.3,32.8,190.1,35.7,271.7c39,3.8,106.9,0,123.8-1.2c8-0.6,26.3-7.3,34.2-8.4
					c8.1-1.1,15.5-1.6,19.4-0.9c1.5,0.3,42.1,16.9,45.6,20.5c4.3,4.5,16,15.9,14,20.8s-22.4-13.7-22.4-13.7l-10-5.6
					c12.4,12.2,36.2,28.2,32.7,34c-3.3,5.7-24.7-10.6-40-21.6c13.1,11.8,29.3,33,25.6,36.3c-3.4,3-21.9-21.5-41.6-28.6
					c-7.3-2.6-14.6,4.6-20.4,5.5c-4.2,0.6-10.8,2-14.9,0.8l-21.4-6.1c-7.3,0.7-7.5,5-14.8,6.5c-8.5,1.8-22.6,3.7-33.4,6.4
					c-62.7,15.3-83.6,22.4-102.7,22.4C676.6,1274.5,673.3,955.1,725.3,935.6z"/>
				<path class="st8" d="M683.5,1121.8c-4.1-83.6-3.5-186.7,43.4-204.3c18.5-6.9,51.1,34.8,45.2,206
					C747.1,1125.6,710.4,1127.3,683.5,1121.8z"/>
				<polygon class="st12" points="945.8,1085.9 941,1085.9 869.2,1262.4 874.1,1261.7 				"/>
				<path class="st14" d="M1052.8,1679.5c0,0-6.5,20.9,5.1,34.7c11.7,13.8,60.1,27.3,66.4,34.8c6.4,7.5,5.9,13.8,5.9,13.8
					l-135.9-3.7l1.5-41l6.3-29.5L1052.8,1679.5z"/>
				<path class="st16" d="M1066.4,1721c0,0-34.9,14.1-51.8,5.8c-16.9-8.4-16.4-10.7-21.2-7.6c-4.9,3.1-6.6,41.6-6.6,41.6l152.8,4.5
					c10.6-0.2,16-8.1,7.4-14.8c-5.9-4.6-12.8-7.7-16.7-9.9C1118.4,1733.8,1066.4,1721,1066.4,1721z"/>
				<path class="st1" d="M1047.7,1311.2c10.5-22.1,34.4-50.9,76.4-33.6c40.1,16.5,50.9,57.2,38.2,98.8
					c-12.7,41.6-95.9,286.2-98.8,319.9l-66.5,0.4c0,0,12.1-193.7,15.1-240.5C1014.9,1411.2,1029.5,1349.5,1047.7,1311.2z"/>
				<path class="st17" d="M1155.6,1085.9H933.4c-5.9,0-11.2,3.6-13.4,9l-68.4,167.5H729c-3.4,0-6.2,2.8-6.2,6.2l0,0
					c0,3.4,2.8,6.2,6.2,6.2h348.8c9.6,0,18.3-5.6,22.2-14.4l68.9-154C1173.2,1096.8,1166.2,1085.9,1155.6,1085.9z"/>
				<path class="st5" d="M1036,1183.4c-1.5,7.5-8,12.6-14.6,11.2c-6.6-1.3-10.7-8.5-9.2-16s8-12.6,14.6-11.2
					C1033.4,1168.7,1037.5,1175.9,1036,1183.4z"/>
				<g>
					<path class="st9" d="M915,700c-6.7-2.3-13.3-4.8-19.7-7.9c-7.2-3.5-16.5-7.5-22.4-8.4c-12.4-1.9-33.7-0.6-45.5,12.1
						c-14.7,15.9-40.7,2.9-35.5,86.2c5.9,94.3,58.4,83.9,59.6,82.3c1.3-1.6,46.8-60.3,46.8-60.3s15.9,34.8,15.9,33.5
						C914.2,836.3,995.4,727.1,915,700z"/>
					<path class="st14" d="M875.2,871.3l4.5,33.7c0,0,10.1,48.5-2.9,57.9s-55.5-59.3-55.5-59.3l4.5-85.4L875.2,871.3z"/>
					<path class="st13" d="M824.4,845.9c10.8,29.1,36.4,47,54.7,54l-3.8-28.6l-49.4-53.1L824.4,845.9z"/>
					<path class="st14" d="M872.5,725.3c27.6-4.5,52.4,17.8,51.7,45.4c-0.3,12-1.3,27-3.8,43.2c-6,38.9-32.5,73.1-50.1,70.1
						c-17.5-3.1-61.7-36.6-53.9-92C821.2,757.9,843.5,730,872.5,725.3z"/>
					<path class="st14" d="M828.6,798.7c-1.5,8.6-8.3,14.5-15.3,13.3s-11.4-9.1-9.9-17.7c1.5-8.6,8.3-14.5,15.3-13.3
						C825.6,782.2,830.1,790.2,828.6,798.7z"/>
					<path class="st9" d="M818.7,781c0,0,21.2,5.3,29.1-8.4c7.9-13.6,36-43.1,71.8-30.9c35.8,12.2-31.5-29.7-34.4-29.7
						s-37.2-0.2-37.2-0.2s-26.5,21.8-27.4,24.2c-1,2.4-8.6,28.5-8.6,28.5L818.7,781z"/>
				</g>
				<path class="st5" d="M857.5,837.9l38.6,7.4c0,0-3.7,14.5-20.8,11.8C854.5,853.8,857.5,837.9,857.5,837.9z"/>
			</g>
		</g>
		<g>
			<path class="st13" d="M1555.3,231.5h371.1c20.2,0,36.6,16.3,36.6,36.3v151.1c0,20.1-16.4,36.3-36.6,36.3h-283l-56.5,41.3
				l11.4-41.3h-42.9c-20.2,0-36.6-16.3-36.6-36.3v-151C1518.7,247.8,1535.1,231.5,1555.3,231.5z"/>
			<g>
				<g>
					<path class="st11" d="M1654.4,384.4c-7.3,0-14.5,0-21.8,0v-33.5h-25.7v33.4c-7.3,0-14.6,0-21.8,0V301c7.1,0,14.5,0,21.8,0v30.2
						h25.7V301c7.3,0,14.5,0,21.8,0V384.4z"/>
					<path class="st11" d="M1667.5,320.1c0-6.4,0-12.7,0-19h61.9c0,6.3,0,12.6,0,19H1709v64.3c-7,0-14,0-21.1,0v-64.3H1667.5z"/>
					<path class="st11" d="M1816.2,300.8h7.6v83.6c-7.3,0-14.5,0-21.8,0v-37.1l-17.7,18.6h-2.4l-17.6-18.6v37.1
						c-7.3,0-14.5,0-21.8,0v-83.6h7.9L1783,337L1816.2,300.8z"/>
					<path class="st11" d="M1866.3,365.2h30.2c0,7.1,0,12,0,19.2c-17.1,0-34.8,0-51.7,0v-83.3c7.1,0,14.2,0,21.4,0
						C1866.3,344.1,1866.3,329.7,1866.3,365.2z"/>
				</g>
			</g>
		</g>
		<g>
			<path class="st11" d="M1404.8,391.7h-359.1c-18.5,0-33.4,14.9-33.4,33.2V582c0,18.4,15,33.2,33.4,33.2h62.2l-19.7,48l63.6-48h253
				c18.5,0,33.4-14.9,33.4-33.2V424.9C1438.3,406.6,1423.3,391.7,1404.8,391.7z"/>
			<g>
				<g>
					<path class="st13" d="M1100.6,546.8c0-28.8,0-57.6,0-86.6c12.5,0,25.4,0,38.1,0c41.4,0.1,41.4,64.4,0,64.4h-16v22.1
						C1115.3,546.8,1107.9,546.8,1100.6,546.8z M1138.6,480c-5.2-0.1-10.8,0-15.8,0c0,7.1,0,17.7,0,24.7h15.8
						C1150.7,504.7,1151.5,480.1,1138.6,480z"/>
					<path class="st13" d="M1258.6,546.8c-7.5,0-15.1,0-22.6,0V512h-26.7v34.8c-7.5,0-15.2,0-22.6,0v-86.6c7.4,0,15.1,0,22.6,0v31.4
						h26.7v-31.4c7.5,0,15.1,0,22.6,0V546.8z"/>
					<path class="st13" d="M1280.7,546.8c0-28.8,0-57.6,0-86.6c12.5,0,25.4,0,38.1,0c41.4,0.1,41.4,64.4,0,64.4h-16v22.1
						C1295.5,546.8,1288,546.8,1280.7,546.8z M1318.7,480c-5.2-0.1-10.8,0-15.8,0c0,7.1,0,17.7,0,24.7h15.8
						C1330.8,504.7,1331.6,480.1,1318.7,480z"/>
				</g>
			</g>
		</g>
	</g>
</g>
</svg>
