<?xml version="1.0" encoding="utf-8"?>
<!-- Generator: Adobe Illustrator 25.0.0, SVG Export Plug-In . SVG Version: 6.00 Build 0)  -->
<svg version="1.1" id="Layer_1" xmlns="http://www.w3.org/2000/svg" xmlns:xlink="http://www.w3.org/1999/xlink" x="0px" y="0px"
	 viewBox="0 0 260.9 49.5" style="enable-background:new 0 0 260.9 49.5;" xml:space="preserve">
<style type="text/css">
	.st0{fill:#5B5B5B;}
	.st1{fill:#0980D1;}
	.st2{fill:#A94DBC;stroke:#A94DBC;stroke-miterlimit:10;}
	.st3{fill:#C43F6F;}
	.st4{fill:#13B78C;}
	.st5{fill:#F9A30B;}
</style>
<path class="st0" d="M6.1,0h32.7C42.2,0,45,2.7,45,6.1v37.2c0,3.4-2.7,6.1-6.1,6.1H6.1c-3.4,0-6.1-2.7-6.1-6.1V6.1
	C0,2.7,2.7,0,6.1,0z"/>
<path class="st0" d="M60.1,0.1h32.8c3.4,0,6.1,2.7,6.1,6.1v37.2c0,3.4-2.7,6.1-6.1,6.1H60.1c-3.4,0-6.1-2.7-6.1-6.1V6.2
	C54,2.8,56.8,0.1,60.1,0.1z"/>
<path class="st0" d="M114.1,0.1h32.8c3.4,0,6.1,2.7,6.1,6.1v37.2c0,3.4-2.7,6.1-6.1,6.1h-32.8c-3.4,0-6.1-2.7-6.1-6.1V6.2
	C108,2.8,110.7,0.1,114.1,0.1z"/>
<path class="st0" d="M168.1,0.1h32.7c3.4,0,6.1,2.7,6.1,6.1v37.2c0,3.4-2.7,6.1-6.1,6.1h-32.7c-3.4,0-6.1-2.7-6.1-6.1V6.2
	C162,2.8,164.7,0.1,168.1,0.1z"/>
<path class="st0" d="M222.1,0.1h32.7c3.4,0,6.1,2.7,6.1,6.1v37.2c0,3.4-2.7,6.1-6.1,6.1h-32.7c-3.4,0-6.1-2.7-6.1-6.1V6.2
	C216,2.8,218.7,0.1,222.1,0.1z"/>
<g>
	<path class="st1" d="M9.1,23.3c3.6,0,4.1-2,4.1-3.7c0-1.4-0.2-2.8-0.4-4.2c-0.2-1.4-0.4-2.8-0.4-4.2c0-4.6,3.1-6.6,7.4-6.6h1.1v2.8
		H20c-3,0-4,1.6-4,4.3c0,1.2,0.2,2.4,0.4,3.6c0.2,1.3,0.4,2.5,0.4,3.8c0.1,3.2-1.4,4.8-3.7,5.4v0.1c2.3,0.6,3.7,2.3,3.7,5.5
		c0,1.4-0.2,2.6-0.4,3.8c-0.2,1.3-0.4,2.4-0.4,3.6c0,2.8,1.2,4.4,4,4.4h0.9v2.8h-1.1c-4.2,0-7.4-1.8-7.4-6.9c0-1.4,0.2-2.8,0.4-4.1
		c0.2-1.4,0.4-2.7,0.4-4.1c0-1.6-0.5-3.7-4.1-3.7V23.3z"/>
	<path class="st1" d="M35.2,25.9c-3.6,0-4.1,2.2-4.1,3.7c0,1.4,0.2,2.7,0.4,4.1c0.2,1.4,0.4,2.8,0.4,4.1c0,5.1-3.2,6.9-7.4,6.9h-1.1
		v-2.8h0.9c2.9,0,4.1-1.6,4.1-4.4c0-1.2-0.2-2.4-0.4-3.6c-0.2-1.2-0.4-2.5-0.4-3.8c0-3.2,1.4-4.9,3.7-5.5v-0.1
		c-2.2-0.6-3.7-2.2-3.7-5.4c0-1.4,0.2-2.6,0.4-3.8c0.2-1.2,0.4-2.4,0.4-3.6c0-2.7-1.1-4.3-4-4.3h-0.9V4.7h1c4.3,0,7.5,2,7.5,6.6
		c0,1.4-0.2,2.8-0.4,4.2c-0.2,1.4-0.4,2.8-0.4,4.2c0,1.8,0.5,3.7,4.1,3.7V25.9z"/>
</g>
<g>
	<path class="st2" d="M110,25.9l13.6-6.8v2l-11.5,5.6v0.1l11.5,5.6v2L110,27.4V25.9z"/>
	<path class="st2" d="M125.5,35.4l8.2-20.7h2l-8.2,20.7H125.5z"/>
	<path class="st2" d="M151.1,27.5l-13.6,6.8v-2l11.5-5.6v-0.1L137.5,21v-2l13.6,6.8V27.5z"/>
</g>
<g>
	<path class="st3" d="M183.5,4.2c-3.7,4.9-6.4,11.4-6.4,20.5c0,8.9,2.8,15.3,6.4,20.3H180c-3.2-4.2-6.7-10.6-6.7-20.3
		c0.1-9.9,3.5-16.3,6.7-20.5H183.5z"/>
	<path class="st3" d="M185.5,45c3.6-5,6.4-11.5,6.4-20.5c0-9-2.8-15.4-6.4-20.3h3.5c3.3,4.1,6.7,10.5,6.7,20.4
		c0,9.8-3.4,16.2-6.7,20.4H185.5z"/>
</g>
<g>
	<path class="st4" d="M66.2,45V5.1h9.4v2.8h-5.9v34.4h5.9V45H66.2z"/>
	<path class="st4" d="M86.9,5.1V45h-9.4v-2.8h5.9V7.8h-5.9V5.1H86.9z"/>
</g>
<g>
	<path class="st5" d="M234.5,39.3c1.1-3,2.5-8.3,3.1-12l5-0.5c-1.2,4.2-3.5,9.8-4.9,12.2L234.5,39.3z M236.7,13c0-1.8,1.3-3.2,3-3.2
		c1.8,0,3,1.3,3,3.2c0,1.8-1.2,3.1-3,3.1C237.9,16.1,236.7,14.7,236.7,13z"/>
</g>
</svg>
