<?xml version="1.0" encoding="utf-8"?>
<!-- Generator: Adobe Illustrator 25.0.0, SVG Export Plug-In . SVG Version: 6.00 Build 0)  -->
<svg version="1.1" id="Layer_1" xmlns="http://www.w3.org/2000/svg" xmlns:xlink="http://www.w3.org/1999/xlink" x="0px" y="0px"
	 viewBox="0 0 3079.2 2000" style="enable-background:new 0 0 3079.2 2000;" xml:space="preserve">
<style type="text/css">
	.st0{fill:#FDE9E4;}
	.st1{fill:#3C8F7C;}
	.st2{fill:#96D9C9;}
	.st3{fill:#50BFA5;}
	.st4{fill:#3CB4C5;}
	.st5{fill:#FFFFFF;}
	.st6{fill:#D1D1D1;}
	.st7{fill:#9BC1F9;}
	.st8{fill:#DD513A;}
	.st9{fill:#0E2E35;}
	.st10{fill:#FAE0B2;}
	.st11{fill:#F7CC7F;}
	.st12{fill:#F79C8D;}
	.st13{fill:#F47458;}
	.st14{fill:#F7A491;}
	.st15{fill:#256653;}
	.st16{fill:#184655;}
</style>
<g>
	<g>
		<g>
			<path class="st0" d="M1004.6,126.3c417.4-25.9,855.1,109.2,790.7,305.1c-64.3,195.9,343.9-69.6,506.8,1
				c116,50.3,69.6,203.4,125.7,265.1c128.7,141.4,245.4-54.3,419.3,137.4c131.4,144.8,86,897.6-365.6,1040.7l-1928.9-2l-134.5-22.2
				c0,0-387.3-226.9-110.3-436.2c187.3-141.5,52.5-244.3,32.2-309.1c-23.4-74.4-78-204.3,159.9-299.7
				c237.8-95.3,176.4-302.8,170.6-345.8C664.7,417.8,587.2,152.3,1004.6,126.3L1004.6,126.3z"/>
			<g>
				<g>
					<path class="st1" d="M553.3,1423.7c-48.1-71.7-59.7-159.9-61-221.3c-1.4-66.6,8.7-116.9,8.8-117.4l-3.3-1.1
						c-0.1,0.5-10.3,51.2-8.9,118.3c1.3,62,13.1,151.1,61.7,223.7L553.3,1423.7z"/>
				</g>
				<g>
					<path class="st1" d="M511.9,1072.4c-0.6,15.1-6.6,28-15.6,36.1c-8.3-10.2-13.3-24.4-12.7-39.5c0.6-15.1,6.6-28,15.6-36.1
						C507.5,1043.1,512.5,1057.3,511.9,1072.4z"/>
				</g>
				<g>
					<path class="st1" d="M482.4,1108.3c8.2,12.8,11.1,27.5,9.1,40.5c-11.9-2.5-23.6-10.6-31.8-23.4c-8.2-12.8-11.1-27.5-9.1-40.5
						C462.5,1087.4,474.2,1095.5,482.4,1108.3z"/>
				</g>
				<g>
					<path class="st1" d="M466.4,1149.8c12.3,7.6,20.8,19.7,24.4,32.7c-11.3,3.8-24.7,2.2-36.9-5.4c-12.3-7.6-20.8-19.7-24.4-32.7
						C440.8,1140.7,454.2,1142.2,466.4,1149.8z"/>
				</g>
				<g>
					<path class="st1" d="M473.8,1206.7c9.7,6,16,16.8,18,28.8c-9.7,4.7-20.9,4.6-30.6-1.5c-9.7-6-16-16.8-18-28.8
						C453,1200.5,464.1,1200.6,473.8,1206.7z"/>
				</g>
				<g>
					<path class="st1" d="M510.6,1137.7c10.4-6.3,22.4-7,32.7-3.1c-2.3,11.5-9.1,21.9-19.5,28.2c-10.5,6.3-22.4,7-32.7,3.1
						C493.4,1154.4,500.2,1144,510.6,1137.7z"/>
				</g>
				<g>
					<path class="st1" d="M510.8,1177.1c10.4-6.3,22.4-7,32.7-3.1c-2.3,11.5-9.1,21.9-19.6,28.2c-10.4,6.3-22.4,7-32.7,3.1
						C493.6,1193.9,500.4,1183.4,510.8,1177.1z"/>
				</g>
			</g>
			<g>
				<g>
					<path class="st2" d="M503.8,1775.7C403,1739,332.5,1651.5,291.1,1584.5c-44.9-72.7-66.2-137.5-66.4-138.2l-4.5,1.8
						c0.2,0.7,21.7,66,66.9,139.2c41.8,67.6,113,156.1,215.1,193.2L503.8,1775.7z"/>
				</g>
				<g>
					<path class="st2" d="M228.6,1422.7c9.2,17.3,10.8,36.9,5.9,54c-16-3.9-30.9-15.2-40.1-32.5c-9.2-17.3-10.8-36.9-5.9-54
						C204.6,1394.1,219.4,1405.5,228.6,1422.7z"/>
				</g>
				<g>
					<path class="st2" d="M218.7,1488.9c17.5,6.9,30.4,20.7,36.6,36.9c-15,7.9-33.5,9.3-51.1,2.4c-17.5-6.9-30.4-20.7-36.6-36.9
						C182.7,1483.4,201.2,1482,218.7,1488.9z"/>
				</g>
				<g>
					
						<ellipse transform="matrix(0.99 -0.1411 0.1411 0.99 -219.2481 48.1118)" class="st2" cx="229.6" cy="1569.9" rx="47.4" ry="20.8"/>
				</g>
				<g>
					<path class="st2" d="M263.3,1607c18.8-2.5,36.3,3.3,48.8,14.5c-10.2,14.2-26.4,24.5-45.1,26.9c-18.8,2.5-36.3-3.3-48.8-14.5
						C228.4,1619.8,244.5,1609.5,263.3,1607z"/>
				</g>
				<g>
					<path class="st2" d="M260.5,1517c1-18.3,8.6-34.7,19.8-46c10,10.9,15.7,27.1,14.7,45.4c-1,18.3-8.6,34.7-19.8,46
						C265.2,1551.5,259.5,1535.2,260.5,1517z"/>
				</g>
				<g>
					<path class="st2" d="M297.6,1576.8c0.8-18.3,8.1-34.9,19.2-46.3c10.1,10.7,16.2,26.8,15.4,45.1c-0.8,18.3-8.1,34.9-19.2,46.3
						C302.8,1611.2,296.8,1595.1,297.6,1576.8z"/>
				</g>
				<g>
					<path class="st2" d="M323.9,1666.8c7.2-3.8,15-3.9,21.7-1c-2,7.5-7,14.1-14.1,17.9s-15,3.9-21.7,1
						C311.8,1677.2,316.8,1670.6,323.9,1666.8z"/>
				</g>
			</g>
			<path class="st1" d="M745.5,1678.6c0,0,78.4-173,52.2-211.6c-36.2-53.3-81.2,110.4-83.4,96c-20.7-135.9-16.4-307.2-113.4-333.2
				c-55.1-14.8,3.6,128-3.2,164.8c-6.8,36.8-98.5-94.5-155-164c-56.5-69.5-91.1-31.1-58.3,53.1c31.7,81.5,146.3,177,120.7,185.2
				c-25.7,8.2-169.6-105.4-191.3-63.5c-26.6,51.3,195.1,141.9,172.9,152.1c-22.2,10.2-127.9-37.8-127.9,3.1
				c0,40.9,146,51.1,142.2,68.7c-6.1,28.6-97.8-44.6-105-4.9c-7.3,40.6,124.5,43.7,119.9,75.4c-2.6,18.3-35.8-0.9-41.8,24.2
				c-13.7,57.2,194,137.4,194,137.4L745.5,1678.6z"/>
			<path class="st2" d="M890.1,1717.9c31.5,14.8,23,51.4,23,51.4s85.5-66.7,117.4-27.8c32,39,15.2,115.3-22.3,127.7
				c-13.3,4.4-62.4,6.3-120.7,6.7c-106.4,0.8-242.7-3-242.7-3S861.8,1704.6,890.1,1717.9z"/>
			<g>
				<g>
					<g>
						<path class="st3" d="M663.7,1810.8l3-2.6c-68.5-83.4-97.7-188-110.2-261.1c-13.5-79.3-10.8-139.5-10.8-140.1l-4.2-0.7
							c0,0.6-2.8,61.3,10.8,141C565,1621,594.5,1726.5,663.7,1810.8z"/>
					</g>
					<g>
						<path class="st3" d="M554.9,1393.8c2,18-2.6,33.6-11.6,43.6c-11.5-11.8-19.8-28.5-21.8-46.5c-2-18,2.6-33.6,11.6-43.6
							C544.6,1359.1,552.9,1375.8,554.9,1393.8z"/>
					</g>
					<g>
						<path class="st3" d="M528.2,1435.7c11.7,14.9,17.8,32.3,17.8,47.8c-14.2-2.5-29.3-11.7-41-26.5
							c-11.7-14.9-17.8-32.3-17.8-47.8C501.5,1411.7,516.5,1420.9,528.2,1435.7z"/>
					</g>
					<g>
						<path class="st3" d="M517.2,1485.8c15.5,8.6,27.6,22.7,34.1,37.9c-12.4,4.9-28.2,3.6-43.7-4.9c-15.5-8.6-27.6-22.6-34.1-37.9
							C485.8,1476,501.6,1477.3,517.2,1485.8z"/>
					</g>
					<g>
						<path class="st3" d="M545,1568.3c6.7,3.1,12.2,8.7,15.3,14.9c-5,2.5-11.6,2.5-18.3-0.6c-6.7-3.1-12.2-8.7-15.3-14.9
							C531.7,1565.2,538.3,1565.2,545,1568.3z"/>
					</g>
					<g>
						<path class="st3" d="M553.4,1599.1c6.7,3.1,12.2,8.7,15.3,14.9c-5,2.5-11.6,2.5-18.3-0.6c-6.7-3.1-12.2-8.7-15.3-14.9
							C540.1,1595.9,546.7,1596,553.4,1599.1z"/>
					</g>
					<g>
						<path class="st3" d="M566.1,1469.6c11-7.9,24.6-9.3,37.3-5.1c-0.6,13.7-6.6,26.5-17.6,34.3c-11,7.9-24.6,9.3-37.3,5.1
							C549.2,1490.2,555.2,1477.5,566.1,1469.6z"/>
					</g>
					<g>
						<path class="st3" d="M573.4,1516.5c11-7.9,24.6-9.3,37.3-5.1c-0.6,13.7-6.6,26.5-17.6,34.3c-11,7.9-24.6,9.3-37.3,5.1
							C556.5,1537.1,562.5,1524.4,573.4,1516.5z"/>
					</g>
					<g>
						<path class="st3" d="M578.2,1584.2c7.1-5.1,16-6,24.3-3.3c-0.4,8.9-4.3,17.2-11.4,22.4c-7.1,5.1-16,6-24.3,3.3
							C567.2,1597.7,571.1,1589.4,578.2,1584.2z"/>
					</g>
				</g>
			</g>
			<path class="st3" d="M715.4,1873.4c0,0-100.1-128.6-142-148.2c-44.6-21-5.9,51.7-5.9,51.7s-95.4-93.7-117.8-70.3
				c-22.4,23.4,1.5,45.3,1.5,45.3s-79.9-14.8-91.5,15.1c-17.9,46,113.4,68.8,113.4,68.8s-62.9-13.8-50.3,14.7
				C441.8,1893.4,715.4,1873.4,715.4,1873.4z"/>
			<path class="st2" d="M359.7,1767c11.6-29.9,91.5-15.1,91.5-15.1s-23.9-21.9-1.5-45.3c22.4-23.4,97,31.8,97,31.8
				s-11.6-50.8,44.5-10.8c40.1,28.5,117.4,134.9,117.4,134.9L359.7,1767z"/>
			<g>
				<g>
					<path class="st3" d="M641.8,1871.5c0,0,159.5,11.3,190.6-17.3c31.1-28.6,0.2-80.3,0.2-80.3s54.8-43.3,53.9-71.5
						c-0.9-28.3-36.5-13.9-36.5-13.9s60.5-77.8,46.1-92.6c-26.7-27.6-96.6,53.3-96.6,53.3s20.7-38.5-1.1-44.6
						c-33-9.2-57.3,85.7-57.3,85.7s6.2-37.5-16.6-32.5C683.7,1666.7,641.8,1871.5,641.8,1871.5z"/>
				</g>
			</g>
			<path class="st3" d="M2267.3,1431.7l12.9-31.2c10-23,35.6-33.9,57.1-24.5l0,0c54.3,23.8,77.9,90,52.7,147.9l-18.4,42.3
				c-8.1,18.5-5.3,38.9,5.6,53.3c9.9,13.1,11.5,31.2,4.6,47l-9.7,22.3c-10.5,24.2-31,42-55.2,49.4c-14.2,4.3-26.7,15-33.3,30.2
				l-13.7,31.6c-15.2,34.9-54.1,51.6-86.8,37.3l-18.7-8.2c-32.8-14.4-47-54.3-31.8-89.2l0,0c24.6-41.8,22.6-72.9,13.9-94.1
				c-12.8-31.1-12.7-66.9,1.2-98.7l1.9-4.5c14.6-33.6,42.8-58.7,76.5-69.4C2240.8,1468.4,2256.3,1456.8,2267.3,1431.7z"/>
			<path class="st2" d="M2033.2,1870.4c26.4-34.3,172.8-216.4,267-247c104-33.8,6,100.4,6,100.4s184.5-202.5,252.2-184.2
				c62.1,16.7,0,142.2,0,142.2s69.9-69.5,154.7-69.5c82.5,0-62,250.2-69.5,263.3l-402-0.8L2033.2,1870.4z"/>
			<g>
				<g>
					<path class="st1" d="M2591.5,1479.5c-75.4,118.1-130.3,255.2-161.8,394.7l-7.5-0.1c31.3-136.5,88.2-274.7,163.4-392.7
						c17.5-27.4,36.4-60,69.1-70.7c0.6-0.2,0.9,0.8,0.3,1C2625.2,1423,2607.8,1453.8,2591.5,1479.5z"/>
				</g>
				<g>
					<path class="st1" d="M2446.8,1874.4c84.2-115,187.6-222.4,309.4-314.8c1.2-0.9,2.9,1.2,1.6,2.1
						c-115.5,89.1-217.3,193.8-303.3,312.7L2446.8,1874.4z"/>
				</g>
				<path class="st1" d="M2598.4,1406.2c1.9,2.9,9.4,10.3,11.6,20.1c2.9,9.3,0.6,21,0.4,20.6c-0.6,0.2,8.6-7.5,11.5-19.9
					c3.7-11.8,1.1-28.3-3.5-33.7c-8-12.3-21.9-13.6-24.6-7.6C2590.8,1391.6,2594.4,1399.7,2598.4,1406.2z"/>
				<path class="st1" d="M2616.4,1511.7c-2.8-2-10.1-9.6-19.8-12c-9.2-3.1-20.9-1-20.5-0.8c-0.2,0.6,7.7-8.5,20-11.1
					c11.9-3.5,28.2-0.6,33.5,4.2c12.1,8.2,13.1,22.2,7.1,24.8C2630.8,1519.5,2622.8,1515.7,2616.4,1511.7z"/>
				<path class="st1" d="M2589.2,1557.9c-2.8-2-10.1-9.6-19.8-12c-9.2-3.1-20.9-1-20.5-0.8c-0.2,0.6,7.7-8.5,20-11.1
					c11.9-3.5,28.2-0.6,33.5,4.2c12.1,8.2,13.1,22.2,7.1,24.8C2603.6,1565.8,2595.6,1561.9,2589.2,1557.9z"/>
				<path class="st1" d="M2686.3,1665.1c-2.8-2-10.1-9.6-19.8-12c-9.2-3.1-20.9-1-20.5-0.8c-0.2,0.6,7.7-8.5,20-11.1
					c11.9-3.5,28.2-0.6,33.5,4.2c12.1,8.2,13.1,22.2,7.1,24.8C2700.6,1673,2692.7,1669.2,2686.3,1665.1z"/>
				<path class="st1" d="M2735.9,1621.3c-2.8-2-10.1-9.6-19.8-12c-9.2-3.1-20.9-1-20.5-0.8c-0.2,0.6,7.7-8.5,20-11.1
					c11.9-3.5,28.2-0.6,33.5,4.2c12.1,8.2,13.1,22.2,7.1,24.8C2750.2,1629.1,2742.3,1625.3,2735.9,1621.3z"/>
				<path class="st1" d="M2560.3,1458.5c2.4,2.5,10.9,8.7,14.6,18.1c4.4,8.7,3.9,20.6,3.6,20.2c-0.5,0.3,7.3-8.8,8.2-21.5
					c1.8-12.3-3.3-28.1-8.8-32.8c-9.8-10.9-23.7-9.9-25.4-3.6C2550.5,1445.3,2555.4,1452.7,2560.3,1458.5z"/>
				<path class="st1" d="M2520.2,1510.9c3.4,1.8,15.1,5,21.1,13.9c6.7,7.9,7.5,21.3,7.1,21c-0.6,0.6,8.4-13,8-27.5
					c0.8-14.5-7.7-29.9-15.3-32.8c-14-7.9-31.9-0.9-33.4,6.9C2506,1500.4,2513.2,1506.6,2520.2,1510.9z"/>
				<path class="st1" d="M2478.1,1590.3c3.6,1.2,15.8,2.4,23.1,10.1c7.9,6.6,11,19.7,10.5,19.5c-0.5,0.7,6.1-14.2,3.3-28.4
					c-1.6-14.4-12.6-28.2-20.6-29.7c-15.1-5.5-31.6,4.5-31.7,12.5C2462.3,1582.3,2470.5,1587.2,2478.1,1590.3z"/>
				<path class="st1" d="M2602.8,1645.6c2.6,1.7,12,5,16.3,12.5c5,6.8,4.9,17.8,4.6,17.5c-0.5,0.4,7.6-10.1,8.1-21.9
					c1.5-11.7-4.6-24.8-10.6-27.5c-10.9-7.3-25.9-2.5-27.5,3.7C2591.8,1636.3,2597.3,1641.7,2602.8,1645.6z"/>
				<path class="st1" d="M2667.7,1424.8c-1.6-1.3-5.6-6.1-11.2-8c-5.3-2.3-12.3-1.5-12.1-1.4c-0.2,0.3,4.9-4.7,12.3-5.7
					c7.2-1.5,16.7,0.9,19.7,3.9c6.8,5.4,6.8,13.7,3.1,15C2675.8,1430.1,2671.3,1427.5,2667.7,1424.8z"/>
				<path class="st1" d="M2652.6,1391.1c0.1,2.1,1.4,8.2-0.6,13.8c-1.5,5.6-6.3,10.7-6.3,10.4c-0.4-0.1,6.7-1,12-6.3
					c5.6-4.8,9.5-13.8,8.9-18c-0.1-8.7-6.7-13.7-9.9-11.6C2653.4,1381.4,2652.7,1386.6,2652.6,1391.1z"/>
				<path class="st1" d="M2771.6,1576.6c-1.6-1.3-5.6-6.1-11.2-8c-5.3-2.3-12.3-1.5-12.1-1.4c-0.2,0.3,4.9-4.7,12.3-5.7
					c7.2-1.5,16.7,0.9,19.7,3.9c6.8,5.4,6.8,13.7,3.1,15C2779.7,1581.9,2775.2,1579.3,2771.6,1576.6z"/>
				<path class="st1" d="M2753.3,1542.6c0.2,2,2.1,8,0.6,13.8c-1,5.7-5.4,11.2-5.4,10.9c-0.4,0,6.6-1.6,11.5-7.3
					c5.2-5.2,8.3-14.6,7.4-18.7c-0.8-8.7-7.8-13.1-10.8-10.8C2753.4,1532.8,2753.1,1538.1,2753.3,1542.6z"/>
			</g>
			<g>
				<path class="st1" d="M2669.7,1738.3c0.5,3.2,3.8,12.4,1.8,21.5c-1.2,9-7.7,17.8-7.8,17.4c-0.6,0,10.2-2.9,17.4-12.1
					c7.8-8.5,12.1-23.3,10.3-29.7c-1.8-13.5-13-20-17.6-16.1C2669.1,1723.1,2669,1731.3,2669.7,1738.3z"/>
				<path class="st1" d="M2601.9,1762.7c0.5,3.2,3.8,12.4,1.8,21.5c-1.2,9-7.7,17.8-7.8,17.4c-0.6,0,10.2-2.9,17.4-12.1
					c7.8-8.5,12.1-23.3,10.3-29.7c-1.8-13.5-13-20-17.6-16.1C2601.3,1747.5,2601.2,1755.7,2601.9,1762.7z"/>
				<path class="st1" d="M2533,1793.5c0.5,3.2,3.8,12.4,1.8,21.5c-1.2,9-7.7,17.8-7.8,17.4c-0.6,0,10.2-2.9,17.4-12.1
					c7.8-8.5,12.1-23.3,10.3-29.7c-1.8-13.5-13-20-17.6-16.1C2532.4,1778.3,2532.2,1786.5,2533,1793.5z"/>
				<path class="st1" d="M2689.9,1801.9c-1.4-2.6-4.1-11.2-10.6-16.8c-5.9-5.9-15.6-8.8-15.4-8.5c-0.4,0.3,9.1-3.5,19.6-0.8
					c10.4,1.9,21.8,10.4,24.1,16.1c6.1,10.9,1.6,22-4,21.7C2698,1813.4,2693.3,1807.5,2689.9,1801.9z"/>
				<path class="st1" d="M2619.4,1826.9c-1.4-2.6-4.1-11.2-10.6-16.8c-5.9-5.9-15.6-8.8-15.4-8.5c-0.4,0.3,9.1-3.5,19.6-0.8
					c10.4,1.9,21.8,10.4,24.1,16.1c6.1,10.9,1.6,22-4,21.7C2627.4,1838.5,2622.8,1832.5,2619.4,1826.9z"/>
				<path class="st1" d="M2743.7,1776.1c-1.2-1.5-4-6.5-8.9-9.1c-4.5-2.9-11-3.5-10.8-3.3c-0.2,0.3,5.3-3.4,12.2-3.1
					c6.8-0.2,15.1,3.6,17.3,6.9c5.3,6.1,3.9,13.6,0.3,14.2C2750.2,1782.3,2746.5,1779.1,2743.7,1776.1z"/>
				<path class="st1" d="M2735.5,1742.8c-0.3,1.9-0.1,7.7-2.8,12.5c-2.3,4.9-7.5,8.7-7.5,8.4c-0.3-0.1,6.3,0.2,12-3.8
					c5.9-3.4,10.9-11,11.1-14.9c1.4-7.9-3.8-13.6-7.1-12.2C2737.9,1734.1,2736.4,1738.7,2735.5,1742.8z"/>
				<path class="st1" d="M2739,1761.6c-21.7,2-43.2,6-64.3,11.5c-38.5,10.1-75.5,25.1-111.9,40.9c-17.9,7.8-35.9,15.5-53.5,24.1
					c-8.2,4-16.5,8-24,13.1c-10.2,6.9-26.1,20.8-28,22.9l8.4,0.2c5.7-4.7,26.7-22.4,55.8-36.4c69-33.2,140.7-67.3,217.7-75.8
					C2739.5,1762.2,2739.4,1761.6,2739,1761.6z"/>
			</g>
		</g>
		<g>
			<path class="st4" d="M887.5,1875.9l-0.8-1022.6c0-19.5,15.8-35.4,35.4-35.4l1283.3-1.1c19.5,0,35.4,15.8,35.4,35.4l0.8,1022.6
				L887.5,1875.9z"/>
			<polygon class="st5" points="2222.2,1855.4 906.9,1856.5 908.1,916.7 2223.4,915.6 			"/>
			<path class="st6" d="M1568,1008.6l-563,0.5c-11.6,0-20.9-9.3-20.9-20.9l0,0c0-11.6,9.3-20.9,20.9-20.9l563-0.5
				c11.6,0,20.9,9.3,20.9,20.9l0,0C1589,999.3,1579.6,1008.6,1568,1008.6z"/>
			<path class="st6" d="M1444.7,1069.8l-439.6,0.4c-11.6,0-20.9-9.3-20.9-20.9l0,0c0-11.6,9.3-20.9,20.9-20.9l439.6-0.4
				c11.6,0,20.9,9.3,20.9,20.9l0,0C1465.6,1060.4,1456.2,1069.8,1444.7,1069.8z"/>
			<path class="st6" d="M1194,1131l-188.8,0.2c-11.6,0-20.9-9.3-20.9-20.9l0,0c0-11.6,9.4-20.9,20.9-20.9l188.8-0.2
				c11.6,0,20.9,9.3,20.9,20.9l0,0C1214.9,1121.7,1205.5,1131,1194,1131z"/>
			<path class="st6" d="M1352.7,1192l-347.6,0.3c-11.6,0-20.9-9.4-20.9-20.9l0,0c0-11.6,9.3-20.9,20.9-20.9l347.6-0.3
				c11.6,0,20.9,9.3,20.9,20.9l0,0C1373.7,1182.6,1364.3,1192,1352.7,1192z"/>
			<path class="st6" d="M1517.5,1191.8l-103.7,0.1c-11.6,0-20.9-9.3-20.9-20.9l0,0c0-11.6,9.3-20.9,20.9-20.9l103.7-0.1
				c11.6,0,20.9,9.3,20.9,20.9l0,0C1538.5,1182.4,1529.1,1191.8,1517.5,1191.8z"/>
			<path class="st6" d="M1680.4,1191.7l-103.7,0.1c-11.6,0-20.9-9.3-20.9-20.9l0,0c0-11.6,9.3-20.9,20.9-20.9l103.7-0.1
				c11.6,0,20.9,9.3,20.9,20.9l0,0C1701.3,1182.3,1691.9,1191.7,1680.4,1191.7z"/>
			<path class="st6" d="M1612.5,1069.7l-103.7,0.1c-11.6,0-20.9-9.3-20.9-20.9l0,0c0-11.6,9.3-20.9,20.9-20.9l103.7-0.1
				c11.6,0,20.9,9.3,20.9,20.9l0,0C1633.4,1060.3,1624.1,1069.6,1612.5,1069.7z"/>
			<path class="st6" d="M1775.7,1069.5l-103.7,0.1c-11.6,0-20.9-9.3-20.9-20.9l0,0c0-11.6,9.3-20.9,20.9-20.9l103.7-0.1
				c11.6,0,20.9,9.3,20.9,20.9l0,0C1796.6,1060.1,1787.2,1069.5,1775.7,1069.5z"/>
			<path class="st6" d="M1941.7,1069.4l-103.7,0.1c-11.6,0-20.9-9.3-20.9-20.9l0,0c0-11.6,9.3-20.9,20.9-20.9l103.7-0.1
				c11.6,0,20.9,9.3,20.9,20.9l0,0C1962.6,1060,1953.2,1069.4,1941.7,1069.4z"/>
			<path class="st6" d="M1839.4,1191.6l-103.7,0.1c-11.6,0-20.9-9.3-20.9-20.9l0,0c0-11.6,9.3-20.9,20.9-20.9l103.7-0.1
				c11.6,0,20.9,9.3,20.9,20.9l0,0C1860.3,1182.2,1851,1191.6,1839.4,1191.6z"/>
			<path class="st6" d="M1998.4,1191.4l-103.7,0.1c-11.6,0-20.9-9.3-20.9-20.9l0,0c0-11.6,9.3-20.9,20.9-20.9l103.7-0.1
				c11.6,0,20.9,9.3,20.9,20.9l0,0C2019.3,1182,2009.9,1191.4,1998.4,1191.4z"/>
			<path class="st6" d="M1887.5,1252.6l-882.3,0.7c-11.6,0-20.9-9.3-20.9-20.9l0,0c0-11.6,9.3-20.9,20.9-20.9l882.3-0.7
				c11.6,0,20.9,9.3,20.9,20.9l0,0C1908.5,1243.2,1899.1,1252.6,1887.5,1252.6z"/>
			<path class="st6" d="M1498.6,1313.9l-493.3,0.4c-11.6,0-20.9-9.3-20.9-20.9l0,0c0-11.6,9.3-20.9,20.9-20.9l493.3-0.4
				c11.6,0,20.9,9.3,20.9,20.9l0,0C1519.5,1304.5,1510.1,1313.9,1498.6,1313.9z"/>
			<path class="st6" d="M1424.9,1375l-419.5,0.3c-11.6,0-20.9-9.3-20.9-20.9l0,0c0-11.6,9.3-20.9,20.9-20.9l419.5-0.3
				c11.6,0,20.9,9.3,20.9,20.9l0,0C1445.8,1365.7,1436.4,1375,1424.9,1375z"/>
			<path class="st6" d="M1747.4,1374.8l-266.7,0.2c-11.6,0-20.9-9.3-20.9-20.9l0,0c0-11.6,9.3-20.9,20.9-20.9l266.7-0.2
				c11.6,0,20.9,9.3,20.9,20.9l0,0C1768.4,1365.4,1759,1374.8,1747.4,1374.8z"/>
			<path class="st6" d="M2070,1374.5l-266.7,0.2c-11.6,0-20.9-9.3-20.9-20.9l0,0c0-11.6,9.3-20.9,20.9-20.9l266.7-0.2
				c11.6,0,20.9,9.3,20.9,20.9l0,0C2090.9,1365.1,2081.6,1374.5,2070,1374.5z"/>
			<path class="st6" d="M1678.2,1435.9l-672.8,0.6c-11.6,0-20.9-9.3-20.9-20.9l0,0c0-11.6,9.3-20.9,20.9-20.9l672.8-0.6
				c11.6,0,20.9,9.3,20.9,20.9l0,0C1699.1,1426.5,1689.8,1435.9,1678.2,1435.9z"/>
			<path class="st6" d="M1918,1435.7l-182.1,0.1c-11.6,0-20.9-9.3-20.9-20.9l0,0c0-11.6,9.3-20.9,20.9-20.9l182.1-0.1
				c11.6,0,20.9,9.3,20.9,20.9l0,0C1938.9,1426.3,1929.6,1435.7,1918,1435.7z"/>
			<path class="st6" d="M1545.9,1497l-540.5,0.4c-11.6,0-20.9-9.3-20.9-20.9l0,0c0-11.6,9.4-20.9,20.9-20.9l540.5-0.4
				c11.6,0,20.9,9.3,20.9,20.9l0,0C1566.8,1487.6,1557.5,1497,1545.9,1497z"/>
			<path class="st6" d="M1733,1496.9l-129.3,0.1c-11.6,0-20.9-9.3-20.9-20.9l0,0c0-11.6,9.3-20.9,20.9-20.9l129.3-0.1
				c11.6,0,20.9,9.3,20.9,20.9l0,0C1753.9,1487.5,1744.6,1496.9,1733,1496.9z"/>
			<path class="st6" d="M1298.4,1558.3l-292.9,0.2c-11.6,0-20.9-9.3-20.9-20.9l0,0c0-11.6,9.3-20.9,20.9-20.9l292.9-0.2
				c11.6,0,20.9,9.3,20.9,20.9l0,0C1319.3,1548.9,1310,1558.3,1298.4,1558.3z"/>
			<path class="st6" d="M1185.2,1619.4l-179.7,0.1c-11.6,0-20.9-9.3-20.9-20.9l0,0c0-11.6,9.3-20.9,20.9-20.9l179.7-0.1
				c11.6,0,20.9,9.3,20.9,20.9l0,0C1206.2,1610,1196.8,1619.4,1185.2,1619.4z"/>
			<path class="st6" d="M1347.7,1619.3l-102.3,0.1c-11.6,0-20.9-9.3-20.9-20.9l0,0c0-11.6,9.3-20.9,20.9-20.9l102.3-0.1
				c11.6,0,20.9,9.3,20.9,20.9v0C1368.6,1609.9,1359.3,1619.3,1347.7,1619.3z"/>
			<path class="st6" d="M1508.1,1619.1l-102.3,0.1c-11.6,0-20.9-9.3-20.9-20.9l0,0c0-11.6,9.3-20.9,20.9-20.9l102.3-0.1
				c11.6,0,20.9,9.3,20.9,20.9l0,0C1529,1609.8,1519.6,1619.1,1508.1,1619.1z"/>
			<path class="st6" d="M1669.8,1619l-102.3,0.1c-11.6,0-20.9-9.3-20.9-20.9l0,0c0-11.6,9.3-20.9,20.9-20.9l102.3-0.1
				c11.6,0,20.9,9.3,20.9,20.9l0,0C1690.7,1609.6,1681.4,1619,1669.8,1619z"/>
			<path class="st6" d="M1488.9,1680.2l-483.3,0.4c-11.6,0-20.9-9.3-20.9-20.9l0,0c0-11.6,9.4-20.9,20.9-20.9l483.3-0.4
				c11.6,0,20.9,9.3,20.9,20.9l0,0C1509.8,1670.8,1500.4,1680.2,1488.9,1680.2z"/>
			<path class="st6" d="M1712.1,1680l-166.3,0.1c-11.6,0-20.9-9.3-20.9-20.9l0,0c0-11.6,9.3-20.9,20.9-20.9l166.3-0.1
				c11.6,0,20.9,9.3,20.9,20.9l0,0C1733,1670.6,1723.6,1680,1712.1,1680z"/>
			<path class="st6" d="M1932.9,1679.8l-166.3,0.1c-11.6,0-20.9-9.3-20.9-20.9l0,0c0-11.6,9.3-20.9,20.9-20.9l166.3-0.1
				c11.6,0,20.9,9.3,20.9,20.9l0,0C1953.8,1670.5,1944.5,1679.8,1932.9,1679.8z"/>
			<path class="st6" d="M1264.8,1741.4l-259.2,0.2c-11.6,0-20.9-9.3-20.9-20.9l0,0c0-11.6,9.3-20.9,20.9-20.9l259.2-0.2
				c11.6,0,20.9,9.3,20.9,20.9l0,0C1285.7,1732.1,1276.4,1741.4,1264.8,1741.4z"/>
			<path class="st6" d="M1425.2,1741.3l-102.1,0.1c-11.6,0-20.9-9.3-20.9-20.9l0,0c0-11.6,9.3-20.9,20.9-20.9l102.1-0.1
				c11.6,0,20.9,9.3,20.9,20.9l0,0C1446.1,1731.9,1436.7,1741.3,1425.2,1741.3z"/>
			<path class="st6" d="M1583.2,1741.2l-102.1,0.1c-11.6,0-20.9-9.3-20.9-20.9l0,0c0-11.6,9.3-20.9,20.9-20.9l102.1-0.1
				c11.6,0,20.9,9.3,20.9,20.9l0,0C1604.1,1731.8,1594.7,1741.2,1583.2,1741.2z"/>
			<path class="st7" d="M2072.7,889.3L2072.7,889.3c-6.3,0-11.5-5.1-11.5-11.4l0,0c0-6.3,5.1-11.5,11.4-11.5l0,0
				c6.3,0,11.5,5.1,11.5,11.4l0,0C2084.1,884.1,2079,889.3,2072.7,889.3z"/>
			<path class="st7" d="M2128.1,889.2L2128.1,889.2c-10.4,0-18.9-8.4-18.9-18.9l0,0c0-10.4,8.4-18.9,18.9-18.9l0,0
				c10.4,0,18.9,8.4,18.9,18.9l0,0C2147,880.7,2138.6,889.2,2128.1,889.2z"/>
			<path class="st8" d="M2192.2,889.2L2192.2,889.2c-12.6,0-22.9-10.2-22.9-22.9l0,0c0-12.6,10.2-22.9,22.9-22.9l0,0
				c12.6,0,22.9,10.2,22.9,22.9l0,0C2215.1,878.9,2204.8,889.1,2192.2,889.2z"/>
		</g>
		<g>
			<polygon class="st9" points="707.3,1886.5 686.6,1886.5 763.7,1485.6 780.9,1488.9 			"/>
			<polygon class="st9" points="1278.1,1884.7 1295.3,1881.4 1221,1485.6 1203.7,1488.9 			"/>
			<polygon class="st9" points="1086.3,1886.5 1065.6,1886.5 1142.7,1485.6 1160,1488.9 			"/>
			<polygon class="st9" points="895.9,1886.5 912.7,1886.7 838.8,1487.4 821.5,1490.7 			"/>
			<path class="st10" d="M971,945.8c-68.2,7.3-156.4,15-244.9,165.8c-96.8,164.8-45.8,410.9,30.5,479.3
				c76.4,68.4,325.8,152.9,535.5,26.4c0,0,126.6-76.6,61.6-203.8c-100-195.7-85.9-236.5-130.6-313.2
				C1178.5,1023.7,1115.7,930.2,971,945.8z"/>
			<path class="st11" d="M726.1,1111.6c60.4-102.9,120.7-139.2,174.6-154.1c-20.8,21.6-41.9,49.5-63.1,85.4
				c-96.8,164.8-45.8,410.9,30.5,479.3c67.7,60.7,271.6,133.9,463.1,61.6c-19.7,21.9-39,33.6-39,33.6
				c-209.7,126.4-459.2,42-535.5-26.4C680.3,1522.5,629.3,1276.4,726.1,1111.6z"/>
			<g>
				<polygon class="st12" points="1189.8,1196.2 1207.3,1249 1153.9,1227.9 				"/>
				<path class="st8" d="M1134.8,1039.3c3.6,0.1,13.3,3.4,27.6,30.4c18.2,34.4,44.8,138.4,44.8,138.4l-79.5,29.6l-10.2-21.7
					l-16.8-167.1C1100.7,1048.9,1133.8,1039.3,1134.8,1039.3z"/>
				<path class="st13" d="M1029.7,1024.3c22.7,0,78.9,6.7,105,15c0,0,19.2,164.7-17.3,289.9c-8.2,28,6.7,116.2,6.7,116.2l-235.4-3.1
					c0,0,27.9-213.1,17.4-247.5c-10.5-34.4-10.8-154.4-10.8-154.4s1.6-0.3,52.9-9.1C972.3,1027.2,1005.5,1024.3,1029.7,1024.3z"/>
				<path class="st14" d="M1002.3,1751.2c0,0,5.2,60.1,14.8,76.8c9.6,16.6-0.5,44.9-1,48.8c-0.5,3.9-20.2,9.4-51.4,6.1
					c-31.2-3.3-30.7-10.5-28.2-22.2c2.5-11.7,19.2-26.6,20.2-37.7c1-11.1-9.6-51.1-9.6-51.1L1002.3,1751.2z"/>
				<path class="st15" d="M1097.7,1395.8c0,0,162.5-9,198.8,13c36.3,22-6.6,67.1-6.6,67.1s-132.3,57.5-353.8,70.3
					c-52.5,3-57-136.8-47.2-148.3C898.8,1386.3,1097.7,1395.8,1097.7,1395.8z"/>
				<path class="st16" d="M960.8,1887.5c-32.2-3.4-28.2-19.2-25.6-31.2c1.6-7.5,10.9-16.4,16.4-24.7c2.9,2.3,7.6,6.3,21.5,10.5
					c14.5,4.3,34.4-4.2,47.1-9.5c4.5,16.8,4.7,38.3,4.3,41.5C1023.9,1878,993,1891,960.8,1887.5z"/>
				<path class="st1" d="M978.5,1512.1c6.5,49.1,38.6,293.7,38.6,293.7l-74.6,9.2c0,0-91.7-319.3-87-368.1c4.7-48.8,39-52.9,39-52.9
					S961.4,1382,978.5,1512.1z"/>
				<path class="st14" d="M892.9,1058.7c22-8.3,32.8,190.1,35.7,271.7c39,3.8,106.9,0,123.8-1.2c8-0.6,26.3-7.3,34.2-8.4
					c8.1-1.1,15.5-1.6,19.4-0.9c1.5,0.3,42.1,16.9,45.6,20.5c4.3,4.5,16,15.9,14,20.8c-2,4.9-22.4-13.7-22.4-13.7l-10-5.6
					c12.4,12.2,36.2,28.2,32.7,34c-3.3,5.7-24.7-10.6-40-21.6c13.1,11.8,29.3,33,25.6,36.3c-3.4,3-21.9-21.5-41.6-28.6
					c-7.3-2.6-14.6,4.6-20.4,5.5c-4.2,0.6-10.8,2-14.9,0.8l-21.4-6.1c-7.3,0.7-7.5,5-14.8,6.5c-8.5,1.8-22.6,3.7-33.4,6.4
					c-62.7,15.3-83.6,22.4-102.7,22.4C844.2,1397.6,840.9,1078.2,892.9,1058.7z"/>
				<path class="st8" d="M851.1,1244.9c-4.1-83.6-3.5-186.7,43.4-204.3c18.5-6.9,51.1,34.8,45.2,206
					C914.7,1248.7,878,1250.4,851.1,1244.9z"/>
				<polygon class="st12" points="1113.4,1209 1108.6,1209 1036.8,1385.5 1041.7,1384.8 				"/>
				<path class="st14" d="M1220.4,1802.6c0,0-6.5,20.9,5.1,34.7c11.7,13.8,60.1,27.3,66.4,34.8c6.4,7.5,5.9,13.8,5.9,13.8
					l-135.9-3.7l1.5-41l6.3-29.5L1220.4,1802.6z"/>
				<path class="st16" d="M1234,1844.1c0,0-34.9,14.1-51.8,5.8c-16.9-8.4-16.4-10.7-21.2-7.6c-4.9,3.1-6.6,41.6-6.6,41.6l152.8,4.5
					c10.6-0.2,16-8.1,7.4-14.8c-5.9-4.6-12.8-7.7-16.7-9.9C1286,1856.9,1234,1844.1,1234,1844.1z"/>
				<path class="st1" d="M1215.3,1434.3c10.5-22.1,34.4-50.9,76.4-33.6c40.1,16.5,50.9,57.2,38.2,98.8
					c-12.7,41.6-95.9,286.2-98.8,319.9l-66.5,0.4c0,0,12.1-193.7,15.1-240.5C1182.5,1534.3,1197.1,1472.6,1215.3,1434.3z"/>
				<path d="M1323.2,1209H1101c-5.9,0-11.2,3.6-13.4,9l-68.4,167.5H896.6c-3.4,0-6.2,2.8-6.2,6.2l0,0c0,3.4,2.8,6.2,6.2,6.2h348.8
					c9.6,0,18.3-5.6,22.2-14.4l68.9-154C1340.8,1219.9,1333.8,1209,1323.2,1209z"/>
				<path class="st5" d="M1203.6,1306.5c-1.5,7.5-8,12.6-14.6,11.2c-6.6-1.3-10.7-8.5-9.2-16c1.5-7.5,8-12.6,14.6-11.2
					C1201,1291.8,1205.1,1299,1203.6,1306.5z"/>
				<g>
					<path class="st9" d="M1082.6,823.1c-6.7-2.3-13.3-4.8-19.7-7.9c-7.2-3.5-16.5-7.5-22.4-8.4c-12.4-1.9-33.7-0.6-45.5,12.1
						c-14.7,15.9-40.7,2.9-35.5,86.2c5.9,94.3,58.4,83.9,59.6,82.3c1.3-1.6,46.8-60.3,46.8-60.3s15.9,34.8,15.9,33.5
						C1081.8,959.4,1163,850.2,1082.6,823.1z"/>
					<path class="st14" d="M1042.8,994.4l4.5,33.7c0,0,10.1,48.5-2.9,57.9c-13,9.4-55.5-59.3-55.5-59.3l4.5-85.4L1042.8,994.4z"/>
					<path class="st13" d="M992,969c10.8,29.1,36.4,47,54.7,54l-3.8-28.6l-49.4-53.1L992,969z"/>
					<path class="st14" d="M1040.1,848.4c27.6-4.5,52.4,17.8,51.7,45.4c-0.3,12-1.3,27-3.8,43.2c-6,38.9-32.5,73.1-50.1,70.1
						c-17.5-3.1-61.7-36.6-53.9-92C988.8,881,1011.1,853.1,1040.1,848.4z"/>
					<path class="st14" d="M996.2,921.8c-1.5,8.6-8.3,14.5-15.3,13.3c-7-1.2-11.4-9.1-9.9-17.7c1.5-8.6,8.3-14.5,15.3-13.3
						C993.2,905.3,997.7,913.3,996.2,921.8z"/>
					<path class="st9" d="M986.3,904.1c0,0,21.2,5.3,29.1-8.4c7.9-13.6,36-43.1,71.8-30.9c35.8,12.2-31.5-29.7-34.4-29.7
						s-37.2-0.2-37.2-0.2s-26.5,21.8-27.4,24.2c-1,2.4-8.6,28.5-8.6,28.5L986.3,904.1z"/>
				</g>
				<path class="st5" d="M1025.1,961l38.6,7.4c0,0-3.7,14.5-20.8,11.8C1022.1,976.9,1025.1,961,1025.1,961z"/>
			</g>
		</g>
		<g>
			<path class="st13" d="M1722.9,354.6H2094c20.2,0,36.6,16.3,36.6,36.3v151.1c0,20.1-16.4,36.3-36.6,36.3h-283l-56.5,41.3
				l11.4-41.3h-42.9c-20.2,0-36.6-16.3-36.6-36.3V391C1686.3,370.9,1702.7,354.6,1722.9,354.6z"/>
			<g>
				<g>
					<path class="st11" d="M1822,507.5c-7.3,0-14.5,0-21.8,0V474h-25.7v33.4c-7.3,0-14.6,0-21.8,0v-83.3c7.1,0,14.5,0,21.8,0v30.2
						h25.7v-30.2c7.3,0,14.5,0,21.8,0V507.5z"/>
					<path class="st11" d="M1835.1,443.2c0-6.4,0-12.7,0-19h61.9c0,6.3,0,12.6,0,19h-20.4v64.3c-7,0-14,0-21.1,0v-64.3H1835.1z"/>
					<path class="st11" d="M1983.8,423.9h7.6v83.6c-7.3,0-14.5,0-21.8,0v-37.1l-17.7,18.6h-2.4l-17.6-18.6v37.1
						c-7.3,0-14.5,0-21.8,0v-83.6h7.9l32.6,36.2L1983.8,423.9z"/>
					<path class="st11" d="M2033.9,488.3h30.2c0,7.1,0,12,0,19.2c-17.1,0-34.8,0-51.7,0v-83.3c7.1,0,14.2,0,21.4,0
						C2033.9,467.2,2033.9,452.8,2033.9,488.3z"/>
				</g>
			</g>
		</g>
		<g>
			<path class="st11" d="M1572.4,514.8h-359.1c-18.5,0-33.4,14.9-33.4,33.2v157.1c0,18.4,15,33.2,33.4,33.2h62.2l-19.7,48l63.6-48
				h253c18.5,0,33.4-14.9,33.4-33.2V548C1605.9,529.7,1590.9,514.8,1572.4,514.8z"/>
			<g>
				<g>
					<path class="st13" d="M1268.2,669.9c0-28.8,0-57.6,0-86.6c12.5,0,25.4,0,38.1,0c41.4,0.1,41.4,64.4,0,64.4h-16v22.1
						C1282.9,669.9,1275.5,669.9,1268.2,669.9z M1306.2,603.1c-5.2-0.1-10.8,0-15.8,0c0,7.1,0,17.7,0,24.7h15.8
						C1318.3,627.8,1319.1,603.2,1306.2,603.1z"/>
					<path class="st13" d="M1426.2,669.9c-7.5,0-15.1,0-22.6,0v-34.8h-26.7v34.8c-7.5,0-15.2,0-22.6,0v-86.6c7.4,0,15.1,0,22.6,0
						v31.4h26.7v-31.4c7.5,0,15.1,0,22.6,0V669.9z"/>
					<path class="st13" d="M1448.3,669.9c0-28.8,0-57.6,0-86.6c12.5,0,25.4,0,38.1,0c41.4,0.1,41.4,64.4,0,64.4h-16v22.1
						C1463.1,669.9,1455.6,669.9,1448.3,669.9z M1486.3,603.1c-5.2-0.1-10.8,0-15.8,0c0,7.1,0,17.7,0,24.7h15.8
						C1498.4,627.8,1499.2,603.2,1486.3,603.1z"/>
				</g>
			</g>
		</g>
	</g>
</g>
</svg>
