<?xml version="1.0" encoding="utf-8"?>
<!-- Generator: Adobe Illustrator 25.0.0, SVG Export Plug-In . SVG Version: 6.00 Build 0)  -->
<svg version="1.1" id="Layer_1" xmlns="http://www.w3.org/2000/svg" xmlns:xlink="http://www.w3.org/1999/xlink" x="0px" y="0px"
	 viewBox="0 0 45 49.4" style="enable-background:new 0 0 45 49.4;" xml:space="preserve">
<style type="text/css">
	.st0{fill:#5B5B5B;}
	.st1{fill:#A94DBC;stroke:#A94DBC;stroke-miterlimit:10;}
</style>
<path class="st0" d="M6.1,0h32.8C42.3,0,45,2.7,45,6.1v37.2c0,3.4-2.7,6.1-6.1,6.1H6.1c-3.4,0-6.1-2.7-6.1-6.1V6.1
	C0,2.7,2.7,0,6.1,0z"/>
<g>
	<path class="st1" d="M2,25.8L15.6,19v2L4.1,26.6v0.1l11.5,5.6v2L2,27.3V25.8z"/>
	<path class="st1" d="M17.5,35.3l8.2-20.7h2l-8.2,20.7H17.5z"/>
	<path class="st1" d="M43.1,27.4l-13.6,6.8v-2L41,26.6v-0.1l-11.5-5.6v-2l13.6,6.8V27.4z"/>
</g>
</svg>
