<?xml version="1.0" encoding="utf-8"?>
<!-- Generator: Adobe Illustrator 25.0.0, SVG Export Plug-In . SVG Version: 6.00 Build 0)  -->
<svg version="1.1" id="Layer_1" xmlns="http://www.w3.org/2000/svg" xmlns:xlink="http://www.w3.org/1999/xlink" x="0px" y="0px"
	 viewBox="0 0 45 49.4" style="enable-background:new 0 0 45 49.4;" xml:space="preserve">
<style type="text/css">
	.st0{fill:#5B5B5B;}
	.st1{fill:#F9A30B;}
</style>
<path class="st0" d="M6.2,0h32.7C42.3,0,45,2.7,45,6.1v37.2c0,3.4-2.7,6.1-6.1,6.1H6.2c-3.4,0-6.1-2.7-6.1-6.1V6.1
	C0.1,2.7,2.8,0,6.2,0z"/>
<g>
	<path class="st1" d="M18.6,39.2c1.1-3,2.5-8.3,3.1-12l5-0.5c-1.2,4.2-3.5,9.8-4.9,12.2L18.6,39.2z M20.8,12.9c0-1.8,1.3-3.2,3-3.2
		c1.8,0,3,1.3,3,3.2c0,1.8-1.2,3.1-3,3.1S20.8,14.6,20.8,12.9z"/>
</g>
</svg>
