<?xml version="1.0" encoding="utf-8"?>
<!-- Generator: Adobe Illustrator 25.0.0, SVG Export Plug-In . SVG Version: 6.00 Build 0)  -->
<svg version="1.1" id="Layer_1" xmlns="http://www.w3.org/2000/svg" xmlns:xlink="http://www.w3.org/1999/xlink" x="0px" y="0px"
	 viewBox="0 0 45 49.4" style="enable-background:new 0 0 45 49.4;" xml:space="preserve">
<style type="text/css">
	.st0{fill:#5B5B5B;}
	.st1{fill:#0980D1;}
</style>
<path class="st0" d="M6.1,0h32.7C42.2,0,45,2.7,45,6.1v37.2c0,3.4-2.7,6.1-6.1,6.1H6.1c-3.4,0-6.1-2.7-6.1-6.1V6.1
	C0,2.7,2.7,0,6.1,0z"/>
<g>
	<path class="st1" d="M9.1,23.3c3.6,0,4.1-2,4.1-3.7c0-1.4-0.2-2.8-0.4-4.2c-0.2-1.4-0.4-2.8-0.4-4.2c0-4.6,3.1-6.6,7.4-6.6h1.1v2.8
		H20c-3,0-4,1.6-4,4.3c0,1.2,0.2,2.4,0.4,3.6c0.2,1.3,0.4,2.5,0.4,3.8c0.1,3.2-1.4,4.8-3.7,5.4v0.1c2.3,0.6,3.7,2.3,3.7,5.5
		c0,1.4-0.2,2.6-0.4,3.8c-0.2,1.3-0.4,2.4-0.4,3.6c0,2.8,1.2,4.4,4,4.4h0.9v2.8h-1.1c-4.2,0-7.4-1.8-7.4-6.9c0-1.4,0.2-2.8,0.4-4.1
		c0.2-1.4,0.4-2.7,0.4-4.1c0-1.6-0.5-3.7-4.1-3.7C9.1,25.9,9.1,23.3,9.1,23.3z"/>
	<path class="st1" d="M35.2,25.9c-3.6,0-4.1,2.2-4.1,3.7c0,1.4,0.2,2.7,0.4,4.1c0.2,1.4,0.4,2.8,0.4,4.1c0,5.1-3.2,6.9-7.4,6.9h-1.1
		v-2.8h0.9c2.9,0,4.1-1.6,4.1-4.4c0-1.2-0.2-2.4-0.4-3.6c-0.2-1.2-0.4-2.5-0.4-3.8c0-3.2,1.4-4.9,3.7-5.5v-0.1
		c-2.2-0.6-3.7-2.2-3.7-5.4c0-1.4,0.2-2.6,0.4-3.8c0.2-1.2,0.4-2.4,0.4-3.6c0-2.7-1.1-4.3-4-4.3h-0.9V4.7h1c4.3,0,7.5,2,7.5,6.6
		c0,1.4-0.2,2.8-0.4,4.2c-0.2,1.4-0.4,2.8-0.4,4.2c0,1.8,0.5,3.7,4.1,3.7L35.2,25.9L35.2,25.9z"/>
</g>
</svg>
