<?xml version="1.0" encoding="utf-8"?>
<!-- Generator: Adobe Illustrator 25.0.0, SVG Export Plug-In . SVG Version: 6.00 Build 0)  -->
<svg version="1.1" id="Layer_1" xmlns="http://www.w3.org/2000/svg" xmlns:xlink="http://www.w3.org/1999/xlink" x="0px" y="0px"
	 viewBox="0 0 45 49.4" style="enable-background:new 0 0 45 49.4;" xml:space="preserve">
<style type="text/css">
	.st0{fill:#5B5B5B;}
	.st1{fill:#C43F6F;}
</style>
<path class="st0" d="M6.2,0h32.7C42.2,0,45,2.7,45,6.1v37.2c0,3.4-2.7,6.1-6.1,6.1H6.2c-3.4,0-6.1-2.7-6.1-6.1V6.1
	C0,2.7,2.7,0,6.2,0z"/>
<g>
	<path class="st1" d="M21.5,4.1c-3.7,4.9-6.4,11.4-6.4,20.5c0,8.9,2.8,15.3,6.4,20.3H18c-3.2-4.2-6.7-10.6-6.7-20.3
		c0.1-9.9,3.5-16.3,6.7-20.5C18,4.1,21.5,4.1,21.5,4.1z"/>
	<path class="st1" d="M23.5,44.9c3.6-5,6.4-11.5,6.4-20.5S27.1,9,23.5,4.1H27c3.3,4.1,6.7,10.5,6.7,20.4c0,9.8-3.4,16.2-6.7,20.4
		H23.5z"/>
</g>
</svg>
