<?xml version="1.0" encoding="utf-8"?>
<!-- Generator: Adobe Illustrator 25.2.3, SVG Export Plug-In . SVG Version: 6.00 Build 0)  -->
<svg version="1.1" id="Layer_1" xmlns="http://www.w3.org/2000/svg" xmlns:xlink="http://www.w3.org/1999/xlink" x="0px" y="0px"
	 viewBox="0 0 1008 648" style="enable-background:new 0 0 1008 648;" xml:space="preserve">
<style type="text/css">
	.st0{fill:#131B28;}
	.st1{fill:#0868AC;}
</style>
<path class="st0" d="M312.1,481.5L312.1,481.5l-7.6,26.8L312.1,481.5z M350.9,539.7l-8.3,0L350.9,539.7z M348.8,579.7L348.8,579.7
	l-49.9,0.2L348.8,579.7z M359.3,539.8l-8.3,0L359.3,539.8z M353.2,576.3l8.7-33.2L353.2,576.3L353.2,576.3z M536.9,423.6l-16.2,76.1
	C520.7,499.8,536.9,423.6,536.9,423.6z M495.3,423.6L483,480.5L495.3,423.6L495.3,423.6z"/>
<path class="st0" d="M534.2,420.2h-34.6c-1.9,0-3.8,1.5-4.2,3.4L483,480.5l-12.3,56.9c-0.4,1.9-2.3,3.4-4.2,3.4H442
	c-24.3,0-21.4-16.8-16.5-39.8l0.1-0.7l0.5-2.9l0.1-0.5l1.1-5.9l1.2-6.3c0.4-1.9,0.9-4.7,1.3-6.4l5.6-27.3l5.6-27.3
	c0.4-1.9-0.9-3.4-2.8-3.4h-35.5c-1.9,0-3.8,1.5-4.2,3.4l-7.6,36.3l-7.6,36.3c0,0,0,0,0,0.1l-0.7,3.4c-8.8,40.2-6.5,78.5,41.4,79.7
	c0.8,0,1.4,0,1.4,0h75.1c1.9,0,3.8-1.5,4.2-3.4l16.2-76.1l16.2-76.1C537.3,421.7,536.1,420.2,534.2,420.2L534.2,420.2z M672.3,541.2
	c1.9,0,3.2,1.5,2.8,3.4l-3.4,16.4 M668.4,577.5l3.4-16.4L668.4,577.5L668.4,577.5z M664.2,581L664.2,581
	c-10.2,0.1-40.8,0.3-63.8,0.3C628.4,581.3,664.2,581,664.2,581z M579.7,520c0-1.8,2-4.9,3.9-4.9l-4.3-0.1
	C577.4,534.7,579.7,520,579.7,520z"/>
<path class="st0" d="M603.5,581.3c-0.2,0-0.4,0-0.7,0C603.1,581.3,603.3,581.3,603.5,581.3z M672.3,541.2c1.9,0,3.2,1.5,2.8,3.4
	l-3.4,16.4l-0.5,2.7 M619.9,581.2h-0.1H619.9z M611.4,581.3h-0.5H611.4z M608.8,581.3c-0.3,0-0.5,0-0.8,0
	C608.3,581.3,608.5,581.3,608.8,581.3z M606.2,581.3h-0.7H606.2z M610.9,581.3l-2.1,0L610.9,581.3z M619.8,581.2c-2.8,0-5.6,0-8.4,0
	C614.2,581.2,617,581.2,619.8,581.2z M668.4,577.5l2.8-13.8L668.4,577.5L668.4,577.5z M608,581.3h-1.8H608z M602.8,581.3h-2.5H602.8
	z M605.4,581.3h-1.9H605.4z M98.9,520.4l5.4-23.8l-6.2,27.3l-5.9,27.8l5.2-24.3C97.8,525.4,98.4,522.3,98.9,520.4L98.9,520.4z
	 M163.2,419.8h-38c-1.9,0-3.8,1.5-4.3,3.4l-3.6,15.9l-3.6,15.9c-0.4,1.9,0.8,3.4,2.7,3.4h38.3c1.9,0,3.8-1.5,4.2-3.4l3.5-15.9
	l3.5-15.9v0C166.4,421.3,165.2,419.8,163.2,419.8L163.2,419.8z M155,472.8L155,472.8l-11.2,51.6L155,472.8L155,472.8z M44.5,643.7
	c0,0,19.2,0.2,31.4,0.2C66.6,644,51.3,643.8,44.5,643.7L44.5,643.7z M109.6,472.7l-5.4,23.8L109.6,472.7z"/>
<path class="st0" d="M152.2,469.3h-38.3c-1.9,0-3.8,1.5-4.3,3.4l-5.4,23.8l-5.4,23.8c-0.4,1.9-1.1,5-1.5,6.8l-5.2,24.3L87,576
	c-0.5,2.3-1.1,4.5-1.8,6.7c0,0-7.2,21.3-19.2,21.1c-0.5,0-1,0-1.5,0c-5.8-0.1-10.4-0.2-10.4-0.2h0c-1.9,0-3.8,1.5-4.3,3.3l-4,16.7
	l-4,16.7c-0.4,1.9,0.8,3.4,2.7,3.4c6.8,0.1,22.1,0.3,31.4,0.3c30.1,0,45.9-16.7,56.1-64.6l11.9-55l11.2-51.6
	C155.4,470.9,154.1,469.3,152.2,469.3L152.2,469.3z M696.7,579.3c-1.9,0-3.2-1.5-2.8-3.4l28.8-135.1 M736.8,575.9l11.7-57.6
	L736.8,575.9z"/>
<path class="st0" d="M694.4,577.6c-0.2-0.9-0.1-3.2,0.3-5.1l13.7-64.1L694,575.9c-0.4,1.9,0.8,3.4,2.8,3.4h3.5
	C698.3,579.3,694.6,578.5,694.4,577.6L694.4,577.6z M734.5,578.5c-1,0.4-3.5,0.8-5.4,0.8h3.5c1.9,0,3.8-1.5,4.2-3.4l0.7-3.4
	C737.1,574.3,735.6,578.1,734.5,578.5L734.5,578.5z M742.7,547.1l5.1-25.4c0,0,0,0,0,0L742.7,547.1z M856.4,449.9l1.6,6.6
	c0.4,1.9-0.8,3.4-2.7,3.4 M737.5,572.5l5.1-25.4L737.5,572.5z M854.8,443.2l1.6,6.7L854.8,443.2z M747.8,521.6
	c0.4-1.9,1-4.9,1.4-6.8l5.5-25.8l-6.2,29.2L747.8,521.6L747.8,521.6z M723.3,438.6c-0.4,1.8-0.9,4.1-1.2,5.6l-13.7,64.1l14.4-67.5
	L723.3,438.6z"/>
<path class="st0" d="M858,456.4l-1.6-6.6l-1.6-6.7l-0.8-3.4c-3.1-12.1-12.3-19.1-32.1-19.1l-30.9,0l-28.5,0h-32
	c-1.9,0-3.8,1.5-4.2,3.4h0l-1.4,6.7l-1.7,7.9l-0.5,2.2l-14.4,67.5l-13.7,64.1c-0.4,1.9-0.5,4.2-0.3,5.1c0.2,0.9,3.9,1.7,5.8,1.7
	h28.9c1.9,0,4.4-0.3,5.4-0.8c1-0.4,2.6-4.2,3-6.1l5.1-25.4l5.1-25.4l0,0l0.7-3.4l6.2-29.2l5.5-25.8c0.4-1.9,2.3-3.4,4.2-3.4l90.9,0
	C857.2,459.8,858.4,458.3,858,456.4L858,456.4z"/>
<path class="st0" d="M975,397.1c-1.9,0-5.1,0-7,0h-29.1c-1.9,0-4.4,1.3-5.5,2.9l-64.3,94.2c-1.1,1.6-2.3,1.4-2.8-0.5l-4.7-20.8
	c-0.4-1.9-2.4-3.4-4.3-3.4H816c-1.9,0-3.1,1.5-2.5,3.4l18.5,64.9c0.5,1.8,0.6,4.9,0.1,6.8L824,576c-0.5,1.9,0.7,3.4,2.6,3.4h40.9
	c1.9,0,3.9-1.5,4.4-3.4l8.1-31.4c0.5-1.9,1.8-4.6,3-6.2l104.4-138.6c1.2-1.5,0.5-2.8-1.4-2.8L975,397.1L975,397.1z M646.5,478.4
	L646.5,478.4c-0.2,2-2.2,3.6-4.1,3.6h-52.4c-1.8,0-2.7-1.2-2.5-2.8c0,0,0-0.1,0-0.1c0,0,0,0,0,0c0-0.1,0-0.1,0-0.2l0.2-0.9
	c5-13.3,15.2-22.1,34.4-22.1C643.7,456,647.9,466.5,646.5,478.4L646.5,478.4z M631.1,417.9c-67.3,0-83.2,40.8-92.2,82.1
	c-8.9,42-8.2,81.3,61.5,81.3h2.5c0.2,0,0.4,0,0.7,0h4.5c0.3,0,0.5,0,0.8,0l2.1,0h0.5c2.8,0,5.6,0,8.4,0h0.1
	c18.4-0.1,36.8-0.2,44.3-0.3c1.9,0,3.8-1.6,4.2-3.4l2.8-13.8l0.5-2.7l3.4-16.4c0.4-1.9-0.9-3.4-2.8-3.4h-62.6
	c-24.9,0-32.3-6.6-29.6-26.1h100.1l0,0c0,0,0,0,0.1,0c1.6,0,3.1-1.1,3.6-2.6c0.1-0.3,0.2-0.6,0.2-0.9l0,0
	C699,455.6,694.7,417.9,631.1,417.9L631.1,417.9L631.1,417.9z M313,478.2l-0.9,3.4l0,0l-7.6,26.8l-7.6,26.8
	c-0.5,1.8-2.5,3.4-4.4,3.4h-40c-30.3,0-37.7-23.7-30.3-58.7c7.4-35.8,21.9-58.1,51.7-60.3C314.7,416.4,322.9,445.1,313,478.2
	L313,478.2z M340.4,536.4c0,0,18.9-45.8,23.1-72.2c5.8-35.4-11.9-86.7-80.4-86.7c-68.1,0-97.6,49-108.9,102.3
	c-11.3,53.7,3.5,100.8,71.2,100.4l53.4-0.2l49.9-0.2c1.9,0,3.9-1.5,4.4-3.4l8.7-33.2c0.5-1.9-0.7-3.4-2.6-3.4l-8.3,0l-8.3,0
	c-1.6,0-2.6-1.1-2.4-2.5C340.3,536.9,340.3,536.7,340.4,536.4L340.4,536.4L340.4,536.4z"/>
<path class="st0" d="M677.5,505.8c0,1.3-1,2.3-2.3,2.3s-2.3-1-2.3-2.3s1-2.3,2.3-2.3S677.5,504.5,677.5,505.8z"/>
<path class="st1" d="M379,91.5c-28.3,40.7-24.8,93.7-3.2,137c0.5,1,1.1,2.1,1.6,3.1c0.3,0.6,0.7,1.3,1,1.9c0.2,0.4,0.4,0.8,0.6,1.1
	c0.4,0.7,0.7,1.3,1.1,2c0.7,1.2,1.4,2.4,2.1,3.5c0.4,0.6,0.8,1.3,1.2,1.9c0.8,1.3,1.6,2.5,2.4,3.8c0.3,0.5,0.7,1.1,1,1.6
	c1.1,1.7,2.3,3.4,3.5,5l0.1,0.1c0.2,0.3,0.4,0.5,0.6,0.8c1,1.4,2.1,2.8,3.2,4.2c0.4,0.5,0.8,1,1.2,1.5c1.3,1.7,2.7,3.3,4,4.9
	c1.4,1.6,2.7,3.2,4.2,4.7c0.1,0.1,0.1,0.1,0.2,0.2c2.8,3.1,5.8,6.1,8.8,8.9c0.5,0.4,0.9,0.9,1.4,1.3c1.5,1.4,3,2.8,4.6,4.2
	c0.3,0.2,0.5,0.5,0.8,0.7c1.3,1.2,2.7,2.3,4.1,3.5c0.6,0.5,1.1,0.9,1.7,1.4c1.1,0.9,2.3,1.8,3.4,2.7l1.8,1.4
	c1.3,0.9,2.6,1.9,3.9,2.8c0.5,0.3,0.9,0.7,1.4,1c0.1,0.1,0.3,0.2,0.4,0.3c1.2,0.8,2.5,1.7,3.7,2.5c0.5,0.4,1.1,0.7,1.6,1.1
	c1.9,1.2,3.9,2.4,5.9,3.6c0.5,0.3,1.1,0.6,1.6,0.9c1.5,0.8,2.9,1.7,4.4,2.5c0.8,0.4,1.6,0.8,2.4,1.3c1,0.5,2.1,1.1,3.1,1.6
	c0.2,0.1,0.5,0.2,0.7,0.4c0.4,0.2,0.9,0.4,1.3,0.6c2,1,4,1.9,6,2.8c1.9,0.8,3.9,1.6,5.8,2.4c0.5,0.2,0.9,0.4,1.4,0.6
	c2,0.8,4.1,1.5,6.2,2.3c2,0.7,4.1,1.4,6.1,2c0.5,0.1,1,0.3,1.5,0.4c2.1,0.6,4.2,1.4,6.3,1.8c137,25,176.8-82.3,176.8-82.3
	c-33.4,43.6-92.8,55-149,42.2c-2.1-0.5-4.2-1.1-6.3-1.8c-2.6-0.8-5.1-1.6-7.6-2.4l-0.8-0.3c-1.8-0.6-3.6-1.3-5.3-2
	c-0.5-0.2-1-0.4-1.5-0.6c-1.9-0.8-3.8-1.6-5.8-2.4c-0.4-0.2-0.8-0.3-1.1-0.5c-2.1-0.9-4.2-1.9-6.3-2.9c-1.3-0.6-2.5-1.3-3.8-1.9
	c-0.8-0.4-1.7-0.9-2.5-1.3c-1.5-0.8-3-1.7-4.5-2.5c-0.5-0.3-1-0.6-1.5-0.8c-2-1.2-3.9-2.4-5.9-3.6c-0.5-0.3-1.1-0.7-1.6-1.1
	c-1.4-0.9-2.8-1.8-4.2-2.8c-0.5-0.3-0.9-0.6-1.3-0.9c-1.3-0.9-2.6-1.9-3.9-2.8c-0.6-0.4-1.2-0.9-1.7-1.3c-1.7-1.3-3.4-2.7-5.1-4
	c-1.5-1.2-3-2.5-4.4-3.7l-0.5-0.4c-1.6-1.4-3.1-2.8-4.7-4.2c-0.4-0.4-0.9-0.8-1.3-1.3c-1.1-1.1-2.2-2.2-3.3-3.3
	c-0.4-0.4-0.9-0.9-1.3-1.3c-1.4-1.4-2.8-2.9-4.1-4.3l-0.2-0.2c-1.4-1.6-2.8-3.1-4.2-4.7c-0.4-0.4-0.7-0.9-1.1-1.3
	c-1-1.2-2-2.5-3-3.7c-0.4-0.5-0.7-0.9-1.1-1.4c-1.2-1.5-2.3-3.1-3.5-4.6c-31.2-42.6-42.4-101.3-17.5-149.5"/>
<path class="st1" d="M466.9,57.2c-20.5,29.5-19.4,69-3.4,100.1c2.7,5.2,5.7,10.3,9.1,15.1c3.1,4.4,6.5,9.6,10.5,13.2
	c1.5,1.6,3,3.2,4.6,4.8c0.4,0.4,0.8,0.8,1.2,1.2c1.5,1.5,3.1,2.9,4.7,4.4c0.1,0.1,0.1,0.1,0.2,0.2c0,0,0,0,0,0
	c1.8,1.6,3.6,3.1,5.5,4.5c0.4,0.3,0.8,0.6,1.2,1c1.9,1.4,3.8,2.8,5.7,4.2c0.1,0,0.1,0.1,0.2,0.1c0.9,0.6,1.7,1.2,2.6,1.7
	c0.4,0.3,0.8,0.6,1.2,0.8c1.4,0.9,2.8,1.8,4.3,2.6c0.2,0.1,0.4,0.2,0.6,0.4c1.2,0.7,2.5,1.4,3.8,2.1c0.4,0.2,0.9,0.5,1.3,0.7
	c0.9,0.5,1.7,0.9,2.6,1.4c0.1,0.1,0.3,0.1,0.4,0.2c1.8,0.9,3.6,1.7,5.5,2.6c0.4,0.2,0.8,0.3,1.2,0.5c1.5,0.6,3,1.2,4.5,1.8
	c0.6,0.2,1.3,0.5,1.9,0.7c1.4,0.5,2.7,1,4.1,1.4c0.6,0.2,1.2,0.4,1.9,0.6c2,0.6,3.9,1.4,6,1.7c105.8,17.5,130.2-63.9,130.2-63.9
	c-22,31.7-64.7,46.8-110.2,35c-2.6-0.7-5.2-1.5-7.8-2.3c-2-0.7-4.1-1.4-6.1-2.2c-1.5-0.6-3-1.2-4.5-1.8c-0.4-0.2-0.8-0.3-1.2-0.5
	c-1.9-0.8-3.7-1.7-5.5-2.6c-0.9-0.5-1.9-0.9-2.8-1.4l-1.6-0.8c-1.2-0.6-2.3-1.3-3.5-2c-0.3-0.2-0.6-0.3-0.8-0.5
	c-1.4-0.8-2.8-1.7-4.2-2.6c-0.4-0.3-0.8-0.6-1.3-0.9c-0.9-0.6-1.8-1.2-2.8-1.8c-1.9-1.3-3.8-2.7-5.7-4.2c-0.4-0.3-0.9-0.7-1.3-1
	c-19.9-15.7-35.7-37.2-43.2-61.6c-7.9-25.3-6.2-53.6,7.5-76.7"/>
<path class="st1" d="M540.9,31.6c-12.1,17.8-13.3,39.9-4.9,59.5c8.8,20.8,27,37.2,48.1,44.9c0.9,0.3,1.7,0.6,2.6,0.9
	c0.4,0.1,0.8,0.3,1.2,0.4c1.2,0.4,2.5,0.8,3.8,1.1c58.4,11.3,74.3-30,78.5-36c-13.9,20-37.2,24.8-65.8,17.8
	c-2.3-0.6-4.7-1.3-6.9-2.1c-2.8-1-5.5-2.1-8.2-3.4c-5.1-2.4-9.9-5.4-14.4-8.8c-25.6-19.4-41.5-56.5-24.8-86.7"/>
</svg>
