<?xml version="1.0" encoding="utf-8"?>
<!-- Generator: Adobe Illustrator 25.0.0, SVG Export Plug-In . SVG Version: 6.00 Build 0)  -->
<svg version="1.1" id="Layer_1" xmlns="http://www.w3.org/2000/svg" xmlns:xlink="http://www.w3.org/1999/xlink" x="0px" y="0px"
	 viewBox="0 0 254.6 147.9" style="enable-background:new 0 0 254.6 147.9;" xml:space="preserve">
<style type="text/css">
	.st0{fill:#010101;}
	.st1{fill:#FFFFFF;}
	.st2{fill:#87338D;}
	.st3{fill:#989898;}
	.st4{fill:#1683C6;}
	.st5{fill:#EB0D8C;}
	.st6{fill:#464243;}
	.st7{fill:url(#SVGID_1_);}
	.st8{fill:url(#SVGID_2_);}
	.st9{fill:url(#SVGID_3_);}
</style>
<path class="st0" d="M37.8,0h180.1c7.3,0,13.1,5.9,13.1,13.1v122H25.6v-123C25.6,5.5,31.1,0,37.8,0z"/>
<path class="st1" d="M38.6,123.5h178.9c1.6,0,2.9-1.3,2.9-2.9V14.9c0-1.6-1.3-2.9-2.9-2.9H38.6c-1.6,0-2.9,1.3-2.9,2.9v105.7
	C35.7,122.2,37,123.5,38.6,123.5z"/>
<rect x="51.8" y="29.4" class="st2" width="150.5" height="38.4"/>
<rect x="35.7" y="18.2" class="st2" width="184.8" height="7.4"/>
<rect x="73.1" y="21.4" class="st3" width="22.6" height="1.9"/>
<rect x="100.1" y="21.4" class="st3" width="22.6" height="1.9"/>
<rect x="128.1" y="21.4" class="st3" width="22.6" height="1.9"/>
<rect x="156.4" y="21.4" class="st3" width="22.6" height="1.9"/>
<rect x="51.8" y="72.4" class="st4" width="46.2" height="20.6"/>
<rect x="103.9" y="72.4" class="st4" width="46.2" height="20.6"/>
<rect x="155.9" y="72.4" class="st4" width="46.2" height="20.6"/>
<rect x="51.8" y="96" class="st3" width="46.2" height="1.5"/>
<rect x="51.8" y="99.9" class="st3" width="46.2" height="1.5"/>
<rect x="51.8" y="103.9" class="st3" width="46.2" height="1.5"/>
<rect x="51.8" y="107.8" class="st3" width="46.2" height="1.5"/>
<rect x="103.9" y="96" class="st3" width="46.2" height="1.5"/>
<rect x="103.9" y="99.9" class="st3" width="46.2" height="1.5"/>
<rect x="103.9" y="103.9" class="st3" width="46.2" height="1.5"/>
<rect x="103.9" y="107.8" class="st3" width="46.2" height="1.5"/>
<rect x="155.9" y="96" class="st3" width="46.2" height="1.5"/>
<rect x="155.9" y="99.9" class="st3" width="46.2" height="1.5"/>
<rect x="155.9" y="103.9" class="st3" width="46.2" height="1.5"/>
<rect x="155.9" y="107.8" class="st3" width="46.2" height="1.5"/>
<rect x="79.5" y="46" class="st1" width="74.9" height="8"/>
<rect x="154.4" y="46" class="st5" width="20.3" height="8"/>
<rect x="51.8" y="112.5" class="st5" width="150.4" height="10.6"/>
<path class="st6" d="M254.5,135.2H0.3c0,0,1.4,12.7,19.1,12.7s191.4,0,214.2,0S254.5,135.2,254.5,135.2z"/>
<linearGradient id="SVGID_1_" gradientUnits="userSpaceOnUse" x1="-1.210682e-03" y1="139.4536" x2="254.552" y2="139.4536">
	<stop  offset="0" style="stop-color:#767676"/>
	<stop  offset="0.2739" style="stop-color:#FFFFFF"/>
	<stop  offset="0.5352" style="stop-color:#95979A"/>
	<stop  offset="0.8266" style="stop-color:#FFFFFF"/>
	<stop  offset="1" style="stop-color:#A1A2A5"/>
</linearGradient>
<path class="st7" d="M0,135.2h254.5c0.1,3.2-1.1,6.1-4.2,8.6H5.4C3.2,141.9,1.3,139.3,0,135.2z"/>
<linearGradient id="SVGID_2_" gradientUnits="userSpaceOnUse" x1="5.4126" y1="144.7219" x2="250.3722" y2="144.7219">
	<stop  offset="0" style="stop-color:#919396"/>
	<stop  offset="0.2739" style="stop-color:#C5C5C5"/>
	<stop  offset="0.5352" style="stop-color:#919396"/>
	<stop  offset="0.8266" style="stop-color:#C5C5C5"/>
	<stop  offset="1" style="stop-color:#919396"/>
</linearGradient>
<path class="st8" d="M5.4,143.7h245c-0.9,0.7-2,1.4-3.4,1.9l-238.4,0C7.5,145.2,6.5,144.6,5.4,143.7z"/>
<linearGradient id="SVGID_3_" gradientUnits="userSpaceOnUse" x1="126.0707" y1="135.6602" x2="126.0707" y2="139.322">
	<stop  offset="0" style="stop-color:#D1D1D1"/>
	<stop  offset="0.4196" style="stop-color:#A6A6A6"/>
	<stop  offset="0.7462" style="stop-color:#595959"/>
	<stop  offset="1" style="stop-color:#141414"/>
</linearGradient>
<path class="st9" d="M108.3,135.7h35.6c0,0,0.1,3.7-3.3,3.7c-3.3,0-26.6,0-29.4,0C108.4,139.3,108.3,135.7,108.3,135.7z"/>
</svg>
