<?xml version="1.0" encoding="utf-8"?>
<!-- Generator: Adobe Illustrator 25.0.0, SVG Export Plug-In . SVG Version: 6.00 Build 0)  -->
<svg version="1.1" id="Layer_1" xmlns="http://www.w3.org/2000/svg" xmlns:xlink="http://www.w3.org/1999/xlink" x="0px" y="0px"
	 viewBox="0 0 327.8 327.6" style="enable-background:new 0 0 327.8 327.6;" xml:space="preserve">
<style type="text/css">
	.st0{fill:#5716D6;}
</style>
<path class="st0" d="M133.5,40.5c5.2,0,10.1,2,10.1,10.1s0,17.1,0,22.2c0,5.2-2.5,9.3-10.1,9.3c-7.6,0-92.8,0-92.8,0v204.6h205.6
	c0,0,0-65.7,0-72s3.8-10.1,9.6-10.1c5.8,0,16.1,0.1,23.1,0.1s8.2,4.1,8.2,10s0,69.3,0,84.6s-10.8,28.2-27.6,28.2
	c-16.8,0-213.3,0-231,0S0,312.8,0,297.2C0,281.6,0,81.5,0,68s10.4-27.5,30.4-27.5S128.4,40.5,133.5,40.5z"/>
<path class="st0" d="M85.7,205.4c3.2-3.2,160.6-159.6,160.6-159.6s-37.9,0.9-46.9,0.8c-9-0.1-15-10.4-15-16.8s0-12.1,0-15.8
	c0-7,9.3-14,17.7-14s91.4,0,106.1,0c10.5,0,19.6,9.5,19.6,24.1c0,12.1,0,96.1,0,104.7c0,8.6-10.4,14.2-17.5,14.2s-2.2,0-12.1,0
	s-17-8.3-17-16.6s0.8-45.4,0.8-45.4l-159.2,161c0,0-7.5,6.7-15.6,3.1S85.7,225.7,82.6,220C79.5,214.4,82.5,208.6,85.7,205.4z"/>
</svg>
