<?xml version="1.0" encoding="utf-8"?>
<!-- Generator: Adobe Illustrator 25.2.3, SVG Export Plug-In . SVG Version: 6.00 Build 0)  -->
<svg version="1.1" id="Layer_1" xmlns="http://www.w3.org/2000/svg" xmlns:xlink="http://www.w3.org/1999/xlink" x="0px" y="0px"
	 viewBox="0 0 504 360" style="enable-background:new 0 0 504 360;" xml:space="preserve">
<style type="text/css">
	.st0{fill:url(#SVGID_1_);}
	.st1{fill:url(#SVGID_2_);}
	.st2{fill:url(#SVGID_3_);}
	.st3{fill:#231F1F;}
</style>
<linearGradient id="SVGID_1_" gradientUnits="userSpaceOnUse" x1="0.8824" y1="356.8195" x2="0.9118" y2="356.8195" gradientTransform="matrix(539.015 -318.4933 318.4933 539.015 -113883.1562 -191839.75)">
	<stop  offset="0" style="stop-color:#909CA9"/>
	<stop  offset="1" style="stop-color:#EDEDEE"/>
</linearGradient>
<path class="st0" d="M330.3,115.2l-43.8,14.3l-38.1,16.8l-10.7,2.8c-2.7,2.6-5.5,5.2-8.7,7.8c-3.4,2.9-6.5,5.5-8.9,7.5
	c-2.7,2.2-6.6,6.1-8.7,8.6c-3,3.8-5.4,7.8-6.4,10.9c-1.8,5.5-1,11.2,2.6,16.4c4.5,6.6,13.5,13.4,23.9,17.9
	c5.3,2.4,14.3,5.3,21.1,7.1c11.2,2.8,32.9,6,44.9,6.4c2.4,0.1,5.7,0.1,5.8,0c0.2-0.2,2.2-3.7,4.2-8.2c7.4-15,12.6-29.1,15.5-41.1
	c1.7-7.3,3-17,4-28.5c0.2-3.3,0.3-14,0.1-17.6c-0.3-6-0.9-10.8-1.6-15.5c-0.1-0.7-0.2-1.3-0.1-1.3c0.1-0.1,0.5-0.2,6-1.7
	L330.3,115.2z M320.3,121c0.4,0,1.4,10.2,1.7,16.6c0.1,1.3,0,2.3,0,2.3c-0.2,0-5.5-3.2-9.5-5.5c-3.3-2.1-9.6-6.3-10.5-7.1
	c-0.3-0.2-0.3-0.2,2.4-1.2C309,124.5,319.9,121,320.3,121z M297.9,128.4c0.3,0,1.1,0.4,2.9,1.5c6.8,4.2,16.1,9.5,20.1,11.2
	c1.2,0.5,1.3,0.3-1.4,2.3c-6,4.1-13.6,8.2-22.7,12.2c-1.6,0.8-2.9,1.3-3,1.3s0.1-0.9,0.4-1.8c2.2-8.3,3.5-16.6,3.6-23.3
	C297.6,128.4,297.6,128.4,297.9,128.4L297.9,128.4z M293.3,130.2c0.2,0.2,0.1,7.6-0.2,9.7c-0.5,4.8-1.5,9.3-3,14.5
	c-0.3,1.2-0.7,2.3-0.8,2.3c-0.1,0.2-4.7-4.2-6.2-6c-2.6-2.9-4.6-6-6.1-8.9c-0.8-1.5-2-4.5-1.8-4.5
	C275.7,136.8,293.2,130.1,293.3,130.2L293.3,130.2z M271.7,138.7c0.2,0.1,0.4,0.7,0.5,1.2c1.1,2.9,3.5,7.2,5.5,9.8
	c2.3,2.9,5.2,6.2,7.6,8.3c0.8,0.7,1.5,1.3,1.6,1.4c0.2,0.2,0.2,0.2-5.1,2.2c-6.3,2.4-13,4.8-20.9,7.3c-1.8,0.7-3.7,1.2-5.5,1.8
	c-0.3,0.1-0.2-0.1,0.7-1.4c3.9-6.1,9.8-17.9,13-26.4c0.5-1.4,1.1-2.9,1.2-3.3c0.1-0.4,0.3-0.7,0.8-0.9
	C271.4,138.8,271.6,138.7,271.7,138.7L271.7,138.7z M265.1,141.4c0.1,0.1-1.6,3.6-3.3,6.8c-3.3,6.3-6.7,12.4-11.4,19.9
	c-0.8,1.3-1.5,2.5-1.6,2.6c-0.2,0.2-0.2,0.2-0.8-0.9c-1.1-2.2-2.1-5.1-2.5-7.7c-0.5-2.6-0.4-7.1,0.2-9.9c0.4-2.1,0.4-2.1,1.4-2.5
	C251.2,147.7,264.9,141.3,265.1,141.4L265.1,141.4z M322.1,143.8v1.4c0,7.4-0.8,17.5-2,24.9c-0.2,1.3-0.3,2.4-0.4,2.4
	c0,0-1-0.2-2.1-0.5c-5-1.5-10.3-3.8-15.2-6.5c-3.3-1.7-7.9-4.7-7.7-4.8c0,0,1.4-0.8,3-1.6c6.5-3.4,12.7-7.1,18.1-10.7
	c2.1-1.3,5.1-3.6,5.8-4.1L322.1,143.8z M240.1,153.5c0.1,0,0.1,0.2-0.1,1.4c-0.1,0.9-0.3,2.5-0.3,3.6c-0.2,4.8,0.5,8.4,2.9,13.3
	c0.7,1.3,1.2,2.5,1.2,2.5c-0.2,0.2-22.2,6.6-29,8.5c-2.1,0.5-3.8,1.1-4,1.1c-0.2,0.1-0.2,0-0.2-0.5c0.8-4.9,4.5-11.2,9.7-16.6
	c3.5-3.6,6.2-5.7,10.9-8.4C234.4,156.6,239.6,153.7,240.1,153.5C240,153.5,240,153.5,240.1,153.5L240.1,153.5z M291.7,162.8
	c0,0,0.9,0.4,1.7,1c7.1,4.1,17,7.9,25.3,9.9l0.8,0.2l-1.1,0.5c-4.5,2.5-18.9,8.5-33.7,14c-2.2,0.8-4.2,1.6-4.7,1.7
	c-0.4,0.2-0.8,0.2-0.8,0.2s0.5-1.2,1.3-2.6c4.1-7.7,8.3-17.2,10.4-23.7C291.5,163.3,291.7,162.8,291.7,162.8L291.7,162.8z
	 M286.5,164.5c0,0-0.2,0.8-0.5,1.5c-2.9,7-6.6,14.6-11.5,23.1c-1.2,2.2-2.3,3.9-2.3,3.9s-1-0.5-2.2-1.3c-7.1-4.3-13.3-9.6-17.3-14.8
	l-0.5-0.8l3-0.9c10.8-2.9,20-6.1,29.1-10C285.3,165,286.4,164.5,286.5,164.5L286.5,164.5z M319.2,175.9c0,0.8-1.6,7.6-3,12.5
	c-1.2,4.1-2.2,7.4-4,13.2c-0.8,2.5-1.5,4.6-1.5,4.6s-0.2,0-0.4-0.1c-9.8-1.7-18.7-4.2-27-7.6c-2.3-1-5.7-2.4-5.9-2.6
	c-0.1-0.1,2-1,4.5-2.1c15.1-6.6,30.6-14,36.1-17.3C318.6,176.1,319.1,175.9,319.2,175.9L319.2,175.9z M243.7,178.5
	c0.1,0.1-4.1,6.1-10,14.3c-2.1,2.9-4.5,6.3-5.3,7.5c-0.9,1.3-2.3,3.3-3,4.5l-1.4,2.2l-1.5-1.3c-1.7-1.4-4.8-4.6-6.2-6.3
	c-2.8-3.6-4.8-7.3-5.5-10.7c-0.3-1.6-0.3-2.4,0-2.5c0.5-0.1,9.3-2.2,17.6-4.1c4.6-1.1,9.9-2.3,11.8-2.8
	C242.1,178.9,243.6,178.5,243.7,178.5L243.7,178.5z M247.9,180.2l1.1,1.2c4.8,5.3,9.7,9.2,15.5,12.7c1.1,0.5,1.8,1.1,1.7,1.2
	c-0.2,0.2-20.4,7.4-29.9,10.5c-5.2,1.8-9.6,3.4-9.7,3.4l-0.7-0.4l-0.5-0.4l1-1.4c3.2-4.5,7.1-9.5,15.5-19.7L247.9,180.2z
	 M274.3,199.1c0,0,1.5,0.5,3.3,1.2c4.3,1.6,7.7,2.6,12.3,3.8c5.7,1.4,13.8,2.8,18.6,3.3c0.8,0.1,1.1,0.1,1,0.2
	c-0.2,0.1-5.1,1.7-8.7,2.9c-5.7,1.7-23,7-37.3,11c-2.6,0.8-4.9,1.4-5,1.4c-0.3,0.1-1.4-0.2-1.4-0.3c0-0.1,0.8-1.1,1.7-2.2
	c4.8-5.7,9.5-12.1,13.5-18C273.4,200.4,274.3,199.1,274.3,199.1L274.3,199.1z M268.5,199.2c0,0-2.3,3.8-6.4,10.3
	c-1.7,2.7-3.7,5.9-4.5,7c-0.7,1.1-1.6,2.7-2.2,3.7l-1,1.7l-0.5-0.1c-1.2-0.3-9.6-3.3-11.7-4.1c-2.7-1.1-5.5-2.4-7.7-3.6
	c-2.6-1.4-6-3.6-5.7-3.6c0.1,0,4.6-1.3,10.1-2.7c14.5-3.9,22.5-6.2,27.8-7.9C267.6,199.4,268.5,199.2,268.5,199.2L268.5,199.2z
	 M309.7,208.9c0.2,0.3-5.2,15.2-7.2,19.9c-0.4,1.1-0.5,1.3-0.9,1.3c-0.5,0-8.4-1.1-13-1.8c-8.3-1.3-22.1-3.7-25.5-4.5l-0.8-0.2
	l4.9-1.1c10.7-2.4,15.6-3.7,20.9-5.2c6.5-2,12.9-4.5,19.5-7.5C308.6,209.3,309.4,208.9,309.7,208.9z"/>
<linearGradient id="SVGID_2_" gradientUnits="userSpaceOnUse" x1="-1.2638" y1="368.8275" x2="-1.2344" y2="368.8275" gradientTransform="matrix(433.7041 0 0 433.7041 785.5216 -159928.2188)">
	<stop  offset="0" style="stop-color:#939FAB"/>
	<stop  offset="1" style="stop-color:#DCDEE1"/>
</linearGradient>
<path class="st1" d="M285.1,13.1c-0.8-0.1-12.5,4.1-20.1,7.2c-10.2,4.1-18.1,8.2-23,11.6c-1.8,1.3-4.1,3.6-4.5,4.5
	c-0.1,0.3-0.2,0.8-0.2,1.1l4.5,4.2l10.5,3.4l25.1,4.5l28.7,4.9l0.3-2.5h-0.2l-3.8-0.5l-0.8-1.3c-3.9-6.8-8.3-15.4-10.8-21.2
	c-2-4.5-3.8-9.7-4.8-13.4C285.5,13.2,285.4,13.1,285.1,13.1L285.1,13.1z M284.5,14.8c0.1,0,0.2,1,0.3,2.1c0.5,4.7,1.6,9.1,3.3,13.9
	c1.2,3.7,1.2,3.5-0.2,3c-3.4-1-18.5-3.6-29.5-5.1c-1.7-0.2-3.3-0.4-3.3-0.5c-0.1-0.1,7.9-4.3,11.4-6C271.2,20.1,283.7,15,284.5,14.8
	L284.5,14.8z M252.6,29.7l1.3,0.4c7.1,2.4,24.7,5.8,34.5,6.5c1.1,0.1,2.1,0.2,2.1,0.2s-0.9,0.5-2.1,1.1c-4.7,2.4-9.9,5.2-13.5,7.5
	c-1.1,0.7-2.1,1.2-2.2,1.2c-0.1,0-0.9-0.1-1.5-0.2l-1.3-0.2l-3.3-3.3c-5.9-5.7-10.4-10-12.2-11.7L252.6,29.7z M251.3,30.6l4.7,5.9
	c2.5,3.3,5.1,6.3,5.7,7.1c0.5,0.7,1,1.3,1,1.3c-0.1,0.1-6.7-1.2-10.2-2c-3.6-0.9-5.1-1.2-7.3-2l-1.8-0.5V40c0-2.2,2.8-5.5,7.6-8.9
	L251.3,30.6z M291,38.6c0.1,0,0.3,0.3,0.7,1.2c1.1,2.5,4.7,9.1,5.5,10.4c0.2,0.4,0.8,0.4-3.9-0.3c-11.2-1.8-14.8-2.4-14.8-2.5
	c0,0,0.3-0.2,0.8-0.5c3.5-2,7-4.3,10.1-7C290.1,39.2,290.7,38.7,291,38.6C290.9,38.6,291,38.6,291,38.6z"/>
<radialGradient id="SVGID_3_" cx="4.2156" cy="357.9636" r="2.938489e-02" gradientTransform="matrix(-552.9619 -83.0608 167.9883 -1105.9233 -57500.9648 396322.6562)" gradientUnits="userSpaceOnUse">
	<stop  offset="0" style="stop-color:#EE352C"/>
	<stop  offset="1" style="stop-color:#A91D22"/>
</radialGradient>
<path class="st2" d="M237.7,35.8c0,0-0.8,1.2,0,2.9c0.4,1.1,1.7,2.4,3.2,3.7c0,0,14.8,14.3,16.5,16.4c8.2,9.5,11.7,18.7,12.1,31.4
	c0.2,8.3-1.3,15.4-5.2,23.8c-6.8,15-21.4,31.6-43.8,50l3.3-1.1c2.1-1.6,5-3.3,11.7-7c15.6-8.6,33.1-16.4,54.7-24.5
	c31-11.6,81.9-25.3,111-29.8l3-0.4l-0.4-0.8c-2.6-4.1-4.5-6.6-6.6-9.3c-6.3-7.9-14-14.2-23.5-19.6c-12.9-7.3-29.8-12.9-51.1-17.2
	c-4-0.8-12.8-2.3-20-3.4c-15.2-2.4-25-4-35.8-5.9c-3.9-0.7-9.7-1.6-13.5-2.5c-2-0.4-5.8-1.3-8.8-2.4
	C241.8,39.6,238.5,38.7,237.7,35.8L237.7,35.8z M246.3,44.2c0,0,0.5,0.2,1.3,0.4c1.3,0.4,2.9,1,4.8,1.4c1.4,0.4,2.9,0.8,4.3,1.2
	c2,0.5,3.7,1,3.7,1c0.2,0.2,3.6,11,4.7,15c0.4,1.5,0.8,2.9,0.8,2.9s-0.4-0.5-0.9-1.3c-3.9-6.8-10-13.7-17.1-19.3
	C246.9,44.8,246.3,44.2,246.3,44.2L246.3,44.2z M262.6,48.7c0.2,0,0.9,0.1,1.7,0.3c5.7,1.3,15.8,3.2,22.2,4.2c1.1,0.2,2,0.3,2,0.4
	c0,0.1-0.4,0.3-0.9,0.5c-1.1,0.5-5.5,3.2-7,4.1c-3.7,2.5-7,5.1-9.3,7.5l-1.7,1.7c0,0-0.2-0.5-0.3-1.3c-1.2-4.6-3.7-11.4-6-16.2
	C262.8,49.4,262.5,48.7,262.6,48.7C262.5,48.7,262.5,48.7,262.6,48.7L262.6,48.7z M291.2,54.1c0.2,0.1,0.5,1.2,1.2,3.7
	c1.2,4.8,1.7,10.2,1.6,15.2c-0.1,1.4-0.1,2.7-0.2,2.8l-0.1,0.3l-1.7-0.5c-3.6-1.1-9.3-2.8-14.2-4.2c-2.8-0.8-5.1-1.4-5.1-1.5
	c0-0.2,4.1-4.3,5.9-5.9C281.8,61.1,291,54,291.2,54.1L291.2,54.1z M293.5,54.4c0.1-0.1,13.7,2.3,19.9,3.5c4.6,0.9,11.3,2.3,11.7,2.5
	c0.2,0.1-0.5,0.4-2.7,1.4c-8.7,3.9-15.2,7.5-21.7,11.7c-1.7,1.1-3.2,2.1-3.2,2.1s-0.1-1-0.1-2.1c0-6.3-1.3-12.6-3.6-18
	C293.7,55,293.5,54.5,293.5,54.4z M328.7,61.4c0.1,0.1-0.3,2.8-0.8,4.3c-1.2,4.9-4.5,12.3-8.4,19.1c-0.7,1.2-1.3,2.2-1.4,2.3
	c-0.1,0-1-0.4-2-1.1c-3.8-2.3-8.3-4.3-12.9-6.3c-1.3-0.5-2.5-1-2.5-1.1c-0.2-0.2,10.4-7.3,16.1-10.7
	C321.3,65.3,328.6,61.3,328.7,61.4z M331.2,61.8c0.3,0,6.3,1.6,9.5,2.6c7.8,2.3,16.7,5.5,22.5,8.3l2.4,1.1l-1.7,0.4
	c-14.2,3.3-26.4,7.1-38.1,11.8c-1,0.4-1.8,0.8-1.8,0.8c-0.1,0,0.2-0.8,0.7-1.7c3.6-7.5,5.9-15.3,6.4-22.1
	C331.1,62.4,331.2,61.8,331.2,61.8L331.2,61.8z M271.2,75.6c0.1-0.1,4.7,1,7.2,1.7c3.8,1.1,11.7,3.7,11.7,3.9c0,0-0.9,0.8-2,1.7
	c-4.3,3.6-8.5,7.4-13.5,12.3c-1.5,1.4-2.7,2.6-2.8,2.6c-0.1,0-0.1-0.2-0.1-0.4c0.8-5.5,0.5-12.7-0.4-20
	C271.3,76.4,271.2,75.6,271.2,75.6L271.2,75.6z M367.9,75.7c0.1,0.1-2.2,3.5-3.5,5.4c-2,2.8-4.9,6.6-11.5,14.9
	c-3.5,4.3-7.4,9.3-8.7,11c-1.3,1.6-2.4,3-2.5,3c0,0-0.4-0.5-1-1.3c-3.7-5.5-8.2-10.4-13.4-14.8c-1-0.9-2.1-1.7-2.5-2
	c-0.3-0.2-0.7-0.5-0.7-0.5c0-0.1,5.7-2.5,9.9-4.2c7.5-3,17.7-6.7,25.3-9C363.6,76.8,367.9,75.6,367.9,75.7z M370.5,76.4
	c0.1,0,1,0.3,1.8,1c8,4.6,16,10.5,22.2,16.6c1.7,1.7,6.1,6.2,6,6.3c0,0-1.5,0.1-3.3,0.2c-13.9,1.1-31.7,4-48.9,8.2
	c-1.2,0.2-2.2,0.5-2.3,0.5c-0.1,0,1.2-1.3,2.8-2.8c10.1-9.7,14.7-15.9,20.1-26.7C369.8,77.8,370.4,76.5,370.5,76.4
	C370.4,76.4,370.4,76.4,370.5,76.4L370.5,76.4z M296.7,83.9c0.4,0.1,4.8,2.2,8,3.7c2.9,1.5,7.5,3.9,7.7,4c0,0-1.5,0.9-3.5,1.8
	c-6.2,3.2-11.5,6.1-17.2,9.5c-1.6,1-2.9,1.7-2.9,1.7c-0.1,0-0.1-0.1,0.8-1.7c2.9-5.4,5.3-12,6.7-18.3
	C296.5,84.2,296.6,83.9,296.7,83.9L296.7,83.9z M292.5,84.8c0.1,0.1-1,4.1-1.7,6.4c-1.3,4.2-3.7,9.5-5.9,13.5c-0.5,1-1.3,2.3-1.7,3
	l-0.9,1.3l-1.8-1.7c-2.2-2.1-3.9-3.4-6.2-4.6c-0.9-0.4-1.6-0.9-1.6-1c0-0.2,5.7-5.4,10-9.1C285.7,89.9,292.4,84.6,292.5,84.8z
	 M318.8,95.5l1.6,1.1c3.7,2.4,8,5.7,11.4,8.5c1.8,1.5,5.5,4.8,6.3,5.7l0.4,0.4l-2.7,0.8c-15.2,4.2-26.8,7.9-40.5,12.9
	c-1.5,0.5-2.8,1-2.9,1c-0.2,0-0.3,0.2,3-2.9c8.7-8,16.5-17,22.3-25.5L318.8,95.5z M311.8,97.2c0.1,0.1-4.5,6.4-7.2,10.1
	c-3.3,4.3-9,11.5-12.9,16.2c-1.6,2-3,3.6-3.2,3.6s-0.1-0.4-0.1-1.2c0-4-1-8.3-2.8-12c-0.8-1.5-0.9-1.8-0.8-2.1
	c0.7-0.5,10.2-6.1,16.4-9.3C305.3,100.4,311.7,97.1,311.8,97.2z M270,107.5c0.1,0,0.9,0.4,1.7,0.9c2.1,1.2,4,2.5,5.7,3.8
	c0.1,0.1-0.8,0.8-2,1.6c-3.2,2.3-7.9,5.9-10.7,8c-2.9,2.3-3,2.4-2.7,1.8c2.2-3.4,3.3-5.2,4.5-7.6c1-2.2,2.1-4.7,2.8-7
	C269.5,108.2,269.9,107.5,270,107.5L270,107.5z M281.2,116.3c0.2,0,0.3,0.2,1.3,1.6c1.8,2.8,3.4,6.6,3.7,9.7l0.1,0.7l-4.6,1.7
	c-8.2,3.2-15.6,6.3-20.6,8.6c-1.4,0.7-3.9,1.8-5.5,2.6c-1.6,0.9-2.9,1.4-2.9,1.4s1-0.8,2.3-1.7c9.9-7.2,18.5-15.1,24.9-22.9
	C280.4,117,281.1,116.3,281.2,116.3L281.2,116.3z M276.1,117.5c0.1,0.1-3.7,4.5-6.2,7.1c-6.4,6.5-12.7,11.6-20.5,16.6
	c-1,0.7-1.8,1.2-2,1.3c-0.2,0.1,0.1-0.2,3.5-3.9c2.2-2.4,3.8-4.3,5.8-6.7c1.3-1.6,1.5-1.8,3.3-3.2
	C264.7,125,275.9,117.4,276.1,117.5z"/>
<path class="st3" d="M132.6,254.6c-0.7,0-1.2,0.1-1.8,0.1c-12.4,0.7-20.6,6.1-25.5,16.7c-4.1,9.6-3.7,22.2,0,31.7
	c4.3,9.5,11.4,14.5,23.1,16.3c2.5,0.4,4.1,1.7,9,7.4l6,7h10.8l-7.2-7.2c-3.9-3.9-7.2-7.4-7.2-7.7s1.5-1,3.4-1.5
	c6.1-1.8,11.1-6.5,14.6-13.7c2.8-5.8,3.3-7.5,3.7-14.7C162.5,267.8,151.3,254.5,132.6,254.6L132.6,254.6z M142.1,310.3
	c-5.2,2.5-12.8,3-17.8,1.2c-5.1-1.8-10.1-7.2-12.4-13.3c-2.5-6.6-2.2-18.8,0.8-24.2c4.6-8.7,10.7-12.7,19.5-12.7
	c13,0,20.5,8,21.5,23C154.4,296.9,150.1,306.3,142.1,310.3L142.1,310.3z M328,272.8c-4.6,0-7.9,1.8-10.3,5.4l-1.8,2.8v-7.4H308v44.4
	h7.8v-14.2c0-13,0.1-14.6,2-18c2.5-4.9,6.8-7.3,11-6.2l2.8,0.8v-7.7L328,272.8z M282.2,272.3c-1.5,0-3.2,0.2-4.8,0.5
	c-10.4,2.7-16.3,12.7-16,23c0,8.6,1.6,12.9,5.9,17.5c8.5,7,16.2,7.5,26.6,3.8c1.7-0.8,3.7-1.6,3.7-1.6v-7l-3.7,2
	c-8.4,3.7-14.8,3.7-19.9-0.7c-3.3-3.3-4.7-7.3-5.3-11.7h31.5v-6C300.2,279.9,292.8,272.2,282.2,272.3L282.2,272.3z M269.4,291.9
	c0,0,1.2-7.6,5.4-10.7c2.1-1.4,4.5-2.2,6.8-2.2c2.4,0,4.7,0.8,6.6,2.3c3.9,3,4.7,10.5,4.7,10.5L269.4,291.9z M81,283.8
	c-8.5-5.1-12.3-8.8-11.7-13.2c1.3-12.1,16.2-10.4,24.5-5.9l0.1-8.2c0,0-4.6-2-11.1-2.1c-10-0.1-16.5,3.2-19.6,9.9
	c-4.5,9.9-0.5,17.4,13.8,25.6c8,4.7,11.6,8.7,11.6,13.2c0,9.1-11,12.3-22.4,6.6c-2.4-1.2-4.3-2.2-4.5-2.2c-0.4,2.6-0.2,8.8-0.2,8.8
	s3.5,1.4,8.7,2.5c13,2.6,24.8-3.5,26-13.4C97.1,296.3,93.7,291.5,81,283.8L81,283.8z M397.2,272.3c-1.5,0-3.2,0.2-4.8,0.5
	c-10.4,2.7-16.3,12.7-16,23c0,8.6,1.6,12.9,5.9,17.4c8.5,7,16.2,7.6,26.7,3.8c1.7-0.8,3.7-1.6,3.7-1.6v-7l-3.7,2
	c-8.5,3.7-14.8,3.7-19.9-0.7c-3.3-3.3-4.7-7.2-5.3-11.7h31.4v-6C415.3,279.8,407.9,272.1,397.2,272.3z M384.4,291.8
	c0,0,1.2-7.6,5.4-10.7c2.1-1.5,4.5-2.2,6.7-2.2c2.3,0,4.7,0.8,6.6,2.3c3.9,3,4.7,10.5,4.7,10.5L384.4,291.8z M241.2,284
	c-8.5-5.1-12.2-8.8-11.7-13.2c1.3-12.1,16.2-10.4,24.5-5.9l0.1-8.2c0,0-4.6-2-11.1-2.1c-10-0.1-16.5,3.2-19.6,9.9
	c-4.5,9.9-0.4,17.4,13.8,25.6c8,4.7,11.5,8.7,11.5,13c0,9.1-11,12.4-22.4,6.6c-2.3-1.2-4.3-2.2-4.5-2.2c-0.4,2.6-0.2,8.8-0.2,8.8
	s3.5,1.4,8.7,2.5c13,2.6,24.8-3.5,26-13.4C257.3,296.5,253.9,291.6,241.2,284L241.2,284z M443.1,272.7c-4.6,0-8,1.8-10.3,5.4
	l-1.8,2.8v-7.4h-7.8V318h7.8v-14.1c0-13,0.1-14.6,2-18c2.5-4.9,6.8-7.3,11-6.1l2.8,0.8v-7.7L443.1,272.7z M179,283.7v-28.4h-7.8
	v62.7h33.1v-7.4h-25.2L179,283.7z M361.3,292.5l-6.5,16.8l-6.2-17l-6.3-18.8h-8c5.2,14.8,10.9,29.9,16.6,44.4c2.5,0.1,5,0,7.5,0
	l8.8-22.1l8.9-22.5h-7.7C368.2,273.6,364.9,282.5,361.3,292.5z M197.3,238.3c1.3,0,2.3-0.4,3.2-1.3s1.3-1.8,1.3-3.2
	s-0.4-2.3-1.3-3.2c-0.9-0.8-1.8-1.2-3.2-1.2s-2.4,0.4-3.2,1.3c-0.9,0.9-1.3,2-1.3,3.2c0,1.3,0.4,2.4,1.3,3.2
	C194.9,237.9,196,238.3,197.3,238.3z M194.5,231c0.8-0.8,1.6-1.1,2.8-1.1c1.1,0,2.1,0.3,2.8,1.1c0.8,0.8,1.2,1.6,1.2,2.8
	c0,1.1-0.4,2.1-1.2,2.8c-0.8,0.8-1.7,1.1-2.8,1.1c-1.1,0-2.1-0.3-2.8-1.1c-0.8-0.8-1.2-1.7-1.2-2.8
	C193.4,232.8,193.7,231.8,194.5,231z M196.3,234.3h0.5c0.3,0,0.8,0.3,1,1l0.7,1.4h1l-0.8-1.5c-0.3-0.7-0.7-1-1-1.1
	c0.4-0.1,0.8-0.2,1.1-0.5c0.2-0.2,0.3-0.7,0.3-1c0-0.4-0.1-0.8-0.4-1.1c-0.3-0.3-0.9-0.4-1.6-0.4h-1.6v5.7h0.8L196.3,234.3z
	 M196.3,231.7h0.8c0.5,0,0.9,0.1,1.1,0.2c0.2,0.1,0.2,0.3,0.2,0.8c0,0.7-0.4,1-1.2,1h-0.9L196.3,231.7z M66.2,233.7
	c0-2-0.1-3.5-0.1-4.3c0.2,1,0.4,1.7,0.7,2.3l7.6,16.8h1.3l7.6-17.1c0.2-0.4,0.4-1.2,0.7-2.2H84c-0.1,1.7-0.2,3.2-0.2,4.3v14.9h2.6
	v-22.2h-3.3l-7.1,15.5c-0.2,0.7-0.7,1.5-1.1,2.7h-0.1c-0.1-0.7-0.5-1.5-1-2.6l-6.8-15.5h-3.5v22.2h2.5L66.2,233.7z M92,233.9h2.3
	v13.8H92V233.9z M93.1,228.7c0.4,0,0.9-0.1,1.2-0.4c0.3-0.3,0.5-0.7,0.5-1.2c0-0.4-0.1-0.9-0.5-1.2c-0.3-0.3-0.8-0.4-1.2-0.4
	s-0.9,0.1-1.2,0.4c-0.3,0.3-0.5,0.8-0.5,1.2c0,0.5,0.1,0.9,0.5,1.2C92.2,228.6,92.6,228.7,93.1,228.7z M110.1,247.9v-2.4
	c-1.2,0.9-2.5,1.4-3.9,1.4c-1.6,0-2.9-0.5-3.9-1.6c-1-1.1-1.5-2.5-1.5-4.3c0-2,0.5-3.5,1.5-4.6c1-1.1,2.4-1.6,3.9-1.6
	c1.3,0,2.6,0.4,3.8,1.2v-2.7c-1.1-0.5-2.3-0.8-3.7-0.8c-2.5,0-4.6,0.8-6,2.4c-1.4,1.5-2.2,3.7-2.2,6.3c0,2.3,0.7,4.2,2.1,5.7
	c1.4,1.5,3.3,2.3,5.4,2.3C107.5,249,108.9,248.6,110.1,247.9z M116.5,240.6c0-1.8,0.4-3.3,1.2-4.3c0.8-0.9,1.5-1.4,2.6-1.4
	c0.9,0,1.5,0.1,2,0.5v-2.6c-0.3-0.1-0.9-0.2-1.5-0.2c-0.9,0-1.7,0.3-2.4,0.9c-0.8,0.7-1.4,1.5-1.7,2.7h-0.1v-3.3H114v15.9h2.5
	L116.5,240.6z M131.1,249c2.4,0,4.3-0.8,5.8-2.3c1.4-1.5,2.2-3.6,2.2-6.1c0-2.6-0.7-4.6-2-6.1c-1.3-1.5-3.2-2.2-5.5-2.2
	c-2.4,0-4.3,0.8-5.8,2.1c-1.5,1.5-2.3,3.7-2.3,6.4c0,2.4,0.7,4.3,2.1,5.9C126.9,248.2,128.7,249,131.1,249L131.1,249z M127.5,236.1
	c1-1,2.3-1.5,3.8-1.5c1.6,0,2.8,0.5,3.8,1.5c0.9,1.1,1.4,2.6,1.4,4.6c0,2-0.4,3.5-1.3,4.5c-0.9,1.1-2.2,1.6-3.8,1.6
	s-2.9-0.5-3.9-1.6c-1-1.1-1.4-2.5-1.4-4.5C126,238.7,126.4,237.2,127.5,236.1z M150,247.7c1-0.9,1.5-2,1.5-3.3
	c0-1.2-0.4-2.2-1.2-2.9c-0.7-0.7-1.5-1.2-2.9-1.7c-1.2-0.5-2-1-2.4-1.3c-0.4-0.4-0.7-0.9-0.7-1.6c0-0.7,0.2-1.2,0.8-1.5
	c0.5-0.4,1.2-0.7,2.1-0.7c1.4,0,2.5,0.3,3.6,1.1v-2.5c-1-0.5-2.2-0.8-3.4-0.8c-1.6,0-3,0.4-4,1.3c-1.1,0.9-1.5,2-1.5,3.3
	c0,1.2,0.3,2.2,1,2.8c0.5,0.7,1.5,1.2,2.8,1.7s2.2,1.1,2.6,1.5s0.7,0.9,0.7,1.5c0,1.5-1,2.3-3,2.3c-1.5,0-2.9-0.5-4.1-1.5v2.7
	c1.1,0.7,2.4,1,3.9,1C147.5,249,149,248.5,150,247.7L150,247.7z M162.1,232.4c-2.4,0-4.3,0.8-5.8,2.1c-1.5,1.5-2.3,3.7-2.3,6.4
	c0,2.4,0.7,4.3,2.1,5.9c1.4,1.5,3.3,2.3,5.7,2.3c2.4,0,4.3-0.8,5.8-2.3c1.4-1.5,2.2-3.6,2.2-6.1c0-2.6-0.7-4.6-2-6.1
	C166.3,233.1,164.5,232.4,162.1,232.4L162.1,232.4z M167.1,240.7c0,2-0.4,3.5-1.3,4.5c-0.9,1.1-2.2,1.6-3.8,1.6s-2.9-0.5-3.9-1.6
	c-1-1.1-1.4-2.5-1.4-4.5c0-2.1,0.5-3.6,1.5-4.7c1-1,2.3-1.5,3.8-1.5c1.5,0,2.8,0.5,3.7,1.5C166.6,237.1,167.1,238.6,167.1,240.7
	L167.1,240.7z M173.9,248.6h2.5v-13.7h3.7v-2.2h-3.7v-2.4c0-2.2,0.9-3.4,2.6-3.4c0.7,0,1.2,0.1,1.6,0.4v-2.3
	c-0.4-0.2-1.1-0.2-1.8-0.2c-1.4,0-2.5,0.4-3.4,1.3c-1.1,1-1.6,2.3-1.6,4.1v2.6h-2.7v2.2h2.7L173.9,248.6z M184.3,244.3
	c0,3,1.4,4.7,4.1,4.7c1,0,1.7-0.1,2.4-0.5v-2.2c-0.4,0.3-1,0.5-1.6,0.5c-0.9,0-1.4-0.2-1.8-0.7c-0.3-0.4-0.5-1.2-0.5-2.3v-8.9h4
	v-2.2h-4v-4.7c-0.9,0.3-1.7,0.5-2.5,0.8v3.8h-2.7v2.2h2.7L184.3,244.3z M456.6,273.5c-0.9-0.8-1.8-1.2-3.2-1.2
	c-1.3,0-2.4,0.4-3.2,1.3c-0.9,0.9-1.3,2-1.3,3.2c0,1.3,0.4,2.3,1.3,3.2c0.9,0.8,2,1.2,3.2,1.2c1.3,0,2.3-0.4,3.2-1.3
	s1.3-1.8,1.3-3.2C458,275.4,457.5,274.3,456.6,273.5z M456.3,279.5c-0.8,0.8-1.6,1.1-2.8,1.1c-1.1,0-2.1-0.3-2.8-1.1
	c-0.8-0.8-1.2-1.7-1.2-2.8s0.3-2.1,1.1-2.8c0.8-0.8,1.6-1.1,2.8-1.1c1.1,0,2.1,0.3,2.8,1.1s1.2,1.7,1.2,2.8S457,278.7,456.3,279.5z
	 M454,276.9c0.4-0.1,0.8-0.3,1.1-0.5c0.2-0.2,0.3-0.7,0.3-1c0-0.4-0.1-0.8-0.4-1.1s-0.9-0.4-1.6-0.4h-1.6v5.7h0.8v-2.4h0.5
	c0.3,0,0.7,0.3,1,1l0.7,1.4h1l-0.8-1.5C454.5,277.3,454.2,277,454,276.9z M453.4,276.4h-0.9v-1.8h0.8c0.5,0,0.9,0.1,1.1,0.2
	s0.2,0.3,0.2,0.8C454.5,276.1,454.2,276.4,453.4,276.4L453.4,276.4z M311.8,232.1h0.8v-5.7h1.8v-0.8H310v0.8h1.8L311.8,232.1z
	 M316.1,227.9v-1.3c0,0.3,0.1,0.5,0.2,0.7l2.2,4.9h0.3l2.2-4.9c0.1-0.1,0.1-0.3,0.2-0.7v5.5h0.8v-6.4h-0.9l-2,4.5
	c0,0.1-0.2,0.4-0.3,0.9h-0.1c0-0.2-0.1-0.4-0.3-0.8l-2-4.5h-1v6.4h0.8L316.1,227.9z"/>
</svg>
