<?xml version="1.0" encoding="utf-8"?>
<!-- Generator: Adobe Illustrator 25.0.0, SVG Export Plug-In . SVG Version: 6.00 Build 0)  -->
<svg version="1.1" id="Layer_1" xmlns="http://www.w3.org/2000/svg" xmlns:xlink="http://www.w3.org/1999/xlink" x="0px" y="0px"
	 viewBox="0 0 114.3 148.8" style="enable-background:new 0 0 114.3 148.8;" xml:space="preserve">
<style type="text/css">
	.st0{fill:#FFFFFF;}
	.st1{fill:#989898;}
	.st2{fill:#676767;}
	.st3{fill:#87338D;}
	.st4{fill:#ED1765;}
	.st5{fill:#1683C6;}
	.st6{fill:url(#SVGID_1_);}
</style>
<path d="M101.6,148.8H12.7c-7,0-12.7-5.7-12.7-12.7V12.7C0,5.7,5.7,0,12.7,0h88.9c7,0,12.7,5.7,12.7,12.7v123.4
	C114.3,143.1,108.6,148.8,101.6,148.8z"/>
<rect x="11.3" y="13.3" class="st0" width="92.6" height="122.1"/>
<circle class="st1" cx="57.7" cy="7" r="0.9"/>
<rect x="14.6" y="16.2" class="st2" width="4.3" height="0.5"/>
<rect x="14.6" y="17.7" class="st2" width="4.3" height="0.5"/>
<rect x="14.6" y="19" class="st2" width="4.3" height="0.5"/>
<rect x="11.3" y="22.5" class="st3" width="92.6" height="7.6"/>
<rect x="16.7" y="34.5" class="st3" width="81.8" height="36.8"/>
<rect x="27" y="50.3" class="st0" width="46.9" height="6.4"/>
<rect x="74" y="50.3" class="st4" width="12.9" height="6.4"/>
<rect x="16.9" y="74.7" class="st5" width="23" height="14.8"/>
<rect x="46.2" y="74.7" class="st5" width="23" height="14.8"/>
<rect x="75.4" y="74.7" class="st5" width="23" height="14.8"/>
<rect x="46.1" y="92" class="st1" width="23" height="1.5"/>
<rect x="16.9" y="92" class="st1" width="23" height="1.5"/>
<rect x="75.4" y="92" class="st1" width="23" height="1.5"/>
<rect x="75.4" y="94.9" class="st1" width="23" height="1.5"/>
<rect x="75.4" y="97.9" class="st1" width="23" height="1.5"/>
<rect x="75.4" y="100.9" class="st1" width="23" height="1.5"/>
<rect x="75.4" y="103.9" class="st1" width="23" height="1.5"/>
<rect x="46.1" y="94.9" class="st1" width="23" height="1.5"/>
<rect x="46.1" y="97.9" class="st1" width="23" height="1.5"/>
<rect x="46.1" y="100.9" class="st1" width="23" height="1.5"/>
<rect x="46.1" y="103.9" class="st1" width="23" height="1.5"/>
<rect x="16.9" y="94.9" class="st1" width="23" height="1.5"/>
<rect x="16.9" y="97.9" class="st1" width="23" height="1.5"/>
<rect x="16.9" y="100.9" class="st1" width="23" height="1.5"/>
<rect x="16.9" y="103.9" class="st1" width="23" height="1.5"/>
<rect x="16.9" y="108.4" class="st4" width="81.4" height="18.6"/>
<rect x="16.9" y="129.3" class="st1" width="81.4" height="1.7"/>
<rect x="16.9" y="132.2" class="st1" width="81.4" height="1.7"/>
<radialGradient id="SVGID_1_" cx="57.7273" cy="141.6103" r="3.4779" gradientUnits="userSpaceOnUse">
	<stop  offset="0" style="stop-color:#767676"/>
	<stop  offset="0.6658" style="stop-color:#010101"/>
</radialGradient>
<circle class="st6" cx="57.7" cy="141.6" r="3.5"/>
</svg>
