<?xml version="1.0" encoding="utf-8"?>
<!-- Generator: Adobe Illustrator 25.0.0, SVG Export Plug-In . SVG Version: 6.00 Build 0)  -->
<svg version="1.1" id="Layer_1" xmlns="http://www.w3.org/2000/svg" xmlns:xlink="http://www.w3.org/1999/xlink" x="0px" y="0px"
	 viewBox="0 0 2496.8 857.9" style="enable-background:new 0 0 2496.8 857.9;" xml:space="preserve">
<style type="text/css">
	.st0{fill:#252A2F;}
	.st1{fill:url(#SVGID_1_);}
	.st2{fill:url(#SVGID_2_);}
</style>
<g>
	<g id="XMLID_2_">
		<g>
			<path class="st0" d="M2488.7,634.9l-58.7,7.9c0,0-3.9-23.5-23.5-39.2c-19.6-15.6-86.1-11.7-86.1,27.4c0,35.2,27.4,31.3,82.2,43
				c50.9,11.7,93.9,27.4,93.9,97.8c0,39.2-27.4,86.1-113.5,86.1c-140.8,0-129.1-105.6-129.1-105.6h62.6c0,0,3.9,35.2,27.4,43
				c27.4,11.7,74.3,7.9,82.2-15.6c7.9-23.5,7.9-50.9-66.5-58.7c-74.3-11.7-105.6-43-105.6-93.9c3.9-46.9,31.3-86.1,129.1-86.1
				C2480.9,545,2488.7,634.9,2488.7,634.9z"/>
			<path class="st0" d="M2218.7,634.9l-58.7,7.9c0,0-3.9-23.5-23.5-39.2s-86.1-11.7-86.1,27.4c0,35.2,27.4,31.3,82.2,43
				c50.9,11.7,93.9,27.4,93.9,97.8c0,39.2-27.4,86.1-113.5,86.1c-140.8,0-129.1-105.6-129.1-105.6h66.5c0,0,3.9,35.2,27.4,43
				c27.4,11.7,74.3,7.9,82.2-15.6c7.9-23.5,7.9-50.9-66.5-58.7c-66.5-7.9-101.8-35.2-101.8-78.2c0-3.9,0-7.9,0-15.6
				c3.9-46.9,31.3-86.1,125.2-86.1C2207,545,2218.7,634.9,2218.7,634.9z"/>
			<path class="st0" d="M1885.9,744.6h66.5c0,0,0,0,0,3.9c-3.9,23.5-15.6,105.6-129.1,105.6c-101.8,0-137-78.2-137-160.4
				c0-86.1,50.9-148.7,144.8-148.7c105.6,0,113.5,101.8,113.5,101.8l-62.6,7.9c0,0-3.9-54.8-58.7-54.8c-54.8,0-74.3,43-74.3,93.9
				c0,50.9,15.6,109.5,70.5,109.5C1874.2,803.3,1885.9,744.6,1885.9,744.6z"/>
			<path class="st0" d="M1553.3,552.7v297.5h-54.8v-27.4c0,0-19.6,35.2-66.5,35.2c-50.9,0-86.1-23.5-90-113.5
				c0-93.9,58.7-117.4,97.8-117.4c35.2,0,58.7,27.4,58.7,27.4V552.7C1498.5,552.7,1553.3,552.7,1553.3,552.7z M1498.5,740.7
				c0-31.3-3.9-66.5-50.9-66.5c-46.9,0-46.9,54.8-46.9,70.5c0,19.6,3.9,62.6,46.9,62.6C1490.7,807.2,1498.5,772,1498.5,740.7z"/>
			<path class="st0" d="M1299,701.5c0,7.9,0,144.8,0,144.8h-58.7c0,0,0-121.4,0-140.8c0-19.6-11.7-35.2-35.2-35.2
				c-23.5,0-46.9,19.6-46.9,39.2s0,137,0,137h-58.8V627.2h58.7v31.3c0,0,19.6-39.2,78.2-35.2C1302.8,631.1,1299,693.7,1299,701.5z"
				/>
			<rect x="993.6" y="631.1" class="st0" width="58.7" height="219.1"/>
			<rect x="993.6" y="552.7" class="st0" width="58.7" height="50.9"/>
			<polygon class="st0" points="970.2,631.1 907.6,850.2 848.8,850.2 809.8,705.4 770.6,850.2 715.9,850.2 653.1,631.1 715.9,631.1 
				747.2,772 790.2,631.1 841.1,631.1 876.3,775.9 907.6,631.1 			"/>
			<rect x="567.1" y="548.9" class="st0" width="58.7" height="297.5"/>
			<rect x="461.4" y="631.1" class="st0" width="58.7" height="219.1"/>
			<rect x="461.4" y="552.7" class="st0" width="58.7" height="50.9"/>
			<path class="st0" d="M414.4,709.4c0,62.6,0,137,0,137h-54.8v-27.4c0,0-15.6,19.6-39.2,27.4c-35.2,11.7-86.1,3.9-101.8-35.2
				c-11.7-31.3,0-66.5,31.3-82.2c39.2-19.6,105.6-15.6,105.6-15.6s3.9-15.7-3.9-27.4c-3.9-11.7-15.6-15.6-31.3-15.6
				c-39.2,0-39.2,27.4-39.2,27.4l-54.8-3.9c0,0,0-27.4,27.4-46.9c15.6-11.7,35.2-15.6,70.5-15.6
				C367.5,631.1,414.4,646.8,414.4,709.4z M324.5,807.2c39.2-7.9,35.2-54.8,35.2-54.8s-7.9,0-15.6,0c-11.7,0-27.4,0-39.2,3.9
				c-19.6,3.9-27.4,11.7-31.3,19.6c-3.9,11.7,0,23.5,11.7,31.3C293.2,811.2,304.9,811.2,324.5,807.2z"/>
			<polygon class="st0" points="242.3,548.9 242.3,607.6 152.2,607.6 152.2,850.2 85.6,850.2 85.6,603.6 -0.4,603.6 -0.4,548.9 			
				"/>
		</g>
	</g>
</g>
<g>
	
		<linearGradient id="SVGID_1_" gradientUnits="userSpaceOnUse" x1="1027.0724" y1="-1731.3881" x2="1686.0428" y2="-1731.3881" gradientTransform="matrix(1 0 0 -1 0 -1600.2219)">
		<stop  offset="0" style="stop-color:#45A9B3"/>
		<stop  offset="0.3892" style="stop-color:#3FAEB0"/>
		<stop  offset="1" style="stop-color:#2CBBAB"/>
	</linearGradient>
	<path class="st1" d="M1686.4,90.1c0,0-54.8,82.2-148.7,66.5S1428.1,0.2,1259.8,0.2c-207.4-0.1-230.9,176-230.9,176
		s58.7-86.1,148.7-70.5c90.1,15.6,125.2,156.5,309.2,156.5S1686.4,90.1,1686.4,90.1z"/>
	
		<linearGradient id="SVGID_2_" gradientUnits="userSpaceOnUse" x1="806.6718" y1="-1993.5603" x2="1465.6423" y2="-1993.5603" gradientTransform="matrix(1 0 0 -1 0 -1600.2219)">
		<stop  offset="0" style="stop-color:#45A9B3"/>
		<stop  offset="0.3892" style="stop-color:#3FAEB0"/>
		<stop  offset="1" style="stop-color:#2CBBAB"/>
	</linearGradient>
	<path class="st2" d="M1467.2,352.2c0,0-54.8,82.2-148.7,66.5c-93.9-15.6-109.5-156.5-277.9-156.5c-207.4,0-230.9,176.1-230.9,176.1
		s58.7-86.1,148.7-70.5c86.1,15.6,125.2,156.5,309.2,156.5S1467.2,352.2,1467.2,352.2z"/>
</g>
</svg>
