<?xml version="1.0" encoding="utf-8"?>
<!-- Generator: Adobe Illustrator 25.0.0, SVG Export Plug-In . SVG Version: 6.00 Build 0)  -->
<svg version="1.1" xmlns="http://www.w3.org/2000/svg" xmlns:xlink="http://www.w3.org/1999/xlink" x="0px" y="0px"
	 viewBox="0 0 104 22" style="enable-background:new 0 0 104 22;" xml:space="preserve">
<style type="text/css">
	.st0{fill-rule:evenodd;clip-rule:evenodd;fill:url(#SVGID_1_);}
	.st1{fill-rule:evenodd;clip-rule:evenodd;fill:#24292E;}
	.st2{display:none;}
	.st3{display:inline;fill:url(#SVGID_2_);}
	.st4{display:inline;fill:url(#SVGID_3_);}
	.st5{display:inline;}
	.st6{fill:#24292E;}
	.st7{fill:url(#SVGID_4_);}
	.st8{fill:url(#SVGID_5_);}
</style>
<symbol  id="B" viewBox="-51.4 -10.5 102.7 21">
	<g>
		
			<linearGradient id="SVGID_1_" gradientUnits="userSpaceOnUse" x1="7930.835" y1="-7812.6128" x2="7931.835" y2="-7809.835" gradientTransform="matrix(34.943 0 0 20.989 -277178.5312 163949.7656)">
			<stop  offset="0" style="stop-color:#2383AE"/>
			<stop  offset="1" style="stop-color:#6DD7B9"/>
		</linearGradient>
		<path class="st0" d="M-42.6-3.5c1.2-4.7,4.1-7,8.7-7c7,0,7.9,5.2,11.4,6.1c2.3,0.6,4.4-0.3,6.1-2.6c-1.2,4.7-4.1,7-8.7,7
			c-7,0-7.9-5.2-11.4-6.1C-38.8-6.7-40.9-5.8-42.6-3.5L-42.6-3.5z M-51.4,7c1.2-4.7,4.1-7,8.7-7c7,0,7.9,5.2,11.4,6.1
			c2.3,0.6,4.4-0.3,6.1-2.6c-1.2,4.7-4.1,7-8.7,7c-7,0-7.9-5.2-11.4-6.1C-47.6,3.8-49.6,4.7-51.4,7z"/>
		<path class="st1" d="M-10.1-2.4h-2.3v-1.4h6.2v1.4h-2.3v6.2h-1.6V-2.4z M-3.2,3.1c-0.2,0.2-0.5,0.4-0.7,0.6
			C-4.2,3.9-4.6,3.9-5,3.9c-0.2,0-0.5,0-0.7-0.1c-0.2-0.1-0.4-0.2-0.6-0.3C-6.5,3.4-6.6,3.2-6.7,3s-0.2-0.5-0.2-0.8
			c0-0.4,0.1-0.7,0.3-0.9c0.2-0.2,0.4-0.4,0.7-0.6C-5.6,0.6-5.3,0.5-5,0.5s0.7-0.1,1-0.1l0.7,0V0.1c0-0.3-0.1-0.6-0.3-0.7
			s-0.4-0.2-0.7-0.2c-0.6,0-0.9,0.2-1,0.7l-1.4-0.1c0.1-0.6,0.4-1,0.8-1.3s1-0.4,1.7-0.4c0.4,0,0.8,0.1,1.1,0.2s0.5,0.2,0.7,0.4
			C-2.1-1.1-2-0.9-1.9-0.6c0.1,0.3,0.1,0.6,0.1,0.9v3.5h-1.4L-3.2,3.1L-3.2,3.1z M-3.2,1.3l-0.7,0c-0.3,0-0.6,0-0.8,0.1
			S-5,1.6-5.1,1.6s-0.2,0.2-0.2,0.3c0,0.1-0.1,0.2-0.1,0.3c0,0.2,0.1,0.3,0.2,0.4s0.3,0.2,0.5,0.2c0.4,0,0.7-0.1,0.9-0.3
			c0.1-0.1,0.2-0.2,0.3-0.4s0.1-0.3,0.1-0.6L-3.2,1.3L-3.2,1.3z M-0.6-1.8h1.5v5.5h-1.5V-1.8z M-0.6-3.8h1.5v1.3h-1.5V-3.8z
			 M2.2-3.8h1.5v7.6H2.2V-3.8z M4.3-1.8H6l0.8,3.7l1.1-3.6h1.3l1,3.6l0.8-3.7h1.6l-1.6,5.5H9.4l-1-3.7l-1,3.7H5.9L4.3-1.8L4.3-1.8z
			 M13.1-1.8h1.5v5.5h-1.5V-1.8z M13.1-3.8h1.5v1.3h-1.5V-3.8z M15.9-1.8h1.4V-1c0.2-0.3,0.5-0.6,0.8-0.7c0.3-0.1,0.6-0.2,0.9-0.2
			c0.6,0,1.1,0.2,1.4,0.5s0.5,0.8,0.5,1.6v3.7h-1.5V0.3c0-0.4-0.1-0.7-0.2-0.8s-0.3-0.2-0.6-0.2c-0.2,0-0.4,0-0.5,0.1
			s-0.3,0.1-0.4,0.2c-0.1,0.1-0.2,0.2-0.2,0.4c-0.1,0.1-0.1,0.3-0.1,0.5v3.3h-1.5L15.9-1.8L15.9-1.8z M25.9,3.1
			c-0.4,0.6-1,0.9-1.7,0.9c-0.8,0-1.4-0.3-1.7-0.8S21.9,1.9,21.9,1c0-0.4,0.1-0.8,0.2-1.2c0.1-0.4,0.3-0.7,0.5-0.9
			c0.2-0.3,0.5-0.5,0.8-0.6c0.3-0.1,0.6-0.2,1-0.2c0.3,0,0.6,0.1,0.8,0.1s0.5,0.3,0.8,0.6v-2.6h1.5v7.6h-1.4L25.9,3.1L25.9,3.1z
			 M25.9,1c0-0.4,0-0.6-0.1-0.9s-0.2-0.4-0.3-0.5c-0.1-0.1-0.3-0.2-0.4-0.2c-0.1,0-0.3-0.1-0.4-0.1c-0.2,0-0.3,0-0.5,0.1
			c-0.1,0.1-0.3,0.2-0.4,0.3S23.6,0,23.5,0.2S23.4,0.7,23.4,1c0,0.3,0,0.6,0.1,0.8s0.1,0.4,0.2,0.5s0.2,0.2,0.4,0.3s0.3,0.1,0.5,0.1
			c0.4,0,0.6-0.1,0.9-0.3c0.1-0.1,0.3-0.3,0.3-0.5c0.1-0.2,0.1-0.5,0.1-0.8L25.9,1L25.9,1z M37.5,1.2c0,0.4-0.1,0.8-0.3,1.1
			c-0.1,0.3-0.4,0.6-0.6,0.9c-0.3,0.3-0.6,0.5-1,0.6C35.3,3.9,34.8,4,34.3,4c-0.6,0-1.1-0.1-1.5-0.3c-0.4-0.2-0.8-0.5-1.1-0.8
			c-0.3-0.3-0.5-0.8-0.7-1.3s-0.2-1-0.2-1.6c0-0.6,0.1-1.2,0.2-1.7s0.4-0.9,0.7-1.3c0.3-0.3,0.7-0.6,1.1-0.8C33.3-3.9,33.8-4,34.3-4
			c0.5,0,0.9,0.1,1.3,0.2s0.7,0.3,0.9,0.5s0.4,0.5,0.6,0.8c0.2,0.3,0.3,0.7,0.3,1.1l-1.6,0.2c-0.1-0.4-0.2-0.8-0.4-1.1
			s-0.6-0.4-1.1-0.4c-0.6,0-1.1,0.2-1.4,0.7S32.5-0.8,32.5,0c0,0.8,0.2,1.5,0.5,1.9c0.3,0.4,0.8,0.7,1.4,0.7c0.5,0,0.8-0.1,1.1-0.4
			s0.4-0.6,0.4-1.1L37.5,1.2z M39.9,1.3c0,0.5,0.2,0.8,0.4,1s0.7,0.3,1.2,0.3c0.2,0,0.5,0,0.6-0.1s0.3-0.1,0.4-0.2
			c0.1-0.1,0.2-0.2,0.2-0.3c0-0.1,0.1-0.3,0.1-0.4c0-0.2-0.1-0.4-0.2-0.6s-0.4-0.3-0.8-0.4l-1-0.2c-0.4-0.1-0.7-0.2-1-0.3
			S39.2,0,39-0.2c-0.2-0.2-0.4-0.4-0.5-0.7c-0.1-0.3-0.2-0.6-0.2-0.9c0-0.3,0.1-0.7,0.2-1c0.1-0.3,0.4-0.5,0.6-0.7
			c0.3-0.2,0.6-0.3,0.9-0.4S40.9-4,41.3-4c0.6,0,1,0.1,1.4,0.2s0.7,0.3,0.9,0.5s0.4,0.4,0.5,0.7c0.1,0.3,0.2,0.6,0.2,0.9l-1.5,0.2
			c-0.1-0.4-0.2-0.7-0.4-0.9s-0.6-0.3-1-0.3c-0.3,0-0.5,0-0.7,0.1s-0.3,0.1-0.4,0.2c-0.1,0.1-0.2,0.2-0.2,0.3C40-2.1,40-2,40-1.8
			c0,0.3,0.1,0.5,0.2,0.6S40.7-1,41-0.9l1,0.2c0.8,0.2,1.4,0.4,1.8,0.8s0.6,0.9,0.6,1.6c0,0.3-0.1,0.6-0.2,0.9
			c-0.1,0.3-0.3,0.5-0.6,0.7c-0.3,0.2-0.6,0.4-0.9,0.5C42.4,4,42,4,41.5,4c-1,0-1.8-0.2-2.4-0.7s-0.8-1.1-0.9-2L39.9,1.3L39.9,1.3z
			 M46.8,1.3c0,0.5,0.2,0.8,0.4,1s0.7,0.3,1.2,0.3c0.2,0,0.4,0,0.6-0.1c0.2-0.1,0.3-0.1,0.4-0.2c0.1-0.1,0.2-0.2,0.2-0.3
			c0-0.1,0.1-0.3,0.1-0.4c0-0.2-0.1-0.4-0.2-0.6c-0.2-0.2-0.4-0.3-0.8-0.4l-1-0.2c-0.4-0.1-0.7-0.2-1-0.3S46.1,0,45.9-0.2
			s-0.4-0.4-0.5-0.7s-0.2-0.6-0.2-0.9c0-0.3,0.1-0.7,0.2-1c0.1-0.3,0.4-0.5,0.6-0.7c0.3-0.2,0.6-0.3,0.9-0.4S47.8-4,48.2-4
			c0.6,0,1,0.1,1.4,0.2s0.7,0.3,0.9,0.5c0.2,0.2,0.4,0.4,0.5,0.7c0.1,0.3,0.2,0.6,0.2,0.9l-1.5,0.2c-0.1-0.4-0.2-0.7-0.4-0.9
			s-0.6-0.3-1-0.3c-0.3,0-0.5,0-0.7,0.1s-0.3,0.1-0.4,0.2C47.1-2.4,47-2.3,47-2.2c0,0.1-0.1,0.2-0.1,0.3c0,0.3,0.1,0.5,0.2,0.6
			s0.4,0.3,0.8,0.3L49-0.7c0.8,0.2,1.4,0.4,1.8,0.8s0.6,0.9,0.6,1.6c0,0.3-0.1,0.6-0.2,0.9c-0.1,0.3-0.3,0.5-0.6,0.7
			c-0.2,0.2-0.6,0.4-0.9,0.5S48.9,4,48.4,4c-1,0-1.8-0.2-2.4-0.7s-0.8-1.1-0.9-2L46.8,1.3z"/>
	</g>
</symbol>
<g id="Layer_1" class="st2">
	
		<use xlink:href="#B"  width="102.7" height="21" x="-51.4" y="-10.5" transform="matrix(1 0 0 1 51.8686 10.9945)" style="display:inline;overflow:visible;"/>
</g>
<g id="Layer_2" class="st2">
	<linearGradient id="SVGID_2_" gradientUnits="userSpaceOnUse" x1="9.1912" y1="5.7353" x2="35.4853" y2="5.7353">
		<stop  offset="0" style="stop-color:#44A9B3"/>
		<stop  offset="0.2375" style="stop-color:#39ADB2"/>
		<stop  offset="0.6481" style="stop-color:#1DB7B0"/>
		<stop  offset="1" style="stop-color:#00C1AE"/>
	</linearGradient>
	<path class="st3" d="M35.5,4c0,0-2.2,3.2-6,2.6s-4.4-6.2-11.1-6.2c-8.2,0-9.2,7.1-9.2,7.1s2.4-3.4,5.9-2.7S20,11,27.4,11
		S35.5,4,35.5,4z"/>
	<linearGradient id="SVGID_3_" gradientUnits="userSpaceOnUse" x1="0.3968" y1="16.2647" x2="26.691" y2="16.2647">
		<stop  offset="0" style="stop-color:#44A9B3"/>
		<stop  offset="0.2375" style="stop-color:#39ADB2"/>
		<stop  offset="0.6481" style="stop-color:#1DB7B0"/>
		<stop  offset="1" style="stop-color:#00C1AE"/>
	</linearGradient>
	<path class="st4" d="M26.7,14.6c0,0-2.2,3.2-6,2.6S16.3,11,9.6,11c-8.2,0-9.2,7.1-9.2,7.1s2.4-3.4,5.9-2.7c3.5,0.7,5,6.2,12.3,6.2
		S26.7,14.6,26.7,14.6z"/>
</g>
<g id="Layer_3" class="st2">
	<g id="XMLID_1_" class="st5">
		<g>
			<path class="st6" d="M101,8.5c-0.6-0.4-2.3-0.3-2.2,0.7c0,0.9,0.7,0.8,2.1,1.1s2.4,0.7,2.4,2.5c0,1-0.7,2.2-2.9,2.2
				c-3.6,0-3.3-2.7-3.3-2.7h1.6c0,0,0.1,0.9,0.8,1.1c0.7,0.3,1.9,0.2,2.1-0.4c0.2-0.6,0.2-1.3-1.7-1.5c-1.9-0.3-2.7-1.1-2.6-2.3
				C97.2,8,97.9,7,100.4,7c2.5,0,2.7,2.3,2.7,2.3l-1.5,0.2C101.6,9.5,101.6,8.9,101,8.5z"/>
			<path class="st6" d="M92.9,11.6c-2-0.3-2.7-1.1-2.7-2.3C90.3,8,91,7,93.5,7s2.7,2.3,2.7,2.3l-1.5,0.2c0,0-0.1-0.6-0.6-1
				c-0.6-0.4-2.2-0.3-2.2,0.7c0,0.9,0.7,0.8,2.1,1.1s2.4,0.7,2.4,2.5c0,1-0.7,2.2-2.9,2.2c-3.6,0-3.3-2.7-3.3-2.7h1.6
				c0,0,0.1,0.9,0.8,1.1c0.7,0.3,1.9,0.2,2.1-0.4C94.8,12.6,94.8,11.8,92.9,11.6z"/>
			<path class="st6" d="M82.7,10.8c0-2.2,1.3-3.8,3.7-3.8c2.7,0,2.9,2.6,2.9,2.6l-1.6,0.2c0,0-0.1-1.4-1.4-1.4s-1.9,1.2-1.9,2.4
				s0.4,2.8,1.8,2.8s1.5-1.4,1.5-1.4h1.7c0,0,0,2.8-3.3,2.8C83.5,15,82.7,13,82.7,10.8z"/>
			<path class="st6" d="M76.5,13.8c1.1,0,1.3-1,1.3-1.7c0-0.8-0.1-1.8-1.3-1.8c-1.2,0-1.2,1.4-1.2,1.8
				C75.3,12.6,75.4,13.8,76.5,13.8z M77.7,9.8V7.2h1.5v7.6h-1.4v-0.7c0,0-0.5,0.9-1.7,0.9c-1.3,0-2.2-0.6-2.3-2.9c0-2.4,1.5-3,2.4-3
				C77.1,9.1,77.7,9.8,77.7,9.8z"/>
			<path class="st6" d="M71.2,9.1c1.6,0.1,1.5,1.7,1.5,2c0,0.2,0,3.7,0,3.7h-1.5c0,0,0-3.1,0-3.6c0-0.5-0.3-0.9-0.8-0.9
				c-0.6,0-1.2,0.4-1.2,1c0,0.6,0,3.5,0,3.5h-1.5V9.2h1.5V10C69.2,10,69.7,8.9,71.2,9.1z"/>
			<rect x="65" y="7.2" class="st6" width="1.5" height="1.3"/>
			<rect x="65" y="9.2" class="st6" width="1.5" height="5.6"/>
			<polygon class="st6" points="59.7,9.3 61,9.3 62,12.9 62.8,9.2 64.3,9.2 62.7,14.8 61.2,14.8 60.2,11.1 59.2,14.8 57.8,14.8 
				56.2,9.2 57.8,9.2 58.6,12.9 			"/>
			<rect x="54.1" y="7.2" class="st6" width="1.5" height="7.6"/>
			<rect x="51.3" y="7.2" class="st6" width="1.5" height="1.3"/>
			<rect x="51.3" y="9.2" class="st6" width="1.5" height="5.6"/>
			<path class="st6" d="M46.8,13.7c0.2,0.1,0.5,0.1,1,0c1-0.2,0.9-1.4,0.9-1.4s-0.2,0-0.5,0c-0.3,0-0.7,0-1,0.1
				c-0.4,0.1-0.6,0.3-0.7,0.5C46.5,13.3,46.5,13.6,46.8,13.7z M48.7,14.1c0,0-0.4,0.5-1,0.7c-0.9,0.3-2.2,0.1-2.5-0.9
				c-0.3-0.8,0-1.7,0.8-2.1c1-0.5,2.7-0.4,2.7-0.4s0.1-0.4-0.1-0.8c-0.1-0.3-0.4-0.4-0.8-0.4c-1,0-1,0.7-1,0.7l-1.4-0.1
				c0,0,0-0.8,0.7-1.2C46.5,9.2,47,9,47.9,9c1,0,2.2,0.4,2.2,2.2c0,1.6,0,3.5,0,3.5h-1.4V14.1z"/>
			<polygon class="st6" points="41.8,8.6 39.5,8.6 39.5,7.2 45.7,7.2 45.7,8.6 43.4,8.6 43.4,14.8 41.8,14.8 			"/>
		</g>
		<g>
		</g>
	</g>
</g>
<g id="Layer_5">
	<g>
		<g id="XMLID_2_">
			<g>
				<path class="st6" d="M85.9,16.4l-1.5,0.2c0,0-0.1-0.6-0.6-1c-0.5-0.4-2.2-0.3-2.2,0.7c0,0.9,0.7,0.8,2.1,1.1
					c1.3,0.3,2.4,0.7,2.4,2.5c0,1-0.7,2.2-2.9,2.2c-3.6,0-3.3-2.7-3.3-2.7h1.6c0,0,0.1,0.9,0.7,1.1c0.7,0.3,1.9,0.2,2.1-0.4
					c0.2-0.5,0.2-1.3-1.7-1.5c-1.9-0.3-2.7-1.1-2.7-2.3c0.1-1.3,0.8-2.2,3.2-2.2C85.7,14.1,85.9,16.4,85.9,16.4z"/>
				<path class="st6" d="M79,16.4l-1.5,0.2c0,0-0.1-0.6-0.6-1c-0.6-0.4-2.3-0.3-2.2,0.7c0,0.9,0.7,0.8,2.1,1.1
					c1.3,0.3,2.4,0.7,2.4,2.5c0,1-0.7,2.2-2.9,2.2c-3.6,0-3.3-2.7-3.3-2.7h1.6c0,0,0.1,0.9,0.8,1.1c0.7,0.3,1.9,0.2,2.1-0.4
					c0.2-0.5,0.2-1.3-1.7-1.5c-1.7-0.2-2.5-0.9-2.6-2c0-0.1,0-0.2,0-0.4c0.1-1.3,0.8-2.2,3.2-2.2C78.7,14.1,79,16.4,79,16.4z"/>
				<path class="st6" d="M70.5,19.2h1.7c0,0,0,0.1,0,0.1c0,0.6-0.4,2.7-3.3,2.7c-2.6,0-3.5-2-3.5-4.2s1.3-3.8,3.7-3.8
					c2.7,0,2.9,2.6,2.9,2.6l-1.6,0.2c0,0-0.1-1.4-1.5-1.4c-1.3,0-1.9,1.1-1.9,2.4s0.4,2.8,1.8,2.8S70.5,19.2,70.5,19.2z"/>
				<path class="st6" d="M62,14.3v7.6h-1.4v-0.7c0,0-0.5,0.9-1.7,0.9c-1.3,0-2.2-0.6-2.3-2.9c0-2.4,1.5-3,2.4-3
					c0.9,0,1.5,0.7,1.5,0.7v-2.6H62z M60.6,19.1c0-0.8-0.1-1.7-1.3-1.7c-1.2,0-1.2,1.4-1.2,1.9c0,0.4,0.1,1.6,1.2,1.6
					C60.4,20.8,60.6,19.9,60.6,19.1z"/>
				<path class="st6" d="M55.5,18.1c0,0.2,0,3.7,0,3.7H54c0,0,0-3.1,0-3.6c0-0.5-0.2-0.9-0.9-0.9c-0.6,0-1.2,0.4-1.2,1s0,3.5,0,3.5
					h-1.5v-5.6H52v0.8c0,0,0.5-1,2-0.9C55.6,16.3,55.5,17.9,55.5,18.1z"/>
				<rect x="47.7" y="16.3" class="st6" width="1.5" height="5.6"/>
				<rect x="47.7" y="14.3" class="st6" width="1.5" height="1.3"/>
				<polygon class="st6" points="47.1,16.3 45.5,21.9 44,21.9 43,18.2 42,21.9 40.6,21.9 39,16.3 40.6,16.3 41.4,20 42.5,16.3 
					43.8,16.3 44.7,20 45.5,16.3 				"/>
				<rect x="36.8" y="14.2" class="st6" width="1.5" height="7.6"/>
				<rect x="34.1" y="16.3" class="st6" width="1.5" height="5.6"/>
				<rect x="34.1" y="14.3" class="st6" width="1.5" height="1.3"/>
				<path class="st6" d="M32.9,18.3c0,1.6,0,3.5,0,3.5h-1.4v-0.7c0,0-0.4,0.5-1,0.7c-0.9,0.3-2.2,0.1-2.6-0.9
					c-0.3-0.8,0-1.7,0.8-2.1c1-0.5,2.7-0.4,2.7-0.4s0.1-0.5-0.1-0.8c-0.1-0.3-0.4-0.4-0.8-0.4c-1,0-1,0.7-1,0.7l-1.4-0.1
					c0,0,0-0.7,0.7-1.2c0.4-0.3,0.9-0.4,1.8-0.4C31.7,16.1,32.9,16.6,32.9,18.3z M30.6,20.8c1-0.2,0.9-1.4,0.9-1.4s-0.2,0-0.5,0
					c-0.3,0-0.7,0-1,0.1c-0.4,0.1-0.6,0.3-0.7,0.5c-0.1,0.3,0,0.6,0.3,0.8C29.8,20.9,30.1,20.9,30.6,20.8z"/>
				<polygon class="st6" points="28.5,14.2 28.5,15.7 26.2,15.7 26.2,21.9 24.5,21.9 24.5,15.6 22.3,15.6 22.3,14.2 				"/>
			</g>
			<g>
			</g>
		</g>
	</g>
</g>
<g id="Layer_4">
	<g>
		<linearGradient id="SVGID_4_" gradientUnits="userSpaceOnUse" x1="48.5582" y1="3.3713" x2="65.3958" y2="3.3713">
			<stop  offset="0" style="stop-color:#44A9B3"/>
			<stop  offset="0.2375" style="stop-color:#39ADB2"/>
			<stop  offset="0.6481" style="stop-color:#1DB7B0"/>
			<stop  offset="1" style="stop-color:#00C1AE"/>
		</linearGradient>
		<path class="st7" d="M65.4,2.3c0,0-1.4,2.1-3.8,1.7c-2.4-0.4-2.8-4-7.1-4c-5.3,0-5.9,4.5-5.9,4.5s1.5-2.2,3.8-1.8
			c2.2,0.4,3.2,4,7.9,4S65.4,2.3,65.4,2.3z"/>
		<linearGradient id="SVGID_5_" gradientUnits="userSpaceOnUse" x1="42.9267" y1="10.1139" x2="59.7643" y2="10.1139">
			<stop  offset="0" style="stop-color:#44A9B3"/>
			<stop  offset="0.2375" style="stop-color:#39ADB2"/>
			<stop  offset="0.6481" style="stop-color:#1DB7B0"/>
			<stop  offset="1" style="stop-color:#00C1AE"/>
		</linearGradient>
		<path class="st8" d="M59.8,9c0,0-1.4,2.1-3.8,1.7c-2.4-0.4-2.8-4-7.1-4c-5.3,0-5.9,4.5-5.9,4.5s1.5-2.2,3.8-1.8
			c2.2,0.4,3.2,4,7.9,4S59.8,9,59.8,9z"/>
	</g>
</g>
</svg>
