<?xml version="1.0" encoding="utf-8"?>
<!-- Generator: Adobe Illustrator 25.0.0, SVG Export Plug-In . SVG Version: 6.00 Build 0)  -->
<svg version="1.1" id="Layer_1" xmlns="http://www.w3.org/2000/svg" xmlns:xlink="http://www.w3.org/1999/xlink" x="0px" y="0px"
	 viewBox="0 0 1359.9 467.2" style="enable-background:new 0 0 1359.9 467.2;" xml:space="preserve">
<style type="text/css">
	.st0{fill:#252A2F;}
	.st1{fill:url(#SVGID_1_);}
	.st2{fill:url(#SVGID_2_);}
</style>
<g>
	<g id="XMLID_2_">
		<g>
			<path class="st0" d="M1355.7,345.7l-32,4.3c0,0-2.1-12.8-12.8-21.3c-10.7-8.5-46.9-6.4-46.9,14.9c0,19.2,14.9,17,44.8,23.4
				c27.7,6.4,51.1,14.9,51.1,53.3c0,21.3-14.9,46.9-61.8,46.9c-76.7,0-70.3-57.5-70.3-57.5h34.1c0,0,2.1,19.2,14.9,23.4
				c14.9,6.4,40.5,4.3,44.8-8.5c4.3-12.8,4.3-27.7-36.2-32c-40.5-6.4-57.5-23.4-57.5-51.1c2.1-25.5,17-46.9,70.3-46.9
				C1351.4,296.8,1355.7,345.7,1355.7,345.7z"/>
			<path class="st0" d="M1208.6,345.7l-32,4.3c0,0-2.1-12.8-12.8-21.3c-10.7-8.6-46.9-6.4-46.9,14.9c0,19.2,14.9,17,44.8,23.4
				c27.7,6.4,51.1,14.9,51.1,53.3c0,21.3-14.9,46.9-61.8,46.9c-76.7,0-70.3-57.5-70.3-57.5h36.2c0,0,2.1,19.2,14.9,23.4
				c14.9,6.4,40.5,4.3,44.8-8.5c4.3-12.8,4.3-27.7-36.2-32c-36.2-4.3-55.4-19.2-55.4-42.6c0-2.1,0-4.3,0-8.5
				c2.1-25.5,17-46.9,68.2-46.9C1202.3,296.8,1208.6,345.7,1208.6,345.7z"/>
			<path class="st0" d="M1027.4,405.5h36.2c0,0,0,0,0,2.1c-2.1,12.8-8.5,57.5-70.3,57.5c-55.4,0-74.6-42.6-74.6-87.4
				c0-46.9,27.7-81,78.9-81c57.5,0,61.8,55.4,61.8,55.4l-34.1,4.3c0,0-2.1-29.8-32-29.8c-29.8,0-40.5,23.4-40.5,51.1
				c0,27.7,8.5,59.6,38.4,59.6C1021,437.4,1027.4,405.5,1027.4,405.5z"/>
			<path class="st0" d="M846.2,300.9v162h-29.8v-14.9c0,0-10.7,19.2-36.2,19.2c-27.7,0-46.9-12.8-49-61.8c0-51.1,32-63.9,53.3-63.9
				c19.2,0,32,14.9,32,14.9v-55.4H846.2z M816.4,403.3c0-17-2.1-36.2-27.7-36.2c-25.5,0-25.5,29.8-25.5,38.4
				c0,10.7,2.1,34.1,25.5,34.1C812.2,439.6,816.4,420.4,816.4,403.3z"/>
			<path class="st0" d="M707.7,382c0,4.3,0,78.9,0,78.9h-32c0,0,0-66.1,0-76.7c0-10.7-6.4-19.2-19.2-19.2
				c-12.8,0-25.5,10.7-25.5,21.3c0,10.7,0,74.6,0,74.6h-32V341.5h32v17c0,0,10.7-21.3,42.6-19.2C709.8,343.6,707.7,377.7,707.7,382z
				"/>
			<rect x="541.4" y="343.6" class="st0" width="32" height="119.3"/>
			<rect x="541.4" y="300.9" class="st0" width="32" height="27.7"/>
			<polygon class="st0" points="528.7,343.6 494.6,463 462.6,463 441.3,384.1 420,463 390.2,463 356,343.6 390.2,343.6 407.2,420.4 
				430.6,343.6 458.4,343.6 477.5,422.5 494.6,343.6 			"/>
			<rect x="309.1" y="298.9" class="st0" width="32" height="162"/>
			<rect x="251.6" y="343.6" class="st0" width="32" height="119.3"/>
			<rect x="251.6" y="300.9" class="st0" width="32" height="27.7"/>
			<path class="st0" d="M226,386.3c0,34.1,0,74.6,0,74.6h-29.8V446c0,0-8.5,10.7-21.3,14.9c-19.2,6.4-46.9,2.1-55.4-19.2
				c-6.4-17,0-36.2,17-44.8c21.3-10.7,57.5-8.5,57.5-8.5s2.1-8.6-2.1-14.9c-2.1-6.4-8.5-8.5-17-8.5c-21.3,0-21.3,14.9-21.3,14.9
				l-29.8-2.1c0,0,0-14.9,14.9-25.5c8.5-6.4,19.2-8.5,38.4-8.5C200.4,343.6,226,352.2,226,386.3z M177,439.6
				c21.3-4.3,19.2-29.8,19.2-29.8s-4.3,0-8.5,0c-6.4,0-14.9,0-21.3,2.1c-10.7,2.1-14.9,6.4-17,10.7c-2.1,6.4,0,12.8,6.4,17
				C160,441.7,166.3,441.7,177,439.6z"/>
			<polygon class="st0" points="132.2,298.9 132.2,330.8 83.2,330.8 83.2,463 46.9,463 46.9,328.7 0.1,328.7 0.1,298.9 			"/>
		</g>
	</g>
</g>
<g>
	
		<linearGradient id="SVGID_1_" gradientUnits="userSpaceOnUse" x1="559.6501" y1="2071.6106" x2="918.5419" y2="2071.6106" gradientTransform="matrix(1 0 0 1 0 -2000.2219)">
		<stop  offset="0" style="stop-color:#45A9B3"/>
		<stop  offset="0.3892" style="stop-color:#3FAEB0"/>
		<stop  offset="1" style="stop-color:#2CBBAB"/>
	</linearGradient>
	<path class="st1" d="M918.7,49c0,0-29.8,44.8-81,36.2C786.6,76.7,778.1,0,686.4,0C573.4,0,560.6,95.9,560.6,95.9s32-46.9,81-38.4
		c49.1,8.5,68.2,85.2,168.4,85.2S918.7,49,918.7,49z"/>
	
		<linearGradient id="SVGID_2_" gradientUnits="userSpaceOnUse" x1="439.6145" y1="2214.3296" x2="798.5063" y2="2214.3296" gradientTransform="matrix(1 0 0 1 0 -2000.2219)">
		<stop  offset="0" style="stop-color:#45A9B3"/>
		<stop  offset="0.3892" style="stop-color:#3FAEB0"/>
		<stop  offset="1" style="stop-color:#2CBBAB"/>
	</linearGradient>
	<path class="st2" d="M799.4,191.8c0,0-29.8,44.8-81,36.2c-51.1-8.5-59.6-85.2-151.4-85.2c-113,0-125.8,95.9-125.8,95.9
		s32-46.9,81-38.4c46.9,8.5,68.2,85.2,168.4,85.2S799.4,191.8,799.4,191.8z"/>
</g>
</svg>
