<?xml version="1.0" encoding="utf-8"?>
<!-- Generator: Adobe Illustrator 25.2.3, SVG Export Plug-In . SVG Version: 6.00 Build 0)  -->
<svg version="1.1" id="Layer_2" xmlns="http://www.w3.org/2000/svg" xmlns:xlink="http://www.w3.org/1999/xlink" x="0px" y="0px"
	 viewBox="0 0 504 360" style="enable-background:new 0 0 504 360;" xml:space="preserve">
<style type="text/css">
	.st0{fill:#252A2F;}
	.st1{fill:url(#SVGID_1_);}
	.st2{fill:url(#SVGID_2_);}
</style>
<path class="st0" d="M328.3,307.6l-10.3,1.4c0,0-0.7-4.1-4.1-6.9c-3.4-2.8-15.1-2.1-15.1,4.8c0,6.2,4.8,5.5,14.4,7.6
	c8.9,2.1,16.5,4.8,16.5,17.2c0,6.9-4.8,15.1-19.9,15.1c-24.8,0-22.7-18.6-22.7-18.6h11c0,0,0.7,6.2,4.8,7.6
	c4.8,2.1,13.1,1.4,14.4-2.8c1.4-4.1,1.4-8.9-11.7-10.3c-13.1-2.1-18.6-7.6-18.6-16.5c0.7-8.3,5.5-15.1,22.7-15.1
	C326.9,291.7,328.3,307.6,328.3,307.6L328.3,307.6z M280.8,307.6l-10.3,1.4c0,0-0.7-4.1-4.1-6.9c-3.4-2.8-15.1-2.1-15.1,4.8
	c0,6.2,4.8,5.5,14.4,7.6c8.9,2.1,16.5,4.8,16.5,17.2c0,6.9-4.8,15.1-19.9,15.1c-24.8,0-22.7-18.6-22.7-18.6h11.7
	c0,0,0.7,6.2,4.8,7.6c4.8,2.1,13.1,1.4,14.4-2.8c1.4-4.1,1.4-8.9-11.7-10.3c-11.7-1.4-17.9-6.2-17.9-13.8v-2.8
	c0.7-8.3,5.5-15.1,22-15.1C278.8,291.7,280.8,307.6,280.8,307.6L280.8,307.6z M222.4,326.8h11.7v0.7c-0.7,4.1-2.8,18.6-22.7,18.6
	c-17.9,0-24.1-13.8-24.1-28.2c0-15.1,8.9-26.1,25.4-26.1c18.6,0,19.9,17.9,19.9,17.9l-11,1.4c0,0-0.7-9.6-10.3-9.6
	c-9.6,0-13.1,7.6-13.1,16.5c0,8.9,2.8,19.3,12.4,19.3S222.4,326.8,222.4,326.8L222.4,326.8z"/>
<path class="st0" d="M458,193.7v80h-14.7v-7.4c0,0-5.3,9.5-17.9,9.5c-13.7,0-23.2-6.3-24.2-30.5c0-25.3,15.8-31.6,26.3-31.6
	c9.5,0,15.8,7.4,15.8,7.4v-27.4H458z M443.3,244.3c0-8.4-1.1-17.9-13.7-17.9c-12.6,0-12.6,14.7-12.6,19c0,5.3,1.1,16.8,12.6,16.8
	C441.2,262.2,443.3,252.7,443.3,244.3L443.3,244.3z M389.6,233.7v39h-15.8v-37.9c0-5.3-3.2-9.5-9.5-9.5s-12.6,5.3-12.6,10.5v36.9
	h-15.8v-59h15.8v8.4c0,0,5.3-10.5,21.1-9.5C390.6,214.8,389.6,231.6,389.6,233.7z M307.4,214.8h15.8v59h-15.8V214.8z M307.4,193.7
	h15.8v13.7h-15.8V193.7z M301.1,214.8l-16.8,59h-15.8l-10.5-39l-10.5,39h-14.7l-16.8-59h16.8l8.4,37.9l11.6-37.9h13.7l9.5,39l8.4-39
	H301.1z M192.7,192.7h15.8v80h-15.8V192.7z M164.2,214.8H180v59h-15.8V214.8z M164.2,193.7H180v13.7h-15.8V193.7z M151.6,235.9v36.9
	h-14.7v-7.4c0,0-4.2,5.3-10.5,7.4c-9.5,3.2-23.2,1.1-27.4-9.5c-3.2-8.4,0-17.9,8.4-22.1c10.5-5.3,28.4-4.2,28.4-4.2s1.1-4.2-1.1-7.4
	c-1.1-3.2-4.2-4.2-8.4-4.2c-10.5,0-10.5,7.4-10.5,7.4l-14.7-1.1c0,0,0-7.4,7.4-12.6c4.2-3.2,9.5-4.2,19-4.2
	C139,214.8,151.6,219,151.6,235.9z M127.4,262.2c10.5-2.1,9.5-14.7,9.5-14.7h-4.2c-3.2,0-7.4,0-10.5,1.1c-5.3,1.1-7.4,3.2-8.4,5.3
	c-1.1,3.2,0,6.3,3.2,8.4C119,263.2,122.1,263.2,127.4,262.2z M105.3,192.7v15.8H81.1v65.3H63.2v-66.3H40v-14.7H105.3z"/>
<linearGradient id="SVGID_1_" gradientUnits="userSpaceOnUse" x1="-239.5008" y1="487.9577" x2="-234.2296" y2="487.9577" gradientTransform="matrix(39.185 0 0 39.185 9584.4229 -19066.3867)">
	<stop  offset="0" style="stop-color:#45A9B3"/>
	<stop  offset="0.389" style="stop-color:#3FAEB0"/>
	<stop  offset="1" style="stop-color:#2CBBAB"/>
</linearGradient>
<path class="st1" d="M406.3,41.3c0,0-17.2,25.8-46.6,20.9c-29.4-4.9-34.3-49.1-87.1-49.1c-65,0-72.4,55.2-72.4,55.2
	s18.4-27,46.6-22.1s39.3,49.1,96.9,49.1S406.3,41.3,406.3,41.3z"/>
<linearGradient id="SVGID_2_" gradientUnits="userSpaceOnUse" x1="-241.2636" y1="490.0551" x2="-235.9928" y2="490.0551" gradientTransform="matrix(39.185 0 0 39.185 9584.4229 -19066.3867)">
	<stop  offset="0" style="stop-color:#45A9B3"/>
	<stop  offset="0.389" style="stop-color:#3FAEB0"/>
	<stop  offset="1" style="stop-color:#2CBBAB"/>
</linearGradient>
<path class="st2" d="M275,177.5c57.7,0,62.6-54,62.6-54s-17.2,25.8-46.6,20.9c-29.4-4.9-34.3-49.1-87.1-49.1
	c-65,0-72.4,55.2-72.4,55.2s18.4-27,46.6-22.1C205.1,133.3,217.3,177.5,275,177.5"/>
</svg>
