<?xml version="1.0" encoding="utf-8"?>
<!-- Generator: Adobe Illustrator 25.0.0, SVG Export Plug-In . SVG Version: 6.00 Build 0)  -->
<svg version="1.1" id="Layer_1" xmlns="http://www.w3.org/2000/svg" xmlns:xlink="http://www.w3.org/1999/xlink" x="0px" y="0px"
	 viewBox="0 0 63.7 22.1" style="enable-background:new 0 0 63.7 22.1;" xml:space="preserve">
<style type="text/css">
	.st0{fill:#252A2F;}
	.st1{fill:url(#SVGID_1_);}
	.st2{fill:url(#SVGID_2_);}
</style>
<g>
	<g id="XMLID_2_">
		<g>
			<path class="st0" d="M63.6,16.4l-1.5,0.2c0,0-0.1-0.6-0.6-1c-0.5-0.4-2.2-0.3-2.2,0.7c0,0.9,0.7,0.8,2.1,1.1
				c1.3,0.3,2.4,0.7,2.4,2.5c0,1-0.7,2.2-2.9,2.2c-3.6,0-3.3-2.7-3.3-2.7h1.6c0,0,0.1,0.9,0.7,1.1c0.7,0.3,1.9,0.2,2.1-0.4
				c0.2-0.6,0.2-1.3-1.7-1.5c-1.9-0.3-2.7-1.1-2.7-2.4c0.1-1.2,0.8-2.2,3.3-2.2C63.4,14.1,63.6,16.4,63.6,16.4z"/>
			<path class="st0" d="M56.7,16.4l-1.5,0.2c0,0-0.1-0.6-0.6-1c-0.5-0.4-2.2-0.3-2.2,0.7c0,0.9,0.7,0.8,2.1,1.1
				c1.3,0.3,2.4,0.7,2.4,2.5c0,1-0.7,2.2-2.9,2.2c-3.6,0-3.3-2.7-3.3-2.7h1.7c0,0,0.1,0.9,0.7,1.1c0.7,0.3,1.9,0.2,2.1-0.4
				c0.2-0.6,0.2-1.3-1.7-1.5c-1.7-0.2-2.6-0.9-2.6-2c0-0.1,0-0.2,0-0.4C51,15,51.7,14,54.1,14C56.4,14.1,56.7,16.4,56.7,16.4z"/>
			<path class="st0" d="M48.2,19.2h1.7c0,0,0,0,0,0.1c-0.1,0.6-0.4,2.7-3.3,2.7c-2.6,0-3.5-2-3.5-4.1c0-2.2,1.3-3.8,3.7-3.8
				c2.7,0,2.9,2.6,2.9,2.6l-1.6,0.2c0,0-0.1-1.4-1.5-1.4s-1.9,1.1-1.9,2.4s0.4,2.8,1.8,2.8S48.2,19.2,48.2,19.2z"/>
			<path class="st0" d="M39.7,14.3v7.6h-1.4v-0.7c0,0-0.5,0.9-1.7,0.9c-1.3,0-2.2-0.6-2.3-2.9c0-2.4,1.5-3,2.5-3
				c0.9,0,1.5,0.7,1.5,0.7v-2.6C38.3,14.3,39.7,14.3,39.7,14.3z M38.3,19.1c0-0.8-0.1-1.7-1.3-1.7s-1.2,1.4-1.2,1.8
				c0,0.5,0.1,1.6,1.2,1.6C38.1,20.8,38.3,19.9,38.3,19.1z"/>
			<path class="st0" d="M33.2,18.1c0,0.2,0,3.7,0,3.7h-1.5c0,0,0-3.1,0-3.6s-0.3-0.9-0.9-0.9s-1.2,0.5-1.2,1s0,3.5,0,3.5h-1.5v-5.6
				h1.5V17c0,0,0.5-1,2-0.9C33.3,16.3,33.2,17.9,33.2,18.1z"/>
			<rect x="25.4" y="16.3" class="st0" width="1.5" height="5.6"/>
			<rect x="25.4" y="14.3" class="st0" width="1.5" height="1.3"/>
			<polygon class="st0" points="24.8,16.3 23.2,21.9 21.7,21.9 20.7,18.2 19.7,21.9 18.3,21.9 16.7,16.3 18.3,16.3 19.1,19.9 
				20.2,16.3 21.5,16.3 22.4,20 23.2,16.3 			"/>
			<rect x="14.5" y="14.2" class="st0" width="1.5" height="7.6"/>
			<rect x="11.8" y="16.3" class="st0" width="1.5" height="5.6"/>
			<rect x="11.8" y="14.3" class="st0" width="1.5" height="1.3"/>
			<path class="st0" d="M10.6,18.3c0,1.6,0,3.5,0,3.5H9.2v-0.7c0,0-0.4,0.5-1,0.7c-0.9,0.3-2.2,0.1-2.6-0.9c-0.3-0.8,0-1.7,0.8-2.1
				c1-0.5,2.7-0.4,2.7-0.4S9.2,18,9,17.7c-0.1-0.3-0.4-0.4-0.8-0.4c-1,0-1,0.7-1,0.7l-1.4-0.1c0,0,0-0.7,0.7-1.2
				c0.4-0.3,0.9-0.4,1.8-0.4C9.4,16.3,10.6,16.7,10.6,18.3z M8.3,20.8c1-0.2,0.9-1.4,0.9-1.4s-0.2,0-0.4,0c-0.3,0-0.7,0-1,0.1
				C7.3,19.6,7.1,19.8,7,20c-0.1,0.3,0,0.6,0.3,0.8C7.5,20.9,7.8,20.9,8.3,20.8z"/>
			<polygon class="st0" points="6.2,14.2 6.2,15.7 3.9,15.7 3.9,21.9 2.2,21.9 2.2,15.6 0,15.6 0,14.2 			"/>
		</g>
	</g>
</g>
<g>
	
		<linearGradient id="SVGID_1_" gradientUnits="userSpaceOnUse" x1="26.2534" y1="18.7252" x2="43.0909" y2="18.7252" gradientTransform="matrix(1 0 0 -1 0 22.0752)">
		<stop  offset="0" style="stop-color:#45A9B3"/>
		<stop  offset="0.3892" style="stop-color:#3FAEB0"/>
		<stop  offset="1" style="stop-color:#2CBBAB"/>
	</linearGradient>
	<path class="st1" d="M43.1,2.3c0,0-1.4,2.1-3.8,1.7c-2.4-0.4-2.8-4-7.1-4c-5.3,0-5.9,4.5-5.9,4.5s1.5-2.2,3.8-1.8s3.2,4,7.9,4
		S43.1,2.3,43.1,2.3z"/>
	
		<linearGradient id="SVGID_2_" gradientUnits="userSpaceOnUse" x1="20.6219" y1="12.0252" x2="37.4594" y2="12.0252" gradientTransform="matrix(1 0 0 -1 0 22.0752)">
		<stop  offset="0" style="stop-color:#45A9B3"/>
		<stop  offset="0.3892" style="stop-color:#3FAEB0"/>
		<stop  offset="1" style="stop-color:#2CBBAB"/>
	</linearGradient>
	<path class="st2" d="M37.5,9c0,0-1.4,2.1-3.8,1.7c-2.4-0.4-2.8-4-7.1-4c-5.3,0-5.9,4.5-5.9,4.5s1.5-2.2,3.8-1.8
		c2.2,0.4,3.2,4,7.9,4S37.5,9,37.5,9z"/>
</g>
</svg>
